SplineFontDB: 3.0
FontName: HexDevanagari11
FullName: HexDevanagari11
FamilyName: HexDevanagari11
Weight: Regular
Copyright: Copyright 2014 - Matt Heximer (www.10fourdesign.com)\nwith Reserved Font Name; "Hex"\nbased on "Bellota" by Kemie Guaida (www.pixilate.com), \nwhich is in turn based on "Snippet" by Gesine Todt.\n\n   Licensed under the SIL Open Font License 1.1 This license is available with a FAQ at: http://scripts.sil.org/OFL\n(see file OFL.txt)
Version: 2.700
ItalicAngle: 0
UnderlinePosition: 0
UnderlineWidth: 48
Ascent: 800
Descent: 200
sfntRevision: 0x0001b333
LayerCount: 3
Layer: 0 1 "Back"  1
Layer: 1 0 "Fore"  0
Layer: 2 0 "Lines"  1
XUID: [1021 641 1310512963 1469]
FSType: 0
OS2Version: 0
OS2_WeightWidthSlopeOnly: 0
OS2_UseTypoMetrics: 1
CreationTime: 1403654757
ModificationTime: 1403656130
PfmFamily: 33
TTFWeight: 400
TTFWidth: 5
LineGap: 260
VLineGap: 0
Panose: 2 11 6 0 0 0 0 0 0 0
OS2TypoAscent: 976
OS2TypoAOffset: 0
OS2TypoDescent: -356
OS2TypoDOffset: 0
OS2TypoLinegap: 0
OS2WinAscent: 1095
OS2WinAOffset: 0
OS2WinDescent: 503
OS2WinDOffset: 0
HheadAscent: 1095
HheadAOffset: 0
HheadDescent: -503
HheadDOffset: 0
OS2SubXSize: 910
OS2SubYSize: 846
OS2SubXOff: 0
OS2SubYOff: 260
OS2SupXSize: 910
OS2SupYSize: 846
OS2SupXOff: 0
OS2SupYOff: 650
OS2StrikeYSize: 65
OS2StrikeYPos: 325
OS2Vendor: 'ACE '
OS2CodePages: 00000001.00000000
OS2UnicodeRanges: 80008023.00002042.00000000.00000000
Lookup: 4 0 0 "halnHalantFormslookup29"  {"halnHalantFormslookup29 subtable"  } ['haln' ('deva' <'dflt' 'MAR ' 'NEP ' > 'dev2' <'dflt' 'MAR ' 'NEP ' > 'DFLT' <'dflt' > ) ]
Lookup: 1 0 0 "LocalizedMrForms_lookup0"  {"LocalizedMrForms_lookup0 subtable"  } ['locl' ('deva' <'MAR ' > 'dev2' <'MAR ' > ) ]
Lookup: 4 0 0 "LocalizedMrHalfFormslookup1"  {"LocalizedMrHalfFormslookup1 subtable"  } ['locl' ('deva' <'MAR ' > 'dev2' <'MAR ' > ) ]
Lookup: 4 0 0 "'locl' Localized Forms lookup 35"  {"'locl' Localized Forms lookup 35-1"  } ['locl' ('dev2' <'MAR ' > 'deva' <'MAR ' > ) ]

StartChar: .notdef
Encoding: 256 -1 0
Width: 500
Flags: MW
LayerCount: 3
Fore
SplineSet
50 605 m 1
 50 95 l 1
 220 350 l 1
 50 605 l 1
80 50 m 1
 420 50 l 1
 250 305 l 1
 80 50 l 1
280 350 m 1
 450 95 l 1
 450 605 l 1
 280 350 l 1
250 395 m 1
 420 650 l 1
 80 650 l 1
 250 395 l 1
0 0 m 1
 0 700 l 1
 500 700 l 1
 500 0 l 1
 0 0 l 1
EndSplineSet
EndChar

StartChar: exclam
Encoding: 258 33 2
Width: 189
Flags: MW
LayerCount: 3
Fore
SplineSet
78 95 m 0
 91.3333333333 95 102.666666667 90.1666666667 112 80.5 c 0
 121.333333333 70.8333333333 126 59.3333333333 126 46 c 0
 126 33.3333333333 121.333333333 22.3333333333 112 13 c 0
 102.666666667 3.66666666667 91.3333333333 -1 78 -1 c 0
 64.6666666667 -1 53.1666666667 3.66666666667 43.5 13 c 0
 33.8333333333 22.3333333333 29 33.3333333333 29 46 c 0
 29 59.3333333333 33.8333333333 70.8333333333 43.5 80.5 c 0
 53.1666666667 90.1666666667 64.6666666667 95 78 95 c 0
107 159 m 1
 51 159 l 1
 41 704 l 1
 117 704 l 1
 107 159 l 1
EndSplineSet
EndChar

StartChar: quotedbl
Encoding: 259 34 3
Width: 314
Flags: MW
LayerCount: 3
Fore
SplineSet
223 492 m 1
 171 492 l 1
 161 684 l 1
 233 684 l 1
 223 492 l 1
113 492 m 1
 61 492 l 1
 51 684 l 1
 123 684 l 1
 113 492 l 1
EndSplineSet
EndChar

StartChar: numbersign
Encoding: 260 35 4
Width: 596
Flags: MW
LayerCount: 3
Fore
SplineSet
199 432 m 1
 199 236 l 1
 366 236 l 1
 366 432 l 1
 199 432 l 1
422 484 m 1
 536 484 l 1
 536 432 l 1
 422 432 l 1
 422 236 l 1
 536 236 l 1
 536 184 l 1
 422 184 l 1
 422 30 l 1
 368 30 l 1
 368 184 l 1
 199 184 l 1
 199 30 l 1
 145 30 l 1
 145 184 l 1
 29 184 l 1
 29 236 l 1
 143 236 l 1
 143 432 l 1
 29 432 l 1
 29 484 l 1
 143 484 l 1
 143 637 l 1
 199 637 l 1
 199 484 l 1
 366 484 l 1
 366 637 l 1
 422 637 l 1
 422 484 l 1
EndSplineSet
EndChar

StartChar: dollar
Encoding: 261 36 5
Width: 542
Flags: MW
LayerCount: 3
Fore
SplineSet
286 303 m 1
 286 46 l 1
 306 47.3333333333 323.333333333 50.3333333333 338 55 c 0
 354 59.6666666667 368.333333333 67.3333333333 381 78 c 0
 393 87.3333333333 402.666666667 99.6666666667 410 115 c 0
 417.333333333 131 421 149 421 169 c 0
 421 188.333333333 417.333333333 205.333333333 410 220 c 0
 403.333333333 234.666666667 393.333333333 247 380 257 c 0
 366.666666667 267.666666667 352.333333333 276.333333333 337 283 c 0
 317.666666667 291.666666667 300.666666667 298.333333333 286 303 c 1
228 384 m 1
 228 608 l 1
 211.333333333 606.666666667 198.166666667 604.333333333 188.5 601 c 0
 178.833333333 597.666666667 171.833333333 594.333333333 167.5 591 c 0
 163.166666667 587.666666667 157.333333333 582.333333333 150 575 c 0
 132 557 123 535.333333333 123 510 c 0
 123 492.666666667 125.666666667 477 131 463 c 0
 135 451.666666667 142.333333333 440.333333333 153 429 c 0
 165.666666667 417.666666667 177 409.333333333 187 404 c 0
 204.333333333 394.666666667 218 388 228 384 c 1
286 750 m 1
 286 662 l 1
 322 659.333333333 357.666666667 651 393 637 c 0
 426.333333333 623.666666667 455.666666667 608 481 590 c 1
 448 542 l 1
 425.333333333 556 401.333333333 568.666666667 376 580 c 0
 352 592 322 600.666666667 286 606 c 1
 286 364 l 1
 304.666666667 358.666666667 328.333333333 350.333333333 357 339 c 0
 381.666666667 329.666666667 402.666666667 318 420 304 c 0
 439 290 454 272 465 250 c 0
 477 229 483 202 483 169 c 0
 483 139.666666667 477.333333333 114.333333333 466 93 c 0
 454.666666667 71 440.333333333 53.3333333333 423 40 c 0
 405 25 384 14 360 7 c 0
 337.333333333 -1 312.666666667 -6 286 -8 c 1
 286 -70 l 1
 228 -70 l 1
 228 -9 l 1
 188.666666667 -6.33333333333 151.333333333 1.66666666667 116 15 c 0
 82.6666666667 27.6666666667 52.6666666667 44 26 64 c 1
 59 112 l 1
 83 96.6666666667 107.666666667 83.3333333333 133 72 c 0
 161 59.3333333333 192.666666667 51 228 47 c 1
 228 322 l 1
 207 329 186 337 165 346 c 0
 145 354.666666667 127.333333333 366.333333333 112 381 c 0
 95.3333333333 397.666666667 83 415.333333333 75 434 c 0
 65.6666666667 456 61 481.333333333 61 510 c 0
 61 528 64.6666666667 546 72 564 c 0
 80.6666666667 582.666666667 92 598 106 610 c 0
 120.666666667 624 138.333333333 635.333333333 159 644 c 0
 179 653 202 659 228 662 c 1
 228 750 l 1
 286 750 l 1
EndSplineSet
EndChar

StartChar: percent
Encoding: 262 37 6
Width: 737
Flags: MW
LayerCount: 3
Fore
SplineSet
630 138 m 2
 630 145 l 2
 630 159 627.666666667 171.666666667 623 183 c 0
 617.666666667 196.333333333 611.333333333 207 604 215 c 0
 597 224 588 231 577 236 c 0
 567 240.666666667 555.666666667 243 543 243 c 0
 530.333333333 243 519 240.666666667 509 236 c 0
 498.333333333 231.333333333 489 224.333333333 481 215 c 0
 474.333333333 206.333333333 468.333333333 195.666666667 463 183 c 0
 458.333333333 171.666666667 456 159 456 145 c 2
 456 138 l 2
 456 124 458.333333333 111.333333333 463 100 c 0
 467.666666667 88.6666666667 473.666666667 78.3333333333 481 69 c 0
 489 59.6666666667 498.333333333 52.6666666667 509 48 c 0
 521 42.6666666667 532.333333333 40 543 40 c 0
 553.666666667 40 565 42.6666666667 577 48 c 0
 588 53 597 60 604 69 c 0
 611.333333333 77.6666666667 617.666666667 88 623 100 c 0
 627.666666667 111.333333333 630 124 630 138 c 2
407 138 m 2
 407 145 l 2
 407 165.666666667 410.333333333 184.666666667 417 202 c 0
 423.666666667 219.333333333 433.333333333 235.333333333 446 250 c 0
 460 264 474.333333333 274.666666667 489 282 c 0
 507 289.333333333 525 293 543 293 c 0
 560.333333333 293 578 289.333333333 596 282 c 0
 611.333333333 274.666666667 626 264 640 250 c 0
 652 237.333333333 661.666666667 221.333333333 669 202 c 0
 676.333333333 183.333333333 680 164.333333333 680 145 c 2
 680 138 l 2
 680 118.666666667 676.333333333 99.6666666667 669 81 c 0
 661.666666667 61.6666666667 652 46 640 34 c 0
 626.666666667 19.3333333333 612 8.33333333333 596 1 c 0
 578 -6.33333333333 560.333333333 -10 543 -10 c 0
 525 -10 507 -6.33333333333 489 1 c 0
 473.666666667 9 459.333333333 20 446 34 c 0
 433.333333333 47.3333333333 423.666666667 63 417 81 c 0
 410.333333333 98.3333333333 407 117.333333333 407 138 c 2
268 0 m 1
 209 0 l 1
 428 653 l 1
 486 653 l 1
 268 0 l 1
255 556 m 2
 255 563 l 2
 255 577 252.666666667 589.666666667 248 601 c 0
 242.666666667 614.333333333 236.333333333 625 229 633 c 0
 222 642 213 649 202 654 c 0
 192 658.666666667 180.666666667 661 168 661 c 0
 155.333333333 661 144 658.666666667 134 654 c 0
 123.333333333 649.333333333 114 642.333333333 106 633 c 0
 99.3333333333 624.333333333 93.3333333333 613.666666667 88 601 c 0
 83.3333333333 589.666666667 81 577 81 563 c 2
 81 556 l 2
 81 542 83.3333333333 529.333333333 88 518 c 0
 92.6666666667 506.666666667 98.6666666667 496.333333333 106 487 c 0
 114 477.666666667 123.333333333 470.666666667 134 466 c 0
 146 460.666666667 157.333333333 458 168 458 c 0
 178.666666667 458 190 460.666666667 202 466 c 0
 213 471 222 478 229 487 c 0
 236.333333333 495.666666667 242.666666667 506 248 518 c 0
 252.666666667 529.333333333 255 542 255 556 c 2
32 556 m 2
 32 563 l 2
 32 582.333333333 35.6666666667 601.333333333 43 620 c 0
 50.3333333333 639.333333333 60 655.333333333 72 668 c 0
 84.6666666667 681.333333333 98.6666666667 692 114 700 c 0
 132 707.333333333 150 711 168 711 c 0
 185.333333333 711 203 707.333333333 221 700 c 0
 236.333333333 692.666666667 251 682 265 668 c 0
 277 655.333333333 286.666666667 639.333333333 294 620 c 0
 301.333333333 601.333333333 305 582.333333333 305 563 c 2
 305 556 l 2
 305 536.666666667 301.333333333 517.666666667 294 499 c 0
 286.666666667 479.666666667 277 464 265 452 c 0
 251 437.333333333 236.333333333 426.666666667 221 420 c 0
 204.333333333 412 186.666666667 408 168 408 c 0
 149 408 131 412 114 420 c 0
 98.6666666667 426.666666667 84.6666666667 437.333333333 72 452 c 0
 60 464 50.3333333333 479.666666667 43 499 c 0
 35.6666666667 517.666666667 32 536.666666667 32 556 c 2
EndSplineSet
EndChar

StartChar: ampersand
Encoding: 263 38 7
Width: 636
Flags: MW
LayerCount: 3
Fore
SplineSet
263 252 m 1
 190 314 l 1
 158 298.666666667 134.666666667 278 120 252 c 0
 104.666666667 224.666666667 97 197.333333333 97 170 c 0
 97 150.666666667 100.666666667 132.666666667 108 116 c 0
 114.666666667 100.666666667 124.666666667 87.3333333333 138 76 c 0
 152.666666667 64 167.333333333 55.6666666667 182 51 c 0
 198.666666667 45 216.333333333 42 235 42 c 0
 273 42 307 48.6666666667 337 62 c 0
 366.333333333 75.3333333333 391.333333333 92.6666666667 412 114 c 1
 263 252 l 1
540 -3 m 1
 451 79 l 1
 425.666666667 51 395 29.3333333333 359 14 c 0
 323 -2 281.666666667 -10 235 -10 c 0
 207.666666667 -10 182.333333333 -6 159 2 c 0
 135 10 114.333333333 21.6666666667 97 37 c 0
 79 51.6666666667 65 70.3333333333 55 93 c 0
 45 113.666666667 40 138 40 166 c 0
 40 185.333333333 42.3333333333 203.333333333 47 220 c 0
 51.6666666667 237.333333333 58.6666666667 254.666666667 68 272 c 0
 76.6666666667 289.333333333 88 304.666666667 102 318 c 0
 118 332.666666667 134.333333333 344 151 352 c 1
 135 370.666666667 122.666666667 389.666666667 114 409 c 0
 104.666666667 431 100 454.666666667 100 480 c 0
 100 499.333333333 103.666666667 519 111 539 c 0
 117.666666667 557.666666667 128.666666667 574 144 588 c 0
 157.333333333 601.333333333 175.666666667 612.666666667 199 622 c 0
 221 630 247 634 277 634 c 0
 285 634 296.333333333 632.333333333 311 629 c 0
 323.666666667 625 336.333333333 619.666666667 349 613 c 0
 361.666666667 605.666666667 373.333333333 596.666666667 384 586 c 0
 394.666666667 575.333333333 402.666666667 562.666666667 408 548 c 1
 369 514 l 1
 356.333333333 542 340.666666667 560 322 568 c 0
 302 575.333333333 284 579 268 579 c 0
 229.333333333 579 202.666666667 570 188 552 c 0
 172.666666667 533.333333333 165 509.333333333 165 480 c 0
 165 461 169 444 177 429 c 0
 185 413 195.333333333 397.666666667 208 383 c 0
 221 368 235 354 250 341 c 0
 259.333333333 333 274 319.666666667 294 301 c 2
 445 159 l 1
 457.666666667 181.666666667 467.666666667 207 475 235 c 0
 481.666666667 261 485 288.333333333 485 317 c 2
 485 357 l 1
 538 357 l 1
 538 315 l 2
 538 279.666666667 533.666666667 246 525 214 c 0
 517 183.333333333 503.666666667 153 485 123 c 1
 576 38 l 1
 540 -3 l 1
EndSplineSet
EndChar

StartChar: quotesingle
Encoding: 264 39 8
Width: 193
Flags: MW
LayerCount: 3
Fore
SplineSet
107 492 m 1
 55 492 l 1
 45 684 l 1
 117 684 l 1
 107 492 l 1
EndSplineSet
EndChar

StartChar: parenleft
Encoding: 265 40 9
Width: 370
Flags: MW
LayerCount: 3
Fore
SplineSet
283 750 m 1
 308 707 l 1
 274.666666667 687 245 662.666666667 219 634 c 0
 190.333333333 602 167 568.666666667 149 534 c 0
 129.666666667 498 114.333333333 459 103 417 c 0
 91.6666666667 375 86 334 86 294 c 0
 86 254.666666667 91.6666666667 214 103 172 c 0
 114.333333333 130 129.666666667 91 149 55 c 0
 167 20.3333333333 190.333333333 -13 219 -45 c 0
 245 -73.6666666667 274.666666667 -98 308 -118 c 1
 283 -161 l 1
 239.666666667 -137.666666667 201.666666667 -109 169 -75 c 0
 136 -41 109 -4 88 36 c 0
 66.6666666667 76 51 117.666666667 41 161 c 0
 30.3333333333 203.666666667 25 248 25 294 c 0
 25 340 30.3333333333 384.666666667 41 428 c 0
 51 470.666666667 66.6666666667 512.666666667 88 554 c 0
 109.333333333 594 136.333333333 630.666666667 169 664 c 0
 201.666666667 698 239.666666667 726.666666667 283 750 c 1
EndSplineSet
EndChar

StartChar: parenright
Encoding: 266 41 10
Width: 370
Flags: MW
LayerCount: 3
Fore
SplineSet
32 707 m 1
 57 750 l 1
 99.6666666667 726.666666667 138 698 172 664 c 0
 204.666666667 629.333333333 231.333333333 592.666666667 252 554 c 0
 273 514 289 472 300 428 c 0
 310 382.666666667 315 338 315 294 c 0
 315 249.333333333 310 205 300 161 c 0
 288.666666667 116.333333333 272.666666667 74.6666666667 252 36 c 0
 231.333333333 -3.33333333333 204.666666667 -40.3333333333 172 -75 c 0
 138 -109 99.6666666667 -137.666666667 57 -161 c 1
 32 -118 l 1
 65.3333333333 -98 95 -73.6666666667 121 -45 c 0
 149 -13.6666666667 172.666666667 19.6666666667 192 55 c 0
 212.666666667 95 228 134 238 172 c 0
 248.666666667 212 254 252.666666667 254 294 c 0
 254 336 248.666666667 377 238 417 c 0
 228 455 212.666666667 494 192 534 c 0
 172.666666667 569.333333333 149 602.666666667 121 634 c 0
 95 662.666666667 65.3333333333 687 32 707 c 1
EndSplineSet
EndChar

StartChar: asterisk
Encoding: 267 42 11
Width: 378
Flags: MW
LayerCount: 3
Fore
SplineSet
198 577 m 1
 305 619 l 1
 322 562 l 1
 218 533 l 1
 285 452 l 1
 236 418 l 1
 175 512 l 1
 113 416 l 1
 65 452 l 1
 133 534 l 1
 27 562 l 1
 46 619 l 1
 151 578 l 1
 145 694 l 1
 205 694 l 1
 198 577 l 1
EndSplineSet
EndChar

StartChar: plus
Encoding: 268 43 12
Width: 432
Flags: MW
LayerCount: 3
Fore
SplineSet
229 319 m 1
 387 319 l 1
 387 268 l 1
 229 268 l 1
 229 107 l 1
 173 107 l 1
 173 268 l 1
 15 268 l 1
 15 319 l 1
 173 319 l 1
 173 479 l 1
 229 479 l 1
 229 319 l 1
EndSplineSet
EndChar

StartChar: comma
Encoding: 269 44 13
Width: 192
Flags: MW
LayerCount: 3
Fore
SplineSet
55 32 m 2
 55 52 l 2
 56.3333333333 62 59.6666666667 69.6666666667 65 75 c 0
 71 81.6666666667 78.6666666667 85 88 85 c 0
 97.3333333333 85 105 81.6666666667 111 75 c 0
 117 69 120 61.3333333333 120 52 c 2
 120 32 l 2
 120 4 116 -20.6666666667 108 -42 c 0
 100 -62 83.3333333333 -81.3333333333 58 -100 c 1
 24 -67 l 1
 36.6666666667 -54.3333333333 45.6666666667 -41 51 -27 c 0
 55.6666666667 -12.3333333333 57 7.33333333333 55 32 c 2
EndSplineSet
EndChar

StartChar: hyphen
Encoding: 270 45 14
Width: 436
Flags: MW
LayerCount: 3
Fore
SplineSet
351 277 m 1
 54 277 l 1
 54 334 l 1
 351 334 l 1
 351 277 l 1
EndSplineSet
EndChar

StartChar: period
Encoding: 271 46 15
Width: 206
Flags: MW
LayerCount: 3
Fore
SplineSet
89 81 m 0
 101 81 111.166666667 76.8333333333 119.5 68.5 c 0
 127.833333333 60.1666666667 132 50 132 38 c 0
 132 26.6666666667 127.833333333 16.8333333333 119.5 8.5 c 0
 111.166666667 0.166666666667 101 -4 89 -4 c 0
 77.6666666667 -4 67.8333333333 0.166666666667 59.5 8.5 c 0
 51.1666666667 16.8333333333 47 26.6666666667 47 38 c 0
 47 50 51.1666666667 60.1666666667 59.5 68.5 c 0
 67.8333333333 76.8333333333 77.6666666667 81 89 81 c 0
EndSplineSet
EndChar

StartChar: slash
Encoding: 272 47 16
Width: 342
Flags: MW
LayerCount: 3
Fore
SplineSet
79 -70 m 1
 15 -70 l 1
 234 750 l 1
 297 750 l 1
 79 -70 l 1
EndSplineSet
EndChar

StartChar: zero
Encoding: 273 48 17
Width: 654
Flags: MW
LayerCount: 3
Fore
SplineSet
313 608 m 0
 281.666666667 608 253.333333333 601 228 587 c 0
 202.666666667 574.333333333 180.666666667 555 162 529 c 0
 143.333333333 504.333333333 129 474.666666667 119 440 c 0
 109 406 104 368 104 326 c 0
 104 285 109 247 119 212 c 0
 129.666666667 176.666666667 144 147 162 123 c 0
 179.333333333 98.3333333333 201.333333333 79 228 65 c 0
 253.333333333 51.6666666667 281.666666667 45 313 45 c 0
 343 45 371.333333333 51.6666666667 398 65 c 0
 423.333333333 79 445.333333333 98.3333333333 464 123 c 0
 482 148.333333333 496 178 506 212 c 0
 516 247 521 285 521 326 c 0
 521 367 516 405 506 440 c 0
 496 475 482 505 464 530 c 0
 445.333333333 554.666666667 423.333333333 574 398 588 c 0
 371.333333333 601.333333333 343 608 313 608 c 0
312 663 m 0
 331.333333333 663 347.833333333 661.833333333 361.5 659.5 c 0
 375.166666667 657.166666667 385.5 654.666666667 392.5 652 c 0
 399.5 649.333333333 410 644.333333333 424 637 c 0
 458 619.666666667 486.333333333 596 509 566 c 0
 533 534 551.333333333 498.666666667 564 460 c 0
 576.666666667 420 583 375.333333333 583 326 c 0
 583 277.333333333 576.666666667 233 564 193 c 0
 551.333333333 153 533 117.333333333 509 86 c 0
 487 57.3333333333 458.666666667 34 424 16 c 0
 391.333333333 -1.33333333333 354 -10 312 -10 c 0
 270.666666667 -10 233.333333333 -1.33333333333 200 16 c 0
 166 33.3333333333 137.666666667 57 115 87 c 0
 92.3333333333 117 74.3333333333 152.666666667 61 194 c 0
 47.6666666667 236 41 280 41 326 c 0
 41 373.333333333 47.6666666667 418 61 460 c 0
 73.6666666667 500 91.6666666667 535.666666667 115 567 c 0
 137.666666667 597 166 620.666666667 200 638 c 0
 232.666666667 654.666666667 270 663 312 663 c 0
EndSplineSet
Substitution2: "Bellota-Regular-'sups' Superscript lookup 6 subtable" zerosuperior
Substitution2: "Bellota-Regular-'subs' Subscript lookup 5 subtable" zeroinferior
AlternateSubs2: "Bellota-Regular-'aalt' Access All Alternates lookup 1 subtable" zeroinferior zerosuperior
EndChar

StartChar: one
Encoding: 274 49 18
Width: 363
Flags: MW
LayerCount: 3
Fore
SplineSet
278 0 m 1
 217 0 l 1
 217 573 l 1
 192.333333333 552.333333333 168.333333333 536.666666667 145 526 c 0
 120.333333333 514.666666667 93.3333333333 509 64 509 c 1
 51 561 l 1
 68.3333333333 561 85.6666666667 564.333333333 103 571 c 0
 121 577 138.666666667 585 156 595 c 0
 173.333333333 604.333333333 192 616 212 630 c 2
 270 669 l 1
 278 669 l 1
 278 0 l 1
EndSplineSet
Substitution2: "Bellota-Regular-'sups' Superscript lookup 6 subtable" onesuperior
Substitution2: "Bellota-Regular-'subs' Subscript lookup 5 subtable" oneinferior
AlternateSubs2: "Bellota-Regular-'aalt' Access All Alternates lookup 1 subtable" oneinferior onesuperior
EndChar

StartChar: two
Encoding: 275 50 19
Width: 538
Flags: MW
LayerCount: 3
Fore
SplineSet
45 517 m 1
 69 565 l 2
 73.6666666667 575.666666667 81.6666666667 587.666666667 93 601 c 0
 102.333333333 612.333333333 115 623 131 633 c 0
 146.333333333 643 164 650.666666667 184 656 c 0
 204.666666667 662 228.333333333 665 255 665 c 0
 291.666666667 665 323 659.666666667 349 649 c 0
 372.333333333 639.666666667 392 626 408 608 c 0
 422 592 432 572.333333333 438 549 c 0
 444 527 447 506.333333333 447 487 c 0
 447 451 439.666666667 419.666666667 425 393 c 0
 411.666666667 369 392.666666667 344.666666667 368 320 c 0
 350 302 325 281.333333333 293 258 c 0
 246.333333333 223.333333333 220 203.333333333 214 198 c 0
 186.666666667 175.333333333 164.333333333 153.666666667 147 133 c 0
 127.666666667 109.666666667 114.666666667 84.3333333333 108 57 c 1
 480 57 l 1
 480 0 l 1
 44 0 l 1
 44 13 l 2
 44 51.6666666667 52.3333333333 86.6666666667 69 118 c 0
 83.6666666667 145.333333333 105.333333333 173.333333333 134 202 c 0
 158.666666667 226.666666667 186.333333333 250.333333333 217 273 c 0
 259 303.666666667 287.333333333 325.333333333 302 338 c 0
 328 360.666666667 349 383.666666667 365 407 c 0
 382.333333333 432.333333333 391 459.333333333 391 488 c 0
 391 526 379 557 355 581 c 0
 330.333333333 605.666666667 298 618 258 618 c 0
 230.666666667 618 205.666666667 613 183 603 c 0
 165 595 149.333333333 584 136 570 c 0
 124 558 115 545 109 531 c 2
 95 499 l 1
 92 493 l 1
 45 517 l 1
EndSplineSet
Substitution2: "Bellota-Regular-'sups' Superscript lookup 6 subtable" twosuperior
Substitution2: "Bellota-Regular-'subs' Subscript lookup 5 subtable" twoinferior
AlternateSubs2: "Bellota-Regular-'aalt' Access All Alternates lookup 1 subtable" twoinferior twosuperior
EndChar

StartChar: three
Encoding: 276 51 20
Width: 559
Flags: MW
LayerCount: 3
Fore
SplineSet
89 612 m 1
 99 618 l 2
 122.333333333 632.666666667 142.666666667 644 160 652 c 0
 191.333333333 665.333333333 225.333333333 672 262 672 c 0
 319.333333333 672 366.333333333 656.333333333 403 625 c 0
 437 595.666666667 454 559.666666667 454 517 c 0
 454 494.333333333 448.333333333 471.666666667 437 449 c 0
 428.333333333 431.666666667 418 417.666666667 406 407 c 0
 392 395 380.666666667 386.666666667 372 382 c 0
 365.333333333 378 358 374.666666667 350 372 c 1
 368.666666667 368 386 360.333333333 402 349 c 0
 419.333333333 336.333333333 434.333333333 322 447 306 c 0
 459 290.666666667 469 272 477 250 c 0
 485.666666667 226.666666667 490 201.666666667 490 175 c 0
 490 117.666666667 468.666666667 72.6666666667 426 40 c 0
 380.666666667 5.33333333333 323 -12 253 -12 c 0
 211 -12 169 -4 127 12 c 0
 99 22.6666666667 68 38 34 58 c 1
 59 107 l 1
 91 89 117.666666667 75.6666666667 139 67 c 0
 171.666666667 53.6666666667 206.333333333 47 243 47 c 0
 299.666666667 47 344.666666667 59.3333333333 378 84 c 0
 410 107.333333333 426 139.333333333 426 180 c 0
 426 202.666666667 421 225.333333333 411 248 c 0
 403 266 391.333333333 281.666666667 376 295 c 0
 360.666666667 308.333333333 343.333333333 318.333333333 324 325 c 0
 304.666666667 331.666666667 284.333333333 335.333333333 263 336 c 2
 153 336 l 1
 153 392 l 1
 262 392 l 2
 276.666666667 392 291.333333333 395 306 401 c 0
 322 407.666666667 335.666666667 416 347 426 c 0
 359 436.666666667 369 449.333333333 377 464 c 0
 385 480 389 496 389 512 c 0
 389 542.666666667 377 567 353 585 c 0
 327.666666667 604.333333333 296 614 258 614 c 0
 213.333333333 614 166.333333333 597.333333333 117 564 c 1
 89 612 l 1
EndSplineSet
Substitution2: "Bellota-Regular-'sups' Superscript lookup 6 subtable" threesuperior
Substitution2: "Bellota-Regular-'subs' Subscript lookup 5 subtable" threeinferior
AlternateSubs2: "Bellota-Regular-'aalt' Access All Alternates lookup 1 subtable" threeinferior threesuperior
EndChar

StartChar: four
Encoding: 277 52 21
Width: 537
Flags: MW
LayerCount: 3
Fore
SplineSet
91 183 m 1
 338 183 l 1
 338 405 l 1
 400 405 l 1
 400 183 l 1
 484 183 l 1
 484 126 l 1
 400 126 l 1
 400 -3 l 1
 338 -3 l 1
 338 126 l 1
 20 126 l 1
 20 176 l 1
 224 660 l 1
 291 660 l 1
 91 183 l 1
EndSplineSet
Substitution2: "Bellota-Regular-'sups' Superscript lookup 6 subtable" foursuperior
Substitution2: "Bellota-Regular-'subs' Subscript lookup 5 subtable" fourinferior
AlternateSubs2: "Bellota-Regular-'aalt' Access All Alternates lookup 1 subtable" fourinferior foursuperior
EndChar

StartChar: five
Encoding: 278 53 22
Width: 520
Flags: MW
LayerCount: 3
Fore
SplineSet
397 596 m 1
 281 592 l 1
 124 592 l 1
 124 432 l 1
 183 440 l 1
 211 440 l 2
 245.666666667 440 278.666666667 435.333333333 310 426 c 0
 340.666666667 416.666666667 366.333333333 403.333333333 387 386 c 0
 411 366 428.666666667 343 440 317 c 0
 452.666666667 288.333333333 459 258 459 226 c 0
 459 206.666666667 457.333333333 189.666666667 454 175 c 0
 452 164.333333333 447 149 439 129 c 0
 433 113.666666667 426 99.6666666667 418 87 c 0
 410 74.3333333333 400.666666667 62.6666666667 390 52 c 0
 370 32 345.666666667 17 317 7 c 0
 291 -1.66666666667 261 -6 227 -6 c 0
 206.333333333 -6 187.333333333 -4 170 0 c 0
 155.333333333 3.33333333333 139.666666667 9 123 17 c 0
 103.666666667 25.6666666667 88.6666666667 33.3333333333 78 40 c 0
 61.3333333333 50.6666666667 49.6666666667 59.3333333333 43 66 c 1
 55 119 l 1
 84.3333333333 97.6666666667 111.666666667 81 137 69 c 0
 163 56.3333333333 191 50 221 50 c 0
 252.333333333 50 277.666666667 53.6666666667 297 61 c 0
 317 68.3333333333 336.333333333 82 355 102 c 0
 369.666666667 118 381 138.333333333 389 163 c 0
 396.333333333 186.333333333 400 210.333333333 400 235 c 0
 400 264.333333333 394.333333333 289 383 309 c 0
 373.666666667 325.666666667 359 340.666666667 339 354 c 0
 323 364 301.666666667 371.666666667 275 377 c 0
 251 381.666666667 226.333333333 384 201 384 c 0
 169.666666667 384 143 382 121 378 c 0
 100.333333333 374 82.6666666667 369.333333333 68 364 c 1
 63 368 l 1
 63 646 l 1
 133.666666667 646.666666667 206 647.666666667 280 649 c 0
 283.333333333 649 301 649.5 333 650.5 c 0
 365 651.5 386.333333333 652.333333333 397 653 c 1
 397 596 l 1
EndSplineSet
Substitution2: "Bellota-Regular-'sups' Superscript lookup 6 subtable" fivesuperior
Substitution2: "Bellota-Regular-'subs' Subscript lookup 5 subtable" fiveinferior
AlternateSubs2: "Bellota-Regular-'aalt' Access All Alternates lookup 1 subtable" fiveinferior fivesuperior
EndChar

StartChar: six
Encoding: 279 54 23
Width: 571
Flags: MW
LayerCount: 3
Fore
SplineSet
278 366 m 0
 254.666666667 366 232.333333333 361.666666667 211 353 c 0
 191.666666667 345 172.666666667 332.333333333 154 315 c 0
 137.333333333 299 124 280 114 258 c 0
 104 234.666666667 99 210.333333333 99 185 c 0
 99 173.666666667 100 162.666666667 102 152 c 0
 109.333333333 127.333333333 119 107.333333333 131 92 c 0
 145.666666667 72.6666666667 159.666666667 58.3333333333 173 49 c 0
 187 39 203.666666667 31 223 25 c 0
 241 19 259.333333333 16 278 16 c 0
 302.666666667 16 325.666666667 20.6666666667 347 30 c 0
 368.333333333 38.6666666667 387 51.3333333333 403 68 c 0
 419.666666667 84.6666666667 432.333333333 103.333333333 441 124 c 0
 449.666666667 144.666666667 454 167 454 191 c 0
 454 215 449.333333333 238 440 260 c 0
 431.333333333 280.666666667 418.333333333 299.333333333 401 316 c 0
 384.333333333 332.666666667 365.666666667 345 345 353 c 0
 323.666666667 361.666666667 301.333333333 366 278 366 c 0
430 649 m 1
 430 596 l 1
 354.666666667 596 289 575 233 533 c 0
 175.666666667 490.333333333 131 423 99 331 c 1
 122.333333333 359 149.666666667 380.666666667 181 396 c 0
 212.333333333 411.333333333 244.333333333 419 277 419 c 0
 306.333333333 419 335.333333333 413.333333333 364 402 c 0
 392 390.666666667 417 374 439 352 c 0
 461.666666667 329.333333333 478.333333333 305.333333333 489 280 c 0
 501 251.333333333 507 221 507 189 c 0
 507 159 501 130 489 102 c 0
 477.666666667 75.3333333333 461.333333333 51.3333333333 440 30 c 0
 418.666666667 8.66666666667 394.666666667 -7.66666666667 368 -19 c 0
 340 -31 310 -37 278 -37 c 0
 246 -37 215.666666667 -31 187 -19 c 0
 157.666666667 -6.33333333333 132 11.3333333333 110 34 c 0
 86.6666666667 57.3333333333 68.6666666667 86 56 120 c 0
 42 156.666666667 35 197.333333333 35 242 c 0
 35 290.666666667 45 340.666666667 65 392 c 0
 85 443.333333333 112.333333333 487.333333333 147 524 c 0
 183 562.666666667 224.333333333 593 271 615 c 0
 320.333333333 637.666666667 373.333333333 649 430 649 c 1
EndSplineSet
Substitution2: "Bellota-Regular-'sups' Superscript lookup 6 subtable" sixsuperior
Substitution2: "Bellota-Regular-'subs' Subscript lookup 5 subtable" sixinferior
AlternateSubs2: "Bellota-Regular-'aalt' Access All Alternates lookup 1 subtable" sixinferior sixsuperior
EndChar

StartChar: seven
Encoding: 280 55 24
Width: 487
Flags: MW
LayerCount: 3
Fore
SplineSet
437 645 m 1
 183 0 l 1
 119 0 l 1
 358 596 l 1
 338.666666667 595.333333333 302 594 248 592 c 2
 20 592 l 1
 20 648 l 1
 123 650 l 1
 222 650 l 1
 437 653 l 1
 437 645 l 1
EndSplineSet
Substitution2: "Bellota-Regular-'sups' Superscript lookup 6 subtable" sevensuperior
Substitution2: "Bellota-Regular-'subs' Subscript lookup 5 subtable" seveninferior
AlternateSubs2: "Bellota-Regular-'aalt' Access All Alternates lookup 1 subtable" seveninferior sevensuperior
EndChar

StartChar: eight
Encoding: 281 56 25
Width: 556
Flags: MW
LayerCount: 3
Fore
SplineSet
207 343 m 1
 171 312 l 2
 162.333333333 305.333333333 151 293.333333333 137 276 c 0
 126.333333333 262.666666667 118 248.666666667 112 234 c 0
 105.333333333 219.333333333 102 202 102 182 c 0
 102 140.666666667 115.333333333 106.666666667 142 80 c 0
 170 52 210.333333333 38 263 38 c 0
 318.333333333 38 359.333333333 52 386 80 c 0
 412 107.333333333 425 142 425 184 c 0
 425 208.666666667 419.333333333 230 408 248 c 0
 398 263.333333333 383.333333333 278 364 292 c 0
 350.666666667 301.333333333 330.333333333 311 303 321 c 0
 281 329 258.333333333 336 235 342 c 2
 213 348 l 1
 207 343 l 1
290 386 m 1
 303 382 l 1
 328.333333333 399.333333333 348 416.333333333 362 433 c 0
 379.333333333 452.333333333 388 474.333333333 388 499 c 0
 388 532.333333333 376.666666667 559.333333333 354 580 c 0
 331.333333333 600.666666667 301 611 263 611 c 0
 225 611 194.666666667 600.666666667 172 580 c 0
 149.333333333 559.333333333 138 532.666666667 138 500 c 0
 138 482.666666667 142 468 150 456 c 0
 156.666666667 446 167 436 181 426 c 0
 194.333333333 417.333333333 208.666666667 411 224 407 c 2
 270 392 l 1
 279 389 l 1
 290 386 l 1
261 666 m 0
 289.666666667 666 316 661.666666667 340 653 c 0
 362.666666667 645 382.666666667 632.666666667 400 616 c 0
 416.666666667 600 429 582.666666667 437 564 c 0
 445.666666667 543.333333333 450 523 450 503 c 0
 450 485.666666667 447.333333333 470 442 456 c 0
 436.666666667 442.666666667 429.333333333 429.666666667 420 417 c 0
 414 407.666666667 404 397 390 385 c 0
 378.666666667 375 368 367 358 361 c 1
 372.666666667 355 388.333333333 346.333333333 405 335 c 0
 418.333333333 326.333333333 432 314 446 298 c 0
 458 284 468 267.333333333 476 248 c 0
 483.333333333 229.333333333 487 206.666666667 487 180 c 0
 487 152.666666667 482.333333333 127.333333333 473 104 c 0
 463.666666667 81.3333333333 449.666666667 60.6666666667 431 42 c 0
 411 22.6666666667 388 8.33333333333 362 -1 c 0
 334 -11 301.333333333 -16 264 -16 c 0
 226.666666667 -16 194 -11 166 -1 c 0
 139.333333333 9 116 23.3333333333 96 42 c 0
 77.3333333333 59.3333333333 63.3333333333 80.3333333333 54 105 c 0
 44.6666666667 129 40 154.666666667 40 182 c 0
 40 205.333333333 43.6666666667 227 51 247 c 0
 57 263.666666667 66.3333333333 280.666666667 79 298 c 0
 88.3333333333 311.333333333 101 325 117 339 c 0
 132.333333333 352.333333333 145.666666667 363.333333333 157 372 c 1
 133.666666667 384.666666667 114.666666667 401.333333333 100 422 c 0
 84 444 76 470 76 500 c 0
 76 523.333333333 80.3333333333 545 89 565 c 0
 97.6666666667 585.666666667 110.333333333 603.333333333 127 618 c 0
 143.666666667 633.333333333 163 645 185 653 c 0
 209 661.666666667 234.333333333 666 261 666 c 0
EndSplineSet
Substitution2: "Bellota-Regular-'sups' Superscript lookup 6 subtable" eightsuperior
Substitution2: "Bellota-Regular-'subs' Subscript lookup 5 subtable" eightinferior
AlternateSubs2: "Bellota-Regular-'aalt' Access All Alternates lookup 1 subtable" eightinferior eightsuperior
EndChar

StartChar: nine
Encoding: 282 57 26
Width: 570
Flags: MW
LayerCount: 3
Fore
SplineSet
262 596 m 0
 238.666666667 596 216 591.333333333 194 582 c 0
 173.333333333 572.666666667 154.666666667 560 138 544 c 0
 122.666666667 528.666666667 110.333333333 510.666666667 101 490 c 0
 91.6666666667 468.666666667 87 445.666666667 87 421 c 0
 87 397 91.6666666667 374 101 352 c 0
 109 332.666666667 121.666666667 314.333333333 139 297 c 0
 155.666666667 280.333333333 174 268 194 260 c 0
 216.666666667 250.666666667 239.666666667 246 263 246 c 0
 287 246 310 250.666666667 332 260 c 0
 352.666666667 268.666666667 371.333333333 281.333333333 388 298 c 0
 406 316 419.333333333 335.333333333 428 356 c 0
 437.333333333 378 442 401.666666667 442 427 c 0
 442 437 441 448 439 460 c 0
 431.666666667 484 422 504 410 520 c 0
 397.333333333 537.333333333 383.333333333 551.333333333 368 562 c 0
 350.666666667 574.666666667 333.666666667 583.333333333 317 588 c 0
 299.666666667 593.333333333 281.333333333 596 262 596 c 0
112 -37 m 1
 112 16 l 1
 148.666666667 16 184.333333333 22 219 34 c 0
 253 46 284.333333333 63.3333333333 313 86 c 0
 341 108 366.666666667 136.333333333 390 171 c 0
 412 203.666666667 430.666666667 242.333333333 446 287 c 1
 436 275.666666667 423.333333333 264 408 252 c 0
 393 240 378 230 363 222 c 0
 346.333333333 212.666666667 330 205.666666667 314 201 c 0
 297.333333333 195.666666667 279.666666667 193 261 193 c 0
 232.333333333 193 204 198.666666667 176 210 c 0
 151.333333333 220 127 236.333333333 103 259 c 0
 81.6666666667 279.666666667 65 303.666666667 53 331 c 0
 40.3333333333 359.666666667 34 389.666666667 34 421 c 0
 34 452.333333333 40 482 52 510 c 0
 63.3333333333 536.666666667 79.6666666667 560.666666667 101 582 c 0
 122.333333333 603.333333333 146.333333333 619.666666667 173 631 c 0
 201 643 230.666666667 649 262 649 c 0
 294 649 324.666666667 643 354 631 c 0
 382 619.666666667 407.666666667 601.666666667 431 577 c 0
 454.333333333 552.333333333 472.333333333 524.333333333 485 493 c 0
 498.333333333 459 505 420.333333333 505 377 c 0
 505 319.666666667 495.666666667 267.333333333 477 220 c 0
 458.333333333 172.666666667 431 129 395 89 c 0
 359 49 318 18.3333333333 272 -3 c 0
 223.333333333 -25.6666666667 171 -37 115 -37 c 2
 112 -37 l 1
EndSplineSet
Substitution2: "Bellota-Regular-'sups' Superscript lookup 6 subtable" ninesuperior
Substitution2: "Bellota-Regular-'subs' Subscript lookup 5 subtable" nineinferior
AlternateSubs2: "Bellota-Regular-'aalt' Access All Alternates lookup 1 subtable" nineinferior ninesuperior
EndChar

StartChar: colon
Encoding: 283 58 27
Width: 215
Flags: MW
LayerCount: 3
Fore
SplineSet
89 81 m 0
 101 81 111.166666667 76.8333333333 119.5 68.5 c 0
 127.833333333 60.1666666667 132 50 132 38 c 0
 132 26.6666666667 127.833333333 16.8333333333 119.5 8.5 c 0
 111.166666667 0.166666666667 101 -4 89 -4 c 0
 77.6666666667 -4 67.8333333333 0.166666666667 59.5 8.5 c 0
 51.1666666667 16.8333333333 47 26.6666666667 47 38 c 0
 47 50 51.1666666667 60.1666666667 59.5 68.5 c 0
 67.8333333333 76.8333333333 77.6666666667 81 89 81 c 0
89 475 m 0
 101 475 111.166666667 470.833333333 119.5 462.5 c 0
 127.833333333 454.166666667 132 444 132 432 c 0
 132 420.666666667 127.833333333 410.833333333 119.5 402.5 c 0
 111.166666667 394.166666667 101 390 89 390 c 0
 77.6666666667 390 67.8333333333 394.166666667 59.5 402.5 c 0
 51.1666666667 410.833333333 47 420.666666667 47 432 c 0
 47 444 51.1666666667 454.166666667 59.5 462.5 c 0
 67.8333333333 470.833333333 77.6666666667 475 89 475 c 0
EndSplineSet
EndChar

StartChar: semicolon
Encoding: 284 59 28
Width: 199
Flags: MW
LayerCount: 3
Fore
SplineSet
55 32 m 2
 55 52 l 2
 56.3333333333 62 59.6666666667 69.6666666667 65 75 c 0
 71 81.6666666667 78.6666666667 85 88 85 c 0
 97.3333333333 85 105 81.6666666667 111 75 c 0
 117 69 120 61.3333333333 120 52 c 2
 120 32 l 2
 120 4 116 -20.6666666667 108 -42 c 0
 100 -62 83.3333333333 -81.3333333333 58 -100 c 1
 24 -67 l 1
 36.6666666667 -54.3333333333 45.6666666667 -41 51 -27 c 0
 55.6666666667 -12.3333333333 57 7.33333333333 55 32 c 2
89 475 m 0
 101 475 111.166666667 470.833333333 119.5 462.5 c 0
 127.833333333 454.166666667 132 444 132 432 c 0
 132 420.666666667 127.833333333 410.833333333 119.5 402.5 c 0
 111.166666667 394.166666667 101 390 89 390 c 0
 77.6666666667 390 67.8333333333 394.166666667 59.5 402.5 c 0
 51.1666666667 410.833333333 47 420.666666667 47 432 c 0
 47 444 51.1666666667 454.166666667 59.5 462.5 c 0
 67.8333333333 470.833333333 77.6666666667 475 89 475 c 0
EndSplineSet
EndChar

StartChar: less
Encoding: 285 60 29
Width: 389
Flags: MW
LayerCount: 3
Fore
SplineSet
310 403 m 1
 114 267 l 1
 312 129 l 1
 278 80 l 1
 12 265 l 1
 278 450 l 1
 310 403 l 1
EndSplineSet
EndChar

StartChar: equal
Encoding: 286 61 30
Width: 459
Flags: MW
LayerCount: 3
Fore
SplineSet
406 187 m 1
 54 187 l 1
 54 239 l 1
 406 239 l 1
 406 187 l 1
406 347 m 1
 54 347 l 1
 54 399 l 1
 406 399 l 1
 406 347 l 1
EndSplineSet
EndChar

StartChar: greater
Encoding: 287 62 31
Width: 389
Flags: MW
LayerCount: 3
Fore
SplineSet
347 265 m 1
 81 80 l 1
 49 127 l 1
 245 263 l 1
 47 401 l 1
 81 450 l 1
 347 265 l 1
EndSplineSet
EndChar

StartChar: question
Encoding: 288 63 32
Width: 463
Flags: MW
LayerCount: 3
Fore
SplineSet
168 100 m 0
 180.666666667 100 191.666666667 95.3333333333 201 86 c 0
 210.333333333 76.6666666667 215 65.3333333333 215 52 c 0
 215 38.6666666667 210.5 27.5 201.5 18.5 c 0
 192.5 9.5 181.333333333 5 168 5 c 0
 154.666666667 5 143.333333333 9.66666666667 134 19 c 0
 124.666666667 28.3333333333 120 39.3333333333 120 52 c 0
 120 65.3333333333 124.666666667 76.6666666667 134 86 c 0
 143.333333333 95.3333333333 154.666666667 100 168 100 c 0
118 494 m 1
 110 494 l 2
 86.6666666667 494 67 502 51 518 c 0
 35.6666666667 533.333333333 28 552.666666667 28 576 c 0
 28 596 33.6666666667 614 45 630 c 0
 55.6666666667 645.333333333 70.3333333333 658.666666667 89 670 c 0
 105.666666667 680.666666667 125 689 147 695 c 0
 167 700.333333333 188 703 210 703 c 0
 236.666666667 703 262.333333333 698 287 688 c 0
 311.666666667 678 333.333333333 664.333333333 352 647 c 0
 370.666666667 629 385.333333333 608.333333333 396 585 c 0
 406.666666667 561 412 533.333333333 412 502 c 0
 412 470.666666667 406.333333333 442.666666667 395 418 c 0
 385 396.666666667 370 376.666666667 350 358 c 0
 335.333333333 344 316.333333333 330.333333333 293 317 c 0
 281 309.666666667 271.166666667 303.666666667 263.5 299 c 0
 255.833333333 294.333333333 250.666666667 291.333333333 248 290 c 0
 245.333333333 288.666666667 243 287.333333333 241 286 c 0
 238 284 238 284 235 282 c 0
 217 270.666666667 202.333333333 258 191 244 c 0
 179 229.333333333 173 212.333333333 173 193 c 0
 173 181 174.666666667 166.666666667 178 150 c 1
 126 139 l 1
 122 157 120 174.666666667 120 192 c 0
 120 218.666666667 126 242 138 262 c 0
 148 278.666666667 162.666666667 294.666666667 182 310 c 0
 196.666666667 321.333333333 216 333.333333333 240 346 c 0
 261.333333333 358 280.333333333 370.333333333 297 383 c 0
 317.666666667 399.666666667 332.666666667 416.333333333 342 433 c 0
 353.333333333 453.666666667 359 477 359 503 c 0
 359 525.666666667 355 546 347 564 c 0
 339.666666667 580.666666667 328.333333333 596 313 610 c 0
 299.666666667 622.666666667 284.333333333 632.333333333 267 639 c 0
 247.666666667 646.333333333 229 650 211 650 c 0
 194.333333333 650 179.333333333 648.333333333 166 645 c 0
 151.333333333 641.666666667 137.666666667 636.666666667 125 630 c 0
 114.333333333 624.666666667 103.666666667 616.666666667 93 606 c 0
 85 598 81 588 81 576 c 0
 81 567.333333333 83.6666666667 560.333333333 89 555 c 0
 94.3333333333 549.666666667 101.666666667 547 111 547 c 0
 114.333333333 547 116.333333333 547.333333333 117 548 c 2
 131 496 l 1
 118 494 l 1
EndSplineSet
EndChar

StartChar: at
Encoding: 289 64 33
Width: 703
Flags: MW
LayerCount: 3
Fore
SplineSet
383 351 m 1
 354 354 l 2
 339.333333333 355.333333333 330 356 326 356 c 0
 300.666666667 356 279 347 261 329 c 0
 243.666666667 310.333333333 235 287.333333333 235 260 c 0
 235 244.666666667 236.333333333 231.333333333 239 220 c 0
 241.666666667 207.333333333 246 195.666666667 252 185 c 0
 257.333333333 176.333333333 265 168 275 160 c 0
 283.666666667 154 295 151 309 151 c 0
 321 151 331.666666667 153.666666667 341 159 c 0
 350.333333333 165 358 171.666666667 364 179 c 0
 369.333333333 185 373.666666667 192 377 200 c 0
 379 204.666666667 381 210 383 216 c 2
 383 351 l 1
548 -20 m 1
 510 -32 l 2
 498 -36 481 -40.3333333333 459 -45 c 0
 433.666666667 -50.3333333333 414 -54 400 -56 c 0
 382 -58.6666666667 361.666666667 -60 339 -60 c 0
 294.333333333 -60 253.666666667 -53 217 -39 c 0
 181 -25.6666666667 149.666666667 -6 123 20 c 0
 97.6666666667 45.3333333333 77.3333333333 76.3333333333 62 113 c 0
 48 148.333333333 41 188 41 232 c 0
 41 276.666666667 47.6666666667 319 61 359 c 0
 75 397.666666667 95 431 121 459 c 0
 145.666666667 486.333333333 177 508.333333333 215 525 c 0
 253 540.333333333 294.333333333 548 339 548 c 0
 384.333333333 548 424.666666667 540.666666667 460 526 c 0
 496.666666667 512 528 492 554 466 c 0
 580 441.333333333 600 410.666666667 614 374 c 0
 628 338 635 298.333333333 635 255 c 0
 635 226.333333333 631 201.666666667 623 181 c 0
 615 159.666666667 604.666666667 142.333333333 592 129 c 0
 578 114.333333333 563.333333333 103.666666667 548 97 c 0
 532 90.3333333333 515.333333333 87 498 87 c 0
 448 87 416 107 402 147 c 1
 377.333333333 116.333333333 346.333333333 101 309 101 c 0
 291 101 274.333333333 105 259 113 c 0
 244 121 231 132 220 146 c 0
 210.666666667 159.333333333 202 176.333333333 194 197 c 0
 188 216 185 237 185 260 c 0
 185 278.666666667 188.666666667 297 196 315 c 0
 202.666666667 333 212.333333333 348.666666667 225 362 c 0
 239 376 253.666666667 386.666666667 269 394 c 0
 286 402 304 406 323 406 c 0
 333.666666667 406 345 405 357 403 c 0
 373 401.666666667 383.666666667 401 389 401 c 2
 433 401 l 1
 433 194 l 1
 437 170 445.333333333 153.666666667 458 145 c 0
 470.666666667 136.333333333 484 132 498 132 c 0
 507.333333333 132 516.666666667 134.333333333 526 139 c 0
 536.666666667 144.333333333 545.666666667 151.666666667 553 161 c 0
 562 171 569 184 574 200 c 0
 579.333333333 217.333333333 582 236.333333333 582 257 c 0
 582 294.333333333 576 328 564 358 c 0
 552.666666667 387.333333333 536 413 514 435 c 0
 491.333333333 457 465.666666667 473.333333333 437 484 c 0
 406.333333333 495.333333333 373.666666667 501 339 501 c 0
 302.333333333 501 268.666666667 494.333333333 238 481 c 0
 208.666666667 468.333333333 183 450 161 426 c 0
 139 402 122.666666667 374 112 342 c 0
 100.666666667 308 95 272.333333333 95 235 c 0
 95 198 101 164 113 133 c 0
 125 102.333333333 141.666666667 76.3333333333 163 55 c 0
 184.333333333 33.6666666667 210 17 240 5 c 0
 270.666666667 -6.33333333333 303.666666667 -12 339 -12 c 0
 360.333333333 -12 381 -11 401 -9 c 0
 423 -5.66666666667 441.666666667 -2.66666666667 457 0 c 0
 474 4 489 8 502 12 c 0
 519.333333333 18.6666666667 530 23 534 25 c 1
 548 -20 l 1
EndSplineSet
EndChar

StartChar: bracketleft
Encoding: 290 91 34
Width: 335
Flags: MW
LayerCount: 3
Fore
SplineSet
292 693 m 1
 115 693 l 1
 115 -117 l 1
 292 -117 l 1
 292 -174 l 1
 54 -174 l 1
 54 750 l 1
 292 750 l 1
 292 693 l 1
EndSplineSet
EndChar

StartChar: backslash
Encoding: 291 92 35
Width: 342
Flags: MW
LayerCount: 3
Fore
SplineSet
297 -70 m 1
 233 -70 l 1
 15 750 l 1
 78 750 l 1
 297 -70 l 1
EndSplineSet
EndChar

StartChar: bracketright
Encoding: 292 93 36
Width: 336
Flags: MW
LayerCount: 3
Fore
SplineSet
251 -174 m 1
 13 -174 l 1
 13 -117 l 1
 190 -117 l 1
 190 693 l 1
 13 693 l 1
 13 750 l 1
 251 750 l 1
 251 -174 l 1
EndSplineSet
EndChar

StartChar: asciicircum
Encoding: 293 94 37
Width: 454
Flags: MW
LayerCount: 3
Fore
SplineSet
397 363 m 1
 347 328 l 1
 210 524 l 1
 75 330 l 1
 27 363 l 1
 202 615 l 1
 222 615 l 1
 397 363 l 1
EndSplineSet
EndChar

StartChar: underscore
Encoding: 294 95 38
Width: 579
Flags: MW
LayerCount: 3
Fore
SplineSet
494 -133 m 1
 54 -133 l 1
 54 -78 l 1
 494 -78 l 1
 494 -133 l 1
EndSplineSet
EndChar

StartChar: grave
Encoding: 295 96 39
Width: 260
GlyphClass: 4
Flags: MW
AnchorPoint: "Anchor-3" 178 500 mark 0
AnchorPoint: "Anchor-0" 178 500 mark 0
LayerCount: 3
Fore
SplineSet
211 601 m 1
 189 567 l 1
 17 677 l 1
 53 726 l 1
 211 601 l 1
EndSplineSet
EndChar

StartChar: braceleft
Encoding: 296 123 40
Width: 323
Flags: MW
LayerCount: 3
Fore
SplineSet
256 750 m 1
 270 704 l 1
 248.666666667 698.666666667 231 693.666666667 217 689 c 0
 201.666666667 684.333333333 188.333333333 678.333333333 177 671 c 0
 166.333333333 664.333333333 158.333333333 655.666666667 153 645 c 0
 147.666666667 634.333333333 145 621.666666667 145 607 c 0
 145 594.333333333 146 578.666666667 148 560 c 2
 155 499 l 2
 157 485.666666667 159.333333333 464 162 434 c 0
 164 413 165 394 165 377 c 0
 165 361 162.666666667 348.333333333 158 339 c 0
 153.333333333 329 147.333333333 320.333333333 140 313 c 0
 132 305 124.666666667 299.666666667 118 297 c 2
 99 288 l 2
 101 287.333333333 107 285 117 281 c 0
 125 276.333333333 132.333333333 270.666666667 139 264 c 0
 146.333333333 256.666666667 152.333333333 248 157 238 c 0
 162.333333333 226 165 213.333333333 165 200 c 0
 165 183.333333333 164 164 162 142 c 0
 159.333333333 112 157 90.6666666667 155 78 c 2
 148 17 l 2
 146 -2.33333333333 145 -18 145 -30 c 0
 145 -44.6666666667 147.666666667 -57.3333333333 153 -68 c 0
 158.333333333 -78.6666666667 166.333333333 -87.3333333333 177 -94 c 0
 188.333333333 -101.333333333 201.666666667 -107.333333333 217 -112 c 0
 231 -116.666666667 248.666666667 -121.666666667 270 -127 c 1
 256 -173 l 1
 229.333333333 -165 209.333333333 -159.333333333 196 -156 c 0
 177.333333333 -151.333333333 159 -144 141 -134 c 0
 125 -125.333333333 111.333333333 -112.333333333 100 -95 c 0
 89.3333333333 -78.3333333333 84 -56 84 -28 c 0
 84 -8.66666666667 85 12 87 34 c 0
 89.6666666667 61.3333333333 92 82.6666666667 94 98 c 2
 101 157 l 2
 103 175 104 189.333333333 104 200 c 0
 104 210.666666667 101.333333333 219.666666667 96 227 c 0
 91.3333333333 233.666666667 84.6666666667 239.666666667 76 245 c 0
 68 249.666666667 59 253 49 255 c 0
 39 258.333333333 29.6666666667 260.333333333 21 261 c 1
 21 316 l 1
 33.6666666667 317.333333333 42.6666666667 318.666666667 48 320 c 0
 60 324 69 327.666666667 75 331 c 0
 81.6666666667 335 88.6666666667 341.333333333 96 350 c 0
 101.333333333 357.333333333 104 366.333333333 104 377 c 0
 104 387.666666667 103 402 101 420 c 2
 94 478 l 2
 92 492 89.6666666667 513.666666667 87 543 c 0
 85 565 84 585.666666667 84 605 c 0
 84 633 89.3333333333 655.333333333 100 672 c 0
 111.333333333 689.333333333 125 702.333333333 141 711 c 0
 159 721 177.333333333 728.333333333 196 733 c 0
 209.333333333 736.333333333 229.333333333 742 256 750 c 1
EndSplineSet
EndChar

StartChar: bar
Encoding: 297 124 41
Width: 204
Flags: MW
LayerCount: 3
Fore
SplineSet
115 -70 m 1
 54 -70 l 1
 54 750 l 1
 115 750 l 1
 115 -70 l 1
EndSplineSet
EndChar

StartChar: braceright
Encoding: 298 125 42
Width: 322
Flags: MW
LayerCount: 3
Fore
SplineSet
23 704 m 1
 37 750 l 1
 63.6666666667 742 83.6666666667 736.333333333 97 733 c 0
 115.666666667 728.333333333 134 721 152 711 c 0
 168 702.333333333 181.666666667 689.333333333 193 672 c 0
 203.666666667 655.333333333 209 633 209 605 c 0
 209 585.666666667 208 565 206 543 c 0
 203.333333333 513.666666667 201 492 199 478 c 2
 192 420 l 2
 190 402 189 387.666666667 189 377 c 0
 189 365.666666667 191.666666667 356.333333333 197 349 c 0
 202 342 209 336 218 331 c 0
 224 327 233 323.333333333 245 320 c 0
 251 318.666666667 260 317.333333333 272 316 c 1
 272 261 l 1
 262 259.666666667 252.666666667 257.666666667 244 255 c 0
 232 251.666666667 223 248 217 244 c 0
 208.333333333 238.666666667 201.666666667 232.666666667 197 226 c 0
 191.666666667 218.666666667 189 210 189 200 c 0
 189 189.333333333 190 175 192 157 c 2
 199 98 l 2
 201 82.6666666667 203.333333333 61.3333333333 206 34 c 0
 208 12 209 -8.66666666667 209 -28 c 0
 209 -56 203.666666667 -78.3333333333 193 -95 c 0
 181.666666667 -112.333333333 168 -125.333333333 152 -134 c 0
 134 -144 115.666666667 -151.333333333 97 -156 c 0
 83.6666666667 -159.333333333 63.6666666667 -165 37 -173 c 1
 23 -127 l 1
 44.3333333333 -121.666666667 62 -116.666666667 76 -112 c 0
 91.3333333333 -107.333333333 104.666666667 -101.333333333 116 -94 c 0
 126.666666667 -87.3333333333 134.666666667 -78.6666666667 140 -68 c 0
 145.333333333 -57.3333333333 148 -44.6666666667 148 -30 c 0
 148 -18 147 -2.33333333333 145 17 c 2
 138 78 l 2
 136 90.6666666667 133.666666667 112 131 142 c 0
 129 164 128 183.333333333 128 200 c 0
 128 214 130.666666667 226.333333333 136 237 c 0
 140.666666667 247 146.666666667 255.666666667 154 263 c 0
 162 271 169 276.666666667 175 280 c 0
 182.333333333 284 188.666666667 286.666666667 194 288 c 1
 192 288.666666667 186 291 176 295 c 0
 170 298.333333333 163 304 155 312 c 0
 146.333333333 320.666666667 140 329.333333333 136 338 c 0
 130.666666667 350 128 363 128 377 c 0
 128 394 129 413 131 434 c 0
 133.666666667 464 136 485.666666667 138 499 c 2
 145 560 l 2
 147 578.666666667 148 594.333333333 148 607 c 0
 148 621.666666667 145.333333333 634.333333333 140 645 c 0
 134.666666667 655.666666667 126.666666667 664.333333333 116 671 c 0
 105 678 92 684 77 689 c 0
 61 694 43 699 23 704 c 1
EndSplineSet
EndChar

StartChar: asciitilde
Encoding: 299 126 43
Width: 529
Flags: MW
LayerCount: 3
Fore
SplineSet
155 337 m 2
 167 337 l 2
 195 337 224.666666667 330.666666667 256 318 c 0
 280.666666667 308 303.333333333 303 324 303 c 0
 351.333333333 303 378.333333333 313.666666667 405 335 c 1
 439 294 l 1
 407 268 373.333333333 253.333333333 338 250 c 2
 324 250 l 2
 296 250 267 256.333333333 237 269 c 0
 211 279 188.333333333 284 169 284 c 0
 141.666666667 284 114.666666667 273.333333333 88 252 c 1
 54 293 l 1
 86 319 119.666666667 333.666666667 155 337 c 2
EndSplineSet
EndChar

StartChar: cent
Encoding: 300 162 44
Width: 506
GlyphClass: 2
Flags: MW
LayerCount: 3
Back
SplineSet
435.546875 581.0546875 m 1,0,1
 415.0390625 584.9609375 415.0390625 584.9609375 397.94921875 587.890625 c 128,-1,2
 380.859375 590.8203125 380.859375 590.8203125 369.140625 590.8203125 c 0,3,4
 278.3203125 590.8203125 278.3203125 590.8203125 223.14453125 518.5546875 c 128,-1,5
 167.96875 446.2890625 167.96875 446.2890625 167.96875 325.1953125 c 0,6,7
 167.96875 258.7890625 167.96875 258.7890625 187.98828125 200.1953125 c 128,-1,8
 208.0078125 141.6015625 208.0078125 141.6015625 246.09375 98.6328125 c 1,9,-1
 435.546875 581.0546875 l 1,0,1
97.65625 325.1953125 m 0,10,11
 97.65625 471.6796875 97.65625 471.6796875 171.875 561.03515625 c 128,-1,12
 246.09375 650.390625 246.09375 650.390625 369.140625 650.390625 c 0,13,14
 393.5546875 650.390625 393.5546875 650.390625 415.0390625 647.4609375 c 128,-1,15
 436.5234375 644.53125 436.5234375 644.53125 455.078125 640.625 c 1,16,-1
 513.671875 785.15625 l 1,17,-1
 579.1015625 785.15625 l 1,18,-1
 512.6953125 615.234375 l 1,19,20
 563.4765625 581.0546875 563.4765625 581.0546875 594.23828125 533.69140625 c 128,-1,21
 625 486.328125 625 486.328125 628.90625 435.546875 c 1,22,-1
 556.640625 435.546875 l 1,23,24
 553.7109375 465.8203125 553.7109375 465.8203125 537.109375 497.0703125 c 128,-1,25
 520.5078125 528.3203125 520.5078125 528.3203125 490.234375 556.640625 c 1,26,-1
 301.7578125 69.3359375 l 1,27,28
 321.2890625 63.4765625 321.2890625 63.4765625 338.37890625 60.546875 c 128,-1,29
 355.46875 57.6171875 355.46875 57.6171875 369.140625 57.6171875 c 0,30,31
 451.171875 57.6171875 451.171875 57.6171875 504.39453125 102.05078125 c 128,-1,32
 557.6171875 146.484375 557.6171875 146.484375 564.453125 222.65625 c 1,33,-1
 634.765625 222.65625 l 1,34,35
 625 120.1171875 625 120.1171875 553.22265625 58.59375 c 128,-1,36
 481.4453125 -2.9296875 481.4453125 -2.9296875 369.140625 -2.9296875 c 0,37,38
 347.65625 -2.9296875 347.65625 -2.9296875 324.21875 0.48828125 c 128,-1,39
 300.78125 3.90625 300.78125 3.90625 278.3203125 10.7421875 c 1,40,-1
 226.5625 -122.0703125 l 1,41,-1
 161.1328125 -122.0703125 l 1,42,-1
 223.6328125 36.1328125 l 1,43,44
 164.0625 79.1015625 164.0625 79.1015625 130.859375 155.76171875 c 128,-1,45
 97.65625 232.421875 97.65625 232.421875 97.65625 325.1953125 c 0,10,11
EndSplineSet
Fore
SplineSet
210 120 m 1
 210 529 l 1
 188 523.666666667 169.333333333 513.666666667 154 499 c 0
 139.333333333 485 126 467.333333333 114 446 c 0
 102.666666667 424.666666667 94.6666666667 402.333333333 90 379 c 0
 84.6666666667 352.333333333 82 328 82 306 c 0
 82 252 94 209.666666667 118 179 c 0
 140 149 170.666666667 129.333333333 210 120 c 1
271 683 m 1
 271 580 l 1
 293 576.666666667 313 571.333333333 331 564 c 0
 350.333333333 556 366.666666667 545.666666667 380 533 c 0
 393.333333333 519.666666667 404 504.666666667 412 488 c 0
 420 470.666666667 424 451.333333333 424 430 c 1
 409 430 l 1
 381 431 l 2
 371.666666667 431 367 430.666666667 367 430 c 1
 367 458 358.333333333 480.666666667 341 498 c 0
 323 515.333333333 299.666666667 526.333333333 271 531 c 1
 271 116 l 1
 294.333333333 118 318 123.666666667 342 133 c 0
 368.666666667 143.666666667 391.333333333 154 410 164 c 1
 436 122 l 1
 415.333333333 107.333333333 390.666666667 94.3333333333 362 83 c 0
 334.666666667 72.3333333333 304.333333333 66 271 64 c 1
 271 -1 l 1
 210 -1 l 1
 210 66 l 1
 148 75 102 101 72 144 c 0
 41.3333333333 186.666666667 26 245.666666667 26 321 c 0
 26 353.666666667 30.3333333333 384 39 412 c 0
 48.3333333333 442 60.6666666667 468 76 490 c 0
 92.6666666667 514 112 533.666666667 134 549 c 0
 157.333333333 564.333333333 182.666666667 574.333333333 210 579 c 1
 210 683 l 1
 271 683 l 1
EndSplineSet
EndChar

StartChar: multiply
Encoding: 301 215 45
Width: 515
Flags: MW
LayerCount: 3
Fore
SplineSet
427 410 m 1
 285 268 l 1
 434 119 l 1
 391 76 l 1
 242 225 l 1
 93 75 l 1
 52 116 l 1
 201 265 l 1
 59 408 l 1
 102 451 l 1
 244 308 l 1
 386 451 l 1
 427 410 l 1
EndSplineSet
EndChar

StartChar: divide
Encoding: 302 247 46
Width: 490
Flags: MW
LayerCount: 3
Fore
SplineSet
229 190 m 0
 243 190 254.333333333 185.666666667 263 177 c 0
 271.666666667 168.333333333 276 157 276 143 c 0
 276 130.333333333 271.666666667 119.666666667 263 111 c 0
 253.666666667 101.666666667 242.333333333 97 229 97 c 0
 217 97 206.333333333 101.666666667 197 111 c 0
 187.666666667 120.333333333 183 131 183 143 c 0
 183 156.333333333 187.666666667 167.666666667 197 177 c 0
 205.666666667 185.666666667 216.333333333 190 229 190 c 0
416 268 m 1
 44 268 l 1
 44 319 l 1
 416 319 l 1
 416 268 l 1
229 489 m 0
 243 489 254.333333333 484.666666667 263 476 c 0
 271.666666667 467.333333333 276 456 276 442 c 0
 276 429.333333333 271.666666667 418.666666667 263 410 c 0
 253.666666667 400.666666667 242.333333333 396 229 396 c 0
 217 396 206.333333333 400.666666667 197 410 c 0
 187.666666667 419.333333333 183 430 183 442 c 0
 183 455.333333333 187.666666667 466.666666667 197 476 c 0
 205.666666667 484.666666667 216.333333333 489 229 489 c 0
EndSplineSet
EndChar

StartChar: uni02BC
Encoding: 303 700 47
Width: 210
Flags: MW
LayerCount: 3
Fore
SplineSet
76 602 m 2
 76 662 l 2
 76 671 79 679 85 686 c 0
 91 692 98.6666666667 695 108 695 c 0
 117.333333333 695 125 692 131 686 c 0
 137 679 140 671 140 662 c 2
 140 602 l 2
 140 572.666666667 134.666666667 545 124 519 c 0
 113 491 95 468 70 450 c 1
 36 483 l 1
 62.6666666667 509.666666667 76 549.333333333 76 602 c 2
EndSplineSet
EndChar

StartChar: candrabinduinverteddeva
Encoding: 304 2304 48
Width: 0
GlyphClass: 4
Flags: HMW
AnchorPoint: "DVAnchor3" -117 650 mark 0
LayerCount: 3
Back
SplineSet
-173.828125 826.171875 m 1,0,-1
 -89.84375 826.171875 l 1,1,-1
 -89.84375 741.2109375 l 1,2,-1
 -173.828125 741.2109375 l 1,3,-1
 -173.828125 826.171875 l 1,0,-1
-128.90625 968.75 m 0,4,5
 -51.7578125 968.75 -51.7578125 968.75 6.8359375 917.48046875 c 128,-1,6
 65.4296875 866.2109375 65.4296875 866.2109375 79.1015625 787.109375 c 1,7,-1
 7.8125 787.109375 l 1,8,9
 -0.9765625 839.84375 -0.9765625 839.84375 -40.0390625 875 c 128,-1,10
 -79.1015625 910.15625 -79.1015625 910.15625 -128.90625 910.15625 c 0,11,12
 -177.734375 910.15625 -177.734375 910.15625 -216.796875 875 c 128,-1,13
 -255.859375 839.84375 -255.859375 839.84375 -265.625 787.109375 c 1,14,-1
 -336.9140625 787.109375 l 1,15,16
 -322.265625 866.2109375 -322.265625 866.2109375 -263.671875 917.48046875 c 128,-1,17
 -205.078125 968.75 -205.078125 968.75 -128.90625 968.75 c 0,4,5
EndSplineSet
EndChar

StartChar: candrabindudeva
Encoding: 305 2305 49
Width: 0
GlyphClass: 4
Flags: HMW
AnchorPoint: "DVAnchor3" -117 650 mark 0
LayerCount: 3
Back
SplineSet
-173.828125 883.7890625 m 1,0,-1
 -173.828125 968.75 l 1,1,-1
 -89.84375 968.75 l 1,2,-1
 -89.84375 883.7890625 l 1,3,-1
 -173.828125 883.7890625 l 1,0,-1
-128.90625 741.2109375 m 0,4,5
 -205.078125 741.2109375 -205.078125 741.2109375 -263.671875 792.48046875 c 128,-1,6
 -322.265625 843.75 -322.265625 843.75 -336.9140625 922.8515625 c 1,7,-1
 -265.625 922.8515625 l 1,8,9
 -255.859375 870.1171875 -255.859375 870.1171875 -216.796875 834.9609375 c 128,-1,10
 -177.734375 799.8046875 -177.734375 799.8046875 -128.90625 799.8046875 c 0,11,12
 -79.1015625 799.8046875 -79.1015625 799.8046875 -40.0390625 834.9609375 c 128,-1,13
 -0.9765625 870.1171875 -0.9765625 870.1171875 7.8125 922.8515625 c 1,14,-1
 79.1015625 922.8515625 l 1,15,16
 65.4296875 843.75 65.4296875 843.75 6.8359375 792.48046875 c 128,-1,17
 -51.7578125 741.2109375 -51.7578125 741.2109375 -128.90625 741.2109375 c 0,4,5
EndSplineSet
EndChar

StartChar: anusvaradeva
Encoding: 306 2306 50
Width: 0
GlyphClass: 4
Flags: HMW
AnchorPoint: "DVAnchor3" -130 650 mark 0
LayerCount: 3
Back
SplineSet
-172.8515625 812.5 m 5,0,-1
 -172.8515625 903.3203125 l 5,1,-1
 -75.1953125 903.3203125 l 5,2,-1
 -75.1953125 812.5 l 5,3,-1
 -172.8515625 812.5 l 5,0,-1
EndSplineSet
EndChar

StartChar: visargadeva
Encoding: 307 2307 51
Width: 331
GlyphClass: 2
Flags: HMW
LayerCount: 3
Back
SplineSet
162.109375 389.6484375 m 0,0,1
 134.765625 389.6484375 134.765625 389.6484375 116.2109375 410.64453125 c 128,-1,2
 97.65625 431.640625 97.65625 431.640625 97.65625 461.9140625 c 0,3,4
 97.65625 491.2109375 97.65625 491.2109375 116.2109375 512.20703125 c 128,-1,5
 134.765625 533.203125 134.765625 533.203125 162.109375 533.203125 c 0,6,7
 192.3828125 533.203125 192.3828125 533.203125 213.37890625 512.20703125 c 128,-1,8
 234.375 491.2109375 234.375 491.2109375 234.375 461.9140625 c 0,9,10
 234.375 431.640625 234.375 431.640625 213.37890625 410.64453125 c 128,-1,11
 192.3828125 389.6484375 192.3828125 389.6484375 162.109375 389.6484375 c 0,0,1
162.109375 104.4921875 m 0,12,13
 134.765625 104.4921875 134.765625 104.4921875 116.2109375 125 c 128,-1,14
 97.65625 145.5078125 97.65625 145.5078125 97.65625 175.78125 c 0,15,16
 97.65625 205.078125 97.65625 205.078125 116.2109375 226.07421875 c 128,-1,17
 134.765625 247.0703125 134.765625 247.0703125 162.109375 247.0703125 c 0,18,19
 192.3828125 247.0703125 192.3828125 247.0703125 213.37890625 226.07421875 c 128,-1,20
 234.375 205.078125 234.375 205.078125 234.375 175.78125 c 0,21,22
 234.375 145.5078125 234.375 145.5078125 213.37890625 125 c 128,-1,23
 192.3828125 104.4921875 192.3828125 104.4921875 162.109375 104.4921875 c 0,12,13
EndSplineSet
EndChar

StartChar: ashortdeva
Encoding: 308 2308 52
Width: 1000
GlyphClass: 2
Flags: H
LayerCount: 3
Back
SplineSet
301.7578125 45.8984375 m 0,0,1
 223.6328125 45.8984375 223.6328125 45.8984375 150.390625 110.83984375 c 128,-1,2
 77.1484375 175.78125 77.1484375 175.78125 22.4609375 292.96875 c 1,3,-1
 70.3125 320.3125 l 1,4,5
 117.1875 220.703125 117.1875 220.703125 177.734375 165.52734375 c 128,-1,6
 238.28125 110.3515625 238.28125 110.3515625 301.7578125 110.3515625 c 0,7,8
 341.796875 110.3515625 341.796875 110.3515625 370.60546875 140.13671875 c 128,-1,9
 399.4140625 169.921875 399.4140625 169.921875 399.4140625 212.890625 c 0,10,11
 399.4140625 265.625 399.4140625 265.625 366.69921875 301.7578125 c 128,-1,12
 333.984375 337.890625 333.984375 337.890625 289.0625 337.890625 c 0,13,14
 274.4140625 337.890625 274.4140625 337.890625 258.30078125 334.9609375 c 128,-1,15
 242.1875 332.03125 242.1875 332.03125 223.6328125 325.1953125 c 1,16,-1
 197.265625 383.7890625 l 1,17,18
 255.859375 388.671875 255.859375 388.671875 300.78125 424.31640625 c 128,-1,19
 345.703125 459.9609375 345.703125 459.9609375 345.703125 500.9765625 c 0,20,21
 345.703125 538.0859375 345.703125 538.0859375 323.2421875 564.94140625 c 128,-1,22
 300.78125 591.796875 300.78125 591.796875 269.53125 591.796875 c 0,23,24
 231.4453125 591.796875 231.4453125 591.796875 190.4296875 567.87109375 c 128,-1,25
 149.4140625 543.9453125 149.4140625 543.9453125 113.28125 500.9765625 c 1,26,-1
 67.3828125 545.8984375 l 1,27,28
 101.5625 595.703125 101.5625 595.703125 154.78515625 623.046875 c 128,-1,29
 208.0078125 650.390625 208.0078125 650.390625 269.53125 650.390625 c 0,30,31
 329.1015625 650.390625 329.1015625 650.390625 370.60546875 606.93359375 c 128,-1,32
 412.109375 563.4765625 412.109375 563.4765625 412.109375 500.9765625 c 0,33,34
 412.109375 467.7734375 412.109375 467.7734375 396.484375 437.5 c 128,-1,35
 380.859375 407.2265625 380.859375 407.2265625 353.515625 383.7890625 c 1,36,37
 403.3203125 355.46875 403.3203125 355.46875 441.40625 340.33203125 c 128,-1,38
 479.4921875 325.1953125 479.4921875 325.1953125 502.9296875 325.1953125 c 0,39,40
 517.578125 325.1953125 517.578125 325.1953125 539.0625 333.49609375 c 128,-1,41
 560.546875 341.796875 560.546875 341.796875 587.890625 357.421875 c 1,42,-1
 587.890625 591.796875 l 1,43,-1
 470.703125 591.796875 l 1,44,-1
 470.703125 650.390625 l 1,45,-1
 591.796875 650.390625 l 1,46,47
 591.796875 706.0546875 591.796875 706.0546875 553.7109375 746.58203125 c 128,-1,48
 515.625 787.109375 515.625 787.109375 461.9140625 787.109375 c 0,49,50
 390.625 787.109375 390.625 787.109375 335.44921875 836.42578125 c 128,-1,51
 280.2734375 885.7421875 280.2734375 885.7421875 266.6015625 962.890625 c 1,52,-1
 332.03125 962.890625 l 1,53,54
 340.8203125 909.1796875 340.8203125 909.1796875 377.9296875 874.0234375 c 128,-1,55
 415.0390625 838.8671875 415.0390625 838.8671875 461.9140625 838.8671875 c 0,56,57
 542.96875 838.8671875 542.96875 838.8671875 600.09765625 783.69140625 c 128,-1,58
 657.2265625 728.515625 657.2265625 728.515625 657.2265625 650.390625 c 1,59,-1
 763.671875 650.390625 l 1,60,-1
 763.671875 591.796875 l 1,61,-1
 652.34375 591.796875 l 1,62,-1
 652.34375 0 l 1,63,-1
 587.890625 0 l 1,64,-1
 587.890625 292.96875 l 1,65,66
 572.265625 279.296875 572.265625 279.296875 556.15234375 272.94921875 c 128,-1,67
 540.0390625 266.6015625 540.0390625 266.6015625 522.4609375 266.6015625 c 0,68,69
 495.1171875 266.6015625 495.1171875 266.6015625 473.14453125 271.97265625 c 128,-1,70
 451.171875 277.34375 451.171875 277.34375 438.4765625 286.1328125 c 1,71,72
 451.171875 275.390625 451.171875 275.390625 457.51953125 256.8359375 c 128,-1,73
 463.8671875 238.28125 463.8671875 238.28125 463.8671875 214.84375 c 0,74,75
 463.8671875 144.53125 463.8671875 144.53125 416.50390625 95.21484375 c 128,-1,76
 369.140625 45.8984375 369.140625 45.8984375 301.7578125 45.8984375 c 0,0,1
EndSplineSet
EndChar

StartChar: adeva
Encoding: 309 2309 53
Width: 715
GlyphClass: 2
Flags: HMW
AnchorPoint: "DVAnchor3" 641.505 648 basechar 0
LayerCount: 3
Back
SplineSet
322.267578125 45.8984375 m 0,0,1
 244.142578125 45.8984375 244.142578125 45.8984375 170.900390625 110.83984375 c 128,-1,2
 97.658203125 175.78125 97.658203125 175.78125 42.970703125 292.96875 c 1,3,-1
 90.822265625 320.3125 l 1,4,5
 137.697265625 220.703125 137.697265625 220.703125 198.244140625 165.52734375 c 128,-1,6
 258.791015625 110.3515625 258.791015625 110.3515625 322.267578125 110.3515625 c 0,7,8
 362.306640625 110.3515625 362.306640625 110.3515625 391.115234375 140.13671875 c 128,-1,9
 419.923828125 169.921875 419.923828125 169.921875 419.923828125 212.890625 c 0,10,11
 419.923828125 265.625 419.923828125 265.625 387.208984375 301.7578125 c 128,-1,12
 354.494140625 337.890625 354.494140625 337.890625 309.572265625 337.890625 c 0,13,14
 294.923828125 337.890625 294.923828125 337.890625 278.810546875 334.9609375 c 128,-1,15
 262.697265625 332.03125 262.697265625 332.03125 244.142578125 325.1953125 c 1,16,-1
 217.775390625 383.7890625 l 1,17,18
 276.369140625 388.671875 276.369140625 388.671875 321.291015625 424.31640625 c 128,-1,19
 366.212890625 459.9609375 366.212890625 459.9609375 366.212890625 500.9765625 c 0,20,21
 366.212890625 538.0859375 366.212890625 538.0859375 343.751953125 564.94140625 c 128,-1,22
 321.291015625 591.796875 321.291015625 591.796875 290.041015625 591.796875 c 0,23,24
 251.955078125 591.796875 251.955078125 591.796875 210.939453125 567.87109375 c 128,-1,25
 169.923828125 543.9453125 169.923828125 543.9453125 133.791015625 500.9765625 c 1,26,-1
 87.892578125 545.8984375 l 1,27,28
 122.072265625 595.703125 122.072265625 595.703125 175.294921875 623.046875 c 128,-1,29
 228.517578125 650.390625 228.517578125 650.390625 290.041015625 650.390625 c 0,30,31
 349.611328125 650.390625 349.611328125 650.390625 391.115234375 606.93359375 c 128,-1,32
 432.619140625 563.4765625 432.619140625 563.4765625 432.619140625 500.9765625 c 0,33,34
 432.619140625 467.7734375 432.619140625 467.7734375 416.994140625 437.5 c 128,-1,35
 401.369140625 407.2265625 401.369140625 407.2265625 374.025390625 383.7890625 c 1,36,37
 423.830078125 355.46875 423.830078125 355.46875 461.916015625 340.33203125 c 128,-1,38
 500.001953125 325.1953125 500.001953125 325.1953125 523.439453125 325.1953125 c 0,39,40
 538.087890625 325.1953125 538.087890625 325.1953125 559.572265625 333.49609375 c 128,-1,41
 581.056640625 341.796875 581.056640625 341.796875 608.400390625 357.421875 c 1,42,-1
 608.400390625 591.796875 l 1,43,-1
 491.212890625 591.796875 l 1,44,-1
 491.212890625 650.390625 l 1,45,-1
 784.181640625 650.390625 l 1,46,-1
 784.181640625 591.796875 l 1,47,-1
 672.853515625 591.796875 l 1,48,-1
 672.853515625 0 l 1,49,-1
 608.400390625 0 l 1,50,-1
 608.400390625 292.96875 l 1,51,52
 592.775390625 279.296875 592.775390625 279.296875 576.662109375 272.94921875 c 128,-1,53
 560.548828125 266.6015625 560.548828125 266.6015625 542.970703125 266.6015625 c 0,54,55
 515.626953125 266.6015625 515.626953125 266.6015625 493.654296875 271.97265625 c 128,-1,56
 471.681640625 277.34375 471.681640625 277.34375 458.986328125 286.1328125 c 1,57,58
 471.681640625 275.390625 471.681640625 275.390625 478.029296875 256.8359375 c 128,-1,59
 484.376953125 238.28125 484.376953125 238.28125 484.376953125 214.84375 c 0,60,61
 484.376953125 144.53125 484.376953125 144.53125 437.013671875 95.21484375 c 128,-1,62
 389.650390625 45.8984375 389.650390625 45.8984375 322.267578125 45.8984375 c 0,0,1
EndSplineSet
Fore
SplineSet
730 579 m 1
 730 524 l 1
 581.504882812 524 l 1
 581.504882812 82 l 2
 581.504882812 72.6669921875 584.837890625 64.6669921875 591.504882812 58 c 0
 598.171875 51.3330078125 606.171875 48 615.504882812 48 c 0
 628.837890625 48 638.504882812 53 644.504882812 63 c 1
 690.504882812 32 l 1
 672.504882812 6 647.504882812 -7 615.504882812 -7 c 0
 590.837890625 -7 569.837890625 1.6669921875 552.504882812 19 c 0
 535.171875 36.3330078125 526.504882812 57.3330078125 526.504882812 82 c 2
 526.504882812 188.038049648 l 1
 513.35964334 178.370773994 498.986728071 175.154296875 483.385742188 175.154296875 c 0
 464.537669528 175.154296875 446.210196831 181.659952493 428.403151698 194.67126373 c 1
 425.64054492 178.946057907 420.177059458 164.321775743 412.012695312 150.797851562 c 0
 399.672851562 130.357421875 382.927734375 114.506835938 361.77734375 103.24609375 c 0
 340.627929688 91.9853515625 317.220703125 86.35546875 291.55859375 86.35546875 c 0
 268.459960938 86.35546875 246.509765625 89.708984375 225.706054688 96.4169921875 c 0
 204.903320312 103.125 186.711914062 112.166992188 171.1328125 123.54296875 c 0
 155.552734375 134.918945312 141.063476562 147.850585938 127.662109375 162.3359375 c 0
 114.26171875 176.821289062 102.928710938 192.120117188 93.662109375 208.233398438 c 0
 84.3955078125 224.346679688 76.1923828125 240.196289062 69.052734375 255.783203125 c 0
 61.9130859375 271.370117188 56.2958984375 286.25 52.201171875 300.423828125 c 0
 48.1064453125 314.59765625 45.048828125 326.690429688 43.029296875 336.701171875 c 0
 41.009765625 346.712890625 40 354.451171875 40 359.971679688 c 1
 95.423828125 359.971679688 l 1
 100.674804688 323.98828125 111.706054688 289.717773438 128.517578125 257.16015625 c 0
 145.329101562 224.603515625 168.206054688 197.1640625 197.1484375 174.840820312 c 0
 226.091796875 152.517578125 257.561523438 141.35546875 291.55859375 141.35546875 c 0
 308.297851562 141.35546875 323.051757812 144.671875 335.818359375 151.303710938 c 0
 348.584960938 157.935546875 358.393554688 167.170898438 365.245117188 179.009765625 c 0
 372.096679688 190.848632812 375.522460938 204.399414062 375.522460938 219.662109375 c 0
 375.522460938 256.895507812 360.885742188 287.926757812 331.61328125 312.755859375 c 0
 302.33984375 337.584960938 265.303710938 349.994140625 220.504882814 349.994140625 c 2
 219.504882812 349.994140625 l 1
 219.504882812 401.467773438 l 2
 220.991210938 401.39453125 223.50390625 401.358398438 227.04296875 401.358398438 c 0
 244.2734375 401.358398438 260.072265625 405.200195312 274.440429688 412.8828125 c 0
 288.80859375 420.56640625 300.171875 431.216796875 308.530273438 444.8359375 c 0
 316.888671875 458.455078125 321.067382812 473.552734375 321.067382812 490.12890625 c 0
 321.067382812 511.772460938 314.216796875 529.361328125 300.514648438 542.895507812 c 0
 286.8125 556.4296875 269.119140625 563.197265625 247.43359375 563.197265625 c 0
 236.620117188 563.197265625 225.930664062 561.165039062 215.366210938 557.099609375 c 0
 204.801757812 553.03515625 195.841796875 548.1015625 188.487304688 542.30078125 c 0
 181.133789062 536.499023438 174.551757812 530.698242188 168.7421875 524.896484375 c 0
 162.932617188 519.095703125 158.607421875 514.162109375 155.766601562 510.09765625 c 2
 151.504882812 504 l 1
 123.504882812 552 l 2
 124.106445312 552.921875 124.98046875 554.177734375 126.12890625 555.766601562 c 0
 127.276367188 557.354492188 129.870117188 560.440429688 133.911132812 565.024414062 c 0
 137.952148438 569.608398438 142.25 573.984375 146.805664062 578.153320312 c 0
 151.360351562 582.322265625 157.317382812 586.952148438 164.67578125 592.043945312 c 0
 172.034179688 597.134765625 179.634765625 601.51171875 187.478515625 605.172851562 c 0
 195.322265625 608.833984375 204.5234375 611.919921875 215.081054688 614.430664062 c 0
 225.638671875 616.94140625 236.422851562 618.197265625 247.43359375 618.197265625 c 0
 283.819335938 618.197265625 314.1875 605.928710938 338.540039062 581.390625 c 0
 362.891601562 556.852539062 375.067382812 526.431640625 375.067382812 490.12890625 c 0
 375.067382812 460.013671875 366.818359375 433.169921875 350.319335938 409.599609375 c 0
 342.994719836 399.134695272 334.663389056 389.912871684 325.325514517 381.934138609 c 1
 344.580620825 370.820585213 362.53143925 357.055749273 379.178123848 340.639630789 c 1
 379.467773438 340.9140625 l 2
 381.819946078 338.431365463 384.135177169 335.875263536 386.413468035 333.245799695 c 0
 394.699278704 324.418863804 401.81775596 315.073103086 407.76888084 305.20847716 c 0
 410.980963003 300.594835617 414.230854059 295.792921218 417.518554688 290.802734375 c 0
 423.924804688 281.080078125 428.725585938 274.038085938 431.920898438 269.676757812 c 0
 451.221679688 243.328125 470.709960938 230.154296875 490.385742188 230.154296875 c 0
 508.058214598 230.154296875 520.098537713 237.79031741 526.504882812 253.062358479 c 1
 526.504882812 524 l 1
 422.504882812 524 l 1
 422.504882812 579 l 1
 730 579 l 1
EndSplineSet
EndChar

StartChar: aadeva
Encoding: 310 2310 54
Width: 964
GlyphClass: 2
Flags: HMW
LayerCount: 3
Back
SplineSet
323.244140625 45.8984375 m 0,0,1
 245.119140625 45.8984375 245.119140625 45.8984375 171.876953125 110.83984375 c 128,-1,2
 98.634765625 175.78125 98.634765625 175.78125 43.947265625 292.96875 c 1,3,-1
 89.845703125 332.03125 l 1,4,5
 138.673828125 226.5625 138.673828125 226.5625 199.708984375 168.45703125 c 128,-1,6
 260.744140625 110.3515625 260.744140625 110.3515625 323.244140625 110.3515625 c 0,7,8
 364.259765625 110.3515625 364.259765625 110.3515625 392.580078125 145.01953125 c 128,-1,9
 420.900390625 179.6875 420.900390625 179.6875 420.900390625 227.5390625 c 0,10,11
 420.900390625 273.4375 420.900390625 273.4375 388.673828125 305.6640625 c 128,-1,12
 356.447265625 337.890625 356.447265625 337.890625 310.548828125 337.890625 c 0,13,14
 295.900390625 337.890625 295.900390625 337.890625 279.787109375 334.9609375 c 128,-1,15
 263.673828125 332.03125 263.673828125 332.03125 245.119140625 325.1953125 c 1,16,-1
 219.728515625 383.7890625 l 1,17,18
 278.322265625 388.671875 278.322265625 388.671875 323.732421875 426.26953125 c 128,-1,19
 369.142578125 463.8671875 369.142578125 463.8671875 369.142578125 506.8359375 c 0,20,21
 369.142578125 541.9921875 369.142578125 541.9921875 342.287109375 566.89453125 c 128,-1,22
 315.431640625 591.796875 315.431640625 591.796875 278.322265625 591.796875 c 0,23,24
 247.072265625 591.796875 247.072265625 591.796875 208.986328125 567.87109375 c 128,-1,25
 170.900390625 543.9453125 170.900390625 543.9453125 134.767578125 500.9765625 c 1,26,-1
 89.845703125 545.8984375 l 1,27,28
 123.048828125 595.703125 123.048828125 595.703125 173.341796875 623.046875 c 128,-1,29
 223.634765625 650.390625 223.634765625 650.390625 278.322265625 650.390625 c 0,30,31
 342.775390625 650.390625 342.775390625 650.390625 388.185546875 608.88671875 c 128,-1,32
 433.595703125 567.3828125 433.595703125 567.3828125 433.595703125 506.8359375 c 0,33,34
 433.595703125 471.6796875 433.595703125 471.6796875 417.970703125 439.453125 c 128,-1,35
 402.345703125 407.2265625 402.345703125 407.2265625 375.978515625 383.7890625 c 1,36,37
 419.923828125 357.421875 419.923828125 357.421875 462.892578125 344.7265625 c 128,-1,38
 505.861328125 332.03125 505.861328125 332.03125 544.923828125 332.03125 c 0,39,40
 554.689453125 332.03125 554.689453125 332.03125 571.291015625 338.37890625 c 128,-1,41
 587.892578125 344.7265625 587.892578125 344.7265625 609.376953125 357.421875 c 1,42,-1
 609.376953125 591.796875 l 1,43,-1
 492.189453125 591.796875 l 1,44,-1
 492.189453125 650.390625 l 1,45,-1
 1051.75976562 650.390625 l 1,46,-1
 1051.75976562 591.796875 l 1,47,-1
 941.408203125 591.796875 l 1,48,-1
 941.408203125 0 l 1,49,-1
 875.978515625 0 l 1,50,-1
 875.978515625 591.796875 l 1,51,-1
 674.806640625 591.796875 l 1,52,-1
 674.806640625 0 l 1,53,-1
 609.376953125 0 l 1,54,-1
 609.376953125 292.96875 l 1,55,56
 593.751953125 279.296875 593.751953125 279.296875 577.638671875 272.94921875 c 128,-1,57
 561.525390625 266.6015625 561.525390625 266.6015625 544.923828125 266.6015625 c 0,58,59
 517.580078125 266.6015625 517.580078125 266.6015625 495.119140625 271.97265625 c 128,-1,60
 472.658203125 277.34375 472.658203125 277.34375 459.962890625 286.1328125 c 1,61,62
 472.658203125 275.390625 472.658203125 275.390625 479.494140625 256.8359375 c 128,-1,63
 486.330078125 238.28125 486.330078125 238.28125 486.330078125 214.84375 c 0,64,65
 486.330078125 144.53125 486.330078125 144.53125 438.966796875 95.21484375 c 128,-1,66
 391.603515625 45.8984375 391.603515625 45.8984375 323.244140625 45.8984375 c 0,0,1
EndSplineSet
Fore
SplineSet
151.504882812 504 m 1
 123.504882812 552 l 2
 124.106445312 552.921875 124.98046875 554.177734375 126.12890625 555.766601562 c 0
 127.276367188 557.354492188 129.870117188 560.440429688 133.911132812 565.024414062 c 0
 137.952148438 569.608398438 142.25 573.984375 146.805664062 578.153320312 c 0
 151.360351562 582.322265625 157.317382812 586.952148438 164.67578125 592.043945312 c 0
 172.034179688 597.134765625 179.634765625 601.51171875 187.478515625 605.172851562 c 0
 195.322265625 608.833984375 204.5234375 611.919921875 215.081054688 614.430664062 c 0
 225.638671875 616.94140625 236.422851562 618.197265625 247.43359375 618.197265625 c 0
 283.819335938 618.197265625 314.1875 605.928710938 338.540039062 581.390625 c 0
 362.891601562 556.852539062 375.067382812 526.431640625 375.067382812 490.12890625 c 0
 375.067382812 460.013671875 366.818359375 433.169921875 350.319335938 409.599609375 c 0
 342.994719836 399.134695272 334.663389056 389.912871684 325.325514517 381.934138609 c 1
 344.580620825 370.820585213 362.53143925 357.055749273 379.178123848 340.639630789 c 1
 379.467773438 340.9140625 l 2
 381.819946078 338.431365463 384.135177169 335.875263536 386.413468035 333.245799695 c 0
 394.699278704 324.418863804 401.81775596 315.073103086 407.76888084 305.20847716 c 0
 410.980963003 300.594835617 414.230854059 295.792921218 417.518554688 290.802734375 c 0
 423.924804688 281.080078125 428.725585938 274.038085938 431.920898438 269.676757812 c 0
 451.221679688 243.328125 470.709960938 230.154296875 490.385742188 230.154296875 c 0
 508.058214598 230.154296875 520.098537713 237.79031741 526.504882812 253.062358479 c 1
 526.504882812 524 l 1
 422.504882812 524 l 1
 422.504882812 579 l 1
 654.504882812 579 l 1
 685.504882812 579 l 1
 979 579 l 1
 979 524 l 1
 813.504882812 524 l 1
 813.504882812 82 l 2
 813.504882812 72.6669921875 816.837890625 64.6669921875 823.504882812 58 c 0
 830.171875 51.3330078125 838.171875 48 847.504882812 48 c 0
 860.837890625 48 870.504882812 53 876.504882812 63 c 1
 922.504882812 32 l 1
 904.504882812 6 879.504882812 -7 847.504882812 -7 c 0
 822.837890625 -7 801.837890625 1.6669921875 784.504882812 19 c 0
 767.171875 36.3330078125 758.504882812 57.3330078125 758.504882812 82 c 2
 758.504882812 524 l 1
 685.504882812 524 l 1
 654.504882812 524 l 1
 581.504882812 524 l 1
 581.504882812 82 l 2
 581.504882812 72.6669921875 584.837890625 64.6669921875 591.504882812 58 c 0
 598.171875 51.3330078125 606.171875 48 615.504882812 48 c 0
 628.837890625 48 638.504882812 53 644.504882812 63 c 1
 690.504882812 32 l 1
 672.504882812 6 647.504882812 -7 615.504882812 -7 c 0
 590.837890625 -7 569.837890625 1.6669921875 552.504882812 19 c 0
 535.171875 36.3330078125 526.504882812 57.3330078125 526.504882812 82 c 2
 526.504882812 188.038049648 l 1
 513.35964334 178.370773994 498.986728071 175.154296875 483.385742188 175.154296875 c 0
 464.537669528 175.154296875 446.210196831 181.659952493 428.403151698 194.67126373 c 1
 425.64054492 178.946057907 420.177059458 164.321775743 412.012695312 150.797851562 c 0
 399.672851562 130.357421875 382.927734375 114.506835938 361.77734375 103.24609375 c 0
 340.627929688 91.9853515625 317.220703125 86.35546875 291.55859375 86.35546875 c 0
 268.459960938 86.35546875 246.509765625 89.708984375 225.706054688 96.4169921875 c 0
 204.903320312 103.125 186.711914062 112.166992188 171.1328125 123.54296875 c 0
 155.552734375 134.918945312 141.063476562 147.850585938 127.662109375 162.3359375 c 0
 114.26171875 176.821289062 102.928710938 192.120117188 93.662109375 208.233398438 c 0
 84.3955078125 224.346679688 76.1923828125 240.196289062 69.052734375 255.783203125 c 0
 61.9130859375 271.370117188 56.2958984375 286.25 52.201171875 300.423828125 c 0
 48.1064453125 314.59765625 45.048828125 326.690429688 43.029296875 336.701171875 c 0
 41.009765625 346.712890625 40 354.451171875 40 359.971679688 c 1
 95.423828125 359.971679688 l 1
 100.674804688 323.98828125 111.706054688 289.717773438 128.517578125 257.16015625 c 0
 145.329101562 224.603515625 168.206054688 197.1640625 197.1484375 174.840820312 c 0
 226.091796875 152.517578125 257.561523438 141.35546875 291.55859375 141.35546875 c 0
 308.297851562 141.35546875 323.051757812 144.671875 335.818359375 151.303710938 c 0
 348.584960938 157.935546875 358.393554688 167.170898438 365.245117188 179.009765625 c 0
 372.096679688 190.848632812 375.522460938 204.399414062 375.522460938 219.662109375 c 0
 375.522460938 256.895507812 360.885742188 287.926757812 331.61328125 312.755859375 c 0
 302.33984375 337.584960938 265.303710938 349.994140625 220.504882814 349.994140625 c 2
 219.504882812 349.994140625 l 1
 219.504882812 401.467773438 l 2
 220.991210938 401.39453125 223.50390625 401.358398438 227.04296875 401.358398438 c 0
 244.2734375 401.358398438 260.072265625 405.200195312 274.440429688 412.8828125 c 0
 288.80859375 420.56640625 300.171875 431.216796875 308.530273438 444.8359375 c 0
 316.888671875 458.455078125 321.067382812 473.552734375 321.067382812 490.12890625 c 0
 321.067382812 511.772460938 314.216796875 529.361328125 300.514648438 542.895507812 c 0
 286.8125 556.4296875 269.119140625 563.197265625 247.43359375 563.197265625 c 0
 236.620117188 563.197265625 225.930664062 561.165039062 215.366210938 557.099609375 c 0
 204.801757812 553.03515625 195.841796875 548.1015625 188.487304688 542.30078125 c 0
 181.133789062 536.499023438 174.551757812 530.698242188 168.7421875 524.896484375 c 0
 162.932617188 519.095703125 158.607421875 514.162109375 155.766601562 510.09765625 c 2
 151.504882812 504 l 1
EndSplineSet
EndChar

StartChar: ideva
Encoding: 311 2311 55
Width: 491
GlyphClass: 2
Flags: HMW
AnchorPoint: "DVAnchor3" 368 648 basechar 0
LayerCount: 3
Back
SplineSet
-12.6953125 591.796875 m 1,0,-1
 -12.6953125 650.390625 l 1,1,-1
 504.8828125 650.390625 l 1,2,-1
 504.8828125 591.796875 l 1,3,-1
 391.6015625 591.796875 l 1,4,-1
 391.6015625 422.8515625 l 1,5,-1
 157.2265625 422.8515625 l 2,6,7
 141.6015625 422.8515625 141.6015625 422.8515625 129.8828125 415.0390625 c 128,-1,8
 118.1640625 407.2265625 118.1640625 407.2265625 118.1640625 396.484375 c 0,9,10
 118.1640625 375.9765625 118.1640625 375.9765625 159.66796875 334.47265625 c 128,-1,11
 201.171875 292.96875 201.171875 292.96875 222.65625 292.96875 c 128,-1,12
 244.140625 292.96875 244.140625 292.96875 287.109375 309.08203125 c 128,-1,13
 330.078125 325.1953125 330.078125 325.1953125 352.5390625 325.1953125 c 0,14,15
 389.6484375 325.1953125 389.6484375 325.1953125 416.50390625 292.48046875 c 128,-1,16
 443.359375 259.765625 443.359375 259.765625 443.359375 214.84375 c 0,17,18
 443.359375 133.7890625 443.359375 133.7890625 394.04296875 76.66015625 c 128,-1,19
 344.7265625 19.53125 344.7265625 19.53125 274.4140625 19.53125 c 1,20,21
 298.828125 -15.625 298.828125 -15.625 339.84375 -46.875 c 128,-1,22
 380.859375 -78.125 380.859375 -78.125 436.5234375 -104.4921875 c 1,23,-1
 404.296875 -156.25 l 1,24,25
 333.984375 -116.2109375 333.984375 -116.2109375 281.25 -71.2890625 c 128,-1,26
 228.515625 -26.3671875 228.515625 -26.3671875 196.2890625 19.53125 c 1,27,28
 130.859375 19.53125 130.859375 19.53125 85.44921875 44.43359375 c 128,-1,29
 40.0390625 69.3359375 40.0390625 69.3359375 40.0390625 104.4921875 c 0,30,31
 40.0390625 130.859375 40.0390625 130.859375 59.08203125 149.90234375 c 128,-1,32
 78.125 168.9453125 78.125 168.9453125 105.46875 168.9453125 c 0,33,34
 142.578125 168.9453125 142.578125 168.9453125 179.19921875 143.06640625 c 128,-1,35
 215.8203125 117.1875 215.8203125 117.1875 242.1875 71.2890625 c 1,36,37
 297.8515625 71.2890625 297.8515625 71.2890625 337.890625 113.76953125 c 128,-1,38
 377.9296875 156.25 377.9296875 156.25 377.9296875 214.84375 c 0,39,40
 377.9296875 232.421875 377.9296875 232.421875 370.60546875 246.09375 c 128,-1,41
 363.28125 259.765625 363.28125 259.765625 352.5390625 259.765625 c 0,42,43
 330.078125 259.765625 330.078125 259.765625 287.109375 243.65234375 c 128,-1,44
 244.140625 227.5390625 244.140625 227.5390625 222.65625 227.5390625 c 0,45,46
 180.6640625 227.5390625 180.6640625 227.5390625 116.2109375 291.50390625 c 128,-1,47
 51.7578125 355.46875 51.7578125 355.46875 51.7578125 396.484375 c 0,48,49
 51.7578125 434.5703125 51.7578125 434.5703125 83.0078125 460.9375 c 128,-1,50
 114.2578125 487.3046875 114.2578125 487.3046875 158.203125 487.3046875 c 2,51,-1
 320.3125 487.3046875 l 1,52,-1
 320.3125 591.796875 l 1,53,-1
 -12.6953125 591.796875 l 1,0,-1
EndSplineSet
EndChar

StartChar: iideva
Encoding: 312 2312 56
Width: 498
GlyphClass: 2
Flags: HMW
AnchorPoint: "DVAnchor3" 429 565 basechar 0
LayerCount: 3
Back
SplineSet
405.2734375 -156.25 m 1,0,1
 335.9375 -116.2109375 335.9375 -116.2109375 283.203125 -71.2890625 c 128,-1,2
 230.46875 -26.3671875 230.46875 -26.3671875 197.265625 19.53125 c 1,3,4
 132.8125 19.53125 132.8125 19.53125 87.40234375 44.43359375 c 128,-1,5
 41.9921875 69.3359375 41.9921875 69.3359375 41.9921875 104.4921875 c 0,6,7
 41.9921875 130.859375 41.9921875 130.859375 60.546875 149.90234375 c 128,-1,8
 79.1015625 168.9453125 79.1015625 168.9453125 106.4453125 168.9453125 c 0,9,10
 144.53125 168.9453125 144.53125 168.9453125 180.6640625 143.06640625 c 128,-1,11
 216.796875 117.1875 216.796875 117.1875 243.1640625 71.2890625 c 1,12,13
 301.7578125 71.2890625 301.7578125 71.2890625 343.75 113.76953125 c 128,-1,14
 385.7421875 156.25 385.7421875 156.25 385.7421875 214.84375 c 0,15,16
 385.7421875 232.421875 385.7421875 232.421875 376.46484375 246.09375 c 128,-1,17
 367.1875 259.765625 367.1875 259.765625 353.515625 259.765625 c 0,18,19
 337.890625 259.765625 337.890625 259.765625 323.73046875 256.8359375 c 128,-1,20
 309.5703125 253.90625 309.5703125 253.90625 294.921875 247.0703125 c 0,21,22
 274.4140625 238.28125 274.4140625 238.28125 256.34765625 232.91015625 c 128,-1,23
 238.28125 227.5390625 238.28125 227.5390625 223.6328125 227.5390625 c 0,24,25
 180.6640625 227.5390625 180.6640625 227.5390625 114.2578125 291.50390625 c 128,-1,26
 47.8515625 355.46875 47.8515625 355.46875 47.8515625 396.484375 c 0,27,28
 47.8515625 434.5703125 47.8515625 434.5703125 80.56640625 460.9375 c 128,-1,29
 113.28125 487.3046875 113.28125 487.3046875 158.203125 487.3046875 c 2,30,-1
 328.125 487.3046875 l 1,31,-1
 328.125 591.796875 l 1,32,-1
 -12.6953125 591.796875 l 1,33,-1
 -12.6953125 650.390625 l 1,34,-1
 313.4765625 650.390625 l 1,35,36
 279.296875 679.6875 279.296875 679.6875 261.23046875 713.8671875 c 128,-1,37
 243.1640625 748.046875 243.1640625 748.046875 243.1640625 780.2734375 c 0,38,39
 243.1640625 839.84375 243.1640625 839.84375 288.57421875 881.34765625 c 128,-1,40
 333.984375 922.8515625 333.984375 922.8515625 399.4140625 922.8515625 c 0,41,42
 416.9921875 922.8515625 416.9921875 922.8515625 434.5703125 919.921875 c 128,-1,43
 452.1484375 916.9921875 452.1484375 916.9921875 470.703125 910.15625 c 1,44,-1
 470.703125 851.5625 l 1,45,46
 443.359375 862.3046875 443.359375 862.3046875 425.78125 866.69921875 c 128,-1,47
 408.203125 871.09375 408.203125 871.09375 399.4140625 871.09375 c 0,48,49
 361.328125 871.09375 361.328125 871.09375 334.9609375 844.7265625 c 128,-1,50
 308.59375 818.359375 308.59375 818.359375 308.59375 780.2734375 c 0,51,52
 308.59375 744.140625 308.59375 744.140625 330.078125 709.47265625 c 128,-1,53
 351.5625 674.8046875 351.5625 674.8046875 388.671875 650.390625 c 1,54,-1
 510.7421875 650.390625 l 1,55,-1
 510.7421875 591.796875 l 1,56,-1
 392.578125 591.796875 l 1,57,-1
 392.578125 422.8515625 l 1,58,-1
 158.203125 422.8515625 l 2,59,60
 142.578125 422.8515625 142.578125 422.8515625 131.34765625 415.0390625 c 128,-1,61
 120.1171875 407.2265625 120.1171875 407.2265625 120.1171875 396.484375 c 0,62,63
 120.1171875 375.9765625 120.1171875 375.9765625 161.62109375 334.47265625 c 128,-1,64
 203.125 292.96875 203.125 292.96875 223.6328125 292.96875 c 0,65,66
 234.375 292.96875 234.375 292.96875 250.48828125 297.36328125 c 128,-1,67
 266.6015625 301.7578125 266.6015625 301.7578125 289.0625 309.5703125 c 0,68,69
 308.59375 317.3828125 308.59375 317.3828125 325.1953125 321.2890625 c 128,-1,70
 341.796875 325.1953125 341.796875 325.1953125 353.515625 325.1953125 c 0,71,72
 393.5546875 325.1953125 393.5546875 325.1953125 422.36328125 292.48046875 c 128,-1,73
 451.171875 259.765625 451.171875 259.765625 451.171875 214.84375 c 0,74,75
 451.171875 133.7890625 451.171875 133.7890625 403.80859375 76.66015625 c 128,-1,76
 356.4453125 19.53125 356.4453125 19.53125 289.0625 19.53125 c 1,77,78
 304.6875 -15.625 304.6875 -15.625 345.21484375 -46.38671875 c 128,-1,79
 385.7421875 -77.1484375 385.7421875 -77.1484375 444.3359375 -97.65625 c 1,80,-1
 405.2734375 -156.25 l 1,0,1
EndSplineSet
EndChar

StartChar: udeva
Encoding: 313 2313 57
Width: 616
GlyphClass: 2
Flags: HMW
AnchorPoint: "DVAnchor3" 450 648 basechar 0
LayerCount: 3
Back
SplineSet
-12.6953125 591.796875 m 1,0,-1
 -12.6953125 650.390625 l 1,1,-1
 628.90625 650.390625 l 1,2,-1
 628.90625 591.796875 l 1,3,-1
 490.234375 591.796875 l 1,4,5
 509.765625 569.3359375 509.765625 569.3359375 519.53125 541.9921875 c 128,-1,6
 529.296875 514.6484375 529.296875 514.6484375 529.296875 487.3046875 c 0,7,8
 529.296875 444.3359375 529.296875 444.3359375 511.71875 409.66796875 c 128,-1,9
 494.140625 375 494.140625 375 463.8671875 357.421875 c 1,10,11
 505.859375 343.75 505.859375 343.75 530.76171875 300.78125 c 128,-1,12
 555.6640625 257.8125 555.6640625 257.8125 555.6640625 201.171875 c 0,13,14
 555.6640625 125.9765625 555.6640625 125.9765625 503.90625 72.75390625 c 128,-1,15
 452.1484375 19.53125 452.1484375 19.53125 379.8828125 19.53125 c 0,16,17
 279.296875 19.53125 279.296875 19.53125 186.03515625 125.48828125 c 128,-1,18
 92.7734375 231.4453125 92.7734375 231.4453125 22.4609375 422.8515625 c 1,19,-1
 75.1953125 446.2890625 l 1,20,21
 137.6953125 274.4140625 137.6953125 274.4140625 217.7734375 179.6875 c 128,-1,22
 297.8515625 84.9609375 297.8515625 84.9609375 379.8828125 84.9609375 c 0,23,24
 424.8046875 84.9609375 424.8046875 84.9609375 457.51953125 119.140625 c 128,-1,25
 490.234375 153.3203125 490.234375 153.3203125 490.234375 201.171875 c 0,26,27
 490.234375 254.8828125 490.234375 254.8828125 459.47265625 293.45703125 c 128,-1,28
 428.7109375 332.03125 428.7109375 332.03125 385.7421875 332.03125 c 2,29,-1
 255.859375 332.03125 l 1,30,-1
 230.46875 389.6484375 l 1,31,-1
 373.046875 389.6484375 l 2,32,33
 411.1328125 389.6484375 411.1328125 389.6484375 437.5 418.45703125 c 128,-1,34
 463.8671875 447.265625 463.8671875 447.265625 463.8671875 487.3046875 c 0,35,36
 463.8671875 514.6484375 463.8671875 514.6484375 448.2421875 541.9921875 c 128,-1,37
 432.6171875 569.3359375 432.6171875 569.3359375 405.2734375 591.796875 c 1,38,-1
 -12.6953125 591.796875 l 1,0,-1
EndSplineSet
EndChar

StartChar: uudeva
Encoding: 314 2314 58
Width: 899
GlyphClass: 2
Flags: HMW
AnchorPoint: "DVAnchor3" 442 648 basechar 0
LayerCount: 3
Back
SplineSet
-12.6953125 591.796875 m 1,0,-1
 -12.6953125 650.390625 l 1,1,-1
 913.0859375 650.390625 l 1,2,-1
 913.0859375 591.796875 l 1,3,-1
 483.3984375 591.796875 l 1,4,5
 504.8828125 567.3828125 504.8828125 567.3828125 515.625 540.52734375 c 128,-1,6
 526.3671875 513.671875 526.3671875 513.671875 526.3671875 487.3046875 c 0,7,8
 526.3671875 443.359375 526.3671875 443.359375 506.8359375 409.66796875 c 128,-1,9
 487.3046875 375.9765625 487.3046875 375.9765625 455.078125 364.2578125 c 1,10,11
 486.328125 349.609375 486.328125 349.609375 505.859375 330.078125 c 128,-1,12
 525.390625 310.546875 525.390625 310.546875 529.296875 291.015625 c 1,13,14
 551.7578125 344.7265625 551.7578125 344.7265625 595.21484375 376.953125 c 128,-1,15
 638.671875 409.1796875 638.671875 409.1796875 689.453125 409.1796875 c 0,16,17
 759.765625 409.1796875 759.765625 409.1796875 809.08203125 363.76953125 c 128,-1,18
 858.3984375 318.359375 858.3984375 318.359375 858.3984375 253.90625 c 0,19,20
 858.3984375 188.4765625 858.3984375 188.4765625 829.1015625 131.8359375 c 128,-1,21
 799.8046875 75.1953125 799.8046875 75.1953125 748.046875 39.0625 c 1,22,-1
 705.078125 86.9140625 l 1,23,24
 746.09375 110.3515625 746.09375 110.3515625 769.53125 155.2734375 c 128,-1,25
 792.96875 200.1953125 792.96875 200.1953125 792.96875 253.90625 c 0,26,27
 792.96875 293.9453125 792.96875 293.9453125 762.6953125 322.75390625 c 128,-1,28
 732.421875 351.5625 732.421875 351.5625 689.453125 351.5625 c 0,29,30
 640.625 351.5625 640.625 351.5625 600.5859375 297.8515625 c 128,-1,31
 560.546875 244.140625 560.546875 244.140625 545.8984375 162.109375 c 1,32,33
 536.1328125 100.5859375 536.1328125 100.5859375 485.83984375 60.05859375 c 128,-1,34
 435.546875 19.53125 435.546875 19.53125 371.09375 19.53125 c 0,35,36
 267.578125 19.53125 267.578125 19.53125 171.38671875 135.25390625 c 128,-1,37
 75.1953125 250.9765625 75.1953125 250.9765625 26.3671875 435.546875 c 1,38,-1
 84.9609375 461.9140625 l 1,39,40
 128.90625 294.921875 128.90625 294.921875 208.984375 189.94140625 c 128,-1,41
 289.0625 84.9609375 289.0625 84.9609375 371.09375 84.9609375 c 0,42,43
 418.9453125 84.9609375 418.9453125 84.9609375 453.125 123.046875 c 128,-1,44
 487.3046875 161.1328125 487.3046875 161.1328125 487.3046875 214.84375 c 0,45,46
 487.3046875 262.6953125 487.3046875 262.6953125 453.125 297.36328125 c 128,-1,47
 418.9453125 332.03125 418.9453125 332.03125 371.09375 332.03125 c 2,48,-1
 253.90625 332.03125 l 1,49,-1
 227.5390625 389.6484375 l 1,50,-1
 357.421875 389.6484375 l 2,51,52
 400.390625 389.6484375 400.390625 389.6484375 430.17578125 418.45703125 c 128,-1,53
 459.9609375 447.265625 459.9609375 447.265625 459.9609375 487.3046875 c 0,54,55
 459.9609375 510.7421875 459.9609375 510.7421875 443.359375 538.0859375 c 128,-1,56
 426.7578125 565.4296875 426.7578125 565.4296875 396.484375 591.796875 c 1,57,-1
 -12.6953125 591.796875 l 1,0,-1
EndSplineSet
EndChar

StartChar: rvocalicdeva
Encoding: 315 2315 59
Width: 843
GlyphClass: 2
Flags: HMW
AnchorPoint: "DVAnchor3" 449 648 basechar 0
AnchorPoint: "DVAnchor0" 460 25 basechar 0
LayerCount: 3
Back
SplineSet
200.1953125 481.4453125 m 0,0,1
 228.515625 481.4453125 228.515625 481.4453125 258.7890625 466.30859375 c 128,-1,2
 289.0625 451.171875 289.0625 451.171875 317.3828125 422.8515625 c 2,3,-1
 420.8984375 318.359375 l 1,4,-1
 420.8984375 591.796875 l 1,5,-1
 -12.6953125 591.796875 l 1,6,-1
 -12.6953125 650.390625 l 1,7,-1
 857.421875 650.390625 l 1,8,-1
 857.421875 591.796875 l 1,9,-1
 486.328125 591.796875 l 1,10,-1
 486.328125 357.421875 l 1,11,12
 500.9765625 351.5625 500.9765625 351.5625 518.5546875 348.14453125 c 128,-1,13
 536.1328125 344.7265625 536.1328125 344.7265625 557.6171875 344.7265625 c 0,14,15
 575.1953125 344.7265625 575.1953125 344.7265625 586.9140625 346.6796875 c 128,-1,16
 598.6328125 348.6328125 598.6328125 348.6328125 603.515625 351.5625 c 1,17,18
 594.7265625 364.2578125 594.7265625 364.2578125 589.35546875 378.90625 c 128,-1,19
 583.984375 393.5546875 583.984375 393.5546875 583.984375 409.1796875 c 0,20,21
 583.984375 431.640625 583.984375 431.640625 604.4921875 446.77734375 c 128,-1,22
 625 461.9140625 625 461.9140625 655.2734375 461.9140625 c 128,-1,23
 685.546875 461.9140625 685.546875 461.9140625 706.0546875 442.87109375 c 128,-1,24
 726.5625 423.828125 726.5625 423.828125 726.5625 396.484375 c 0,25,26
 726.5625 372.0703125 726.5625 372.0703125 716.30859375 352.5390625 c 128,-1,27
 706.0546875 333.0078125 706.0546875 333.0078125 687.5 325.1953125 c 1,28,29
 744.140625 269.53125 744.140625 269.53125 774.4140625 213.37890625 c 128,-1,30
 804.6875 157.2265625 804.6875 157.2265625 804.6875 110.3515625 c 0,31,32
 804.6875 59.5703125 804.6875 59.5703125 768.5546875 23.4375 c 128,-1,33
 732.421875 -12.6953125 732.421875 -12.6953125 681.640625 -12.6953125 c 0,34,35
 640.625 -12.6953125 640.625 -12.6953125 608.3984375 14.6484375 c 128,-1,36
 576.171875 41.9921875 576.171875 41.9921875 564.453125 84.9609375 c 1,37,-1
 623.046875 110.3515625 l 1,38,39
 626.953125 84.9609375 626.953125 84.9609375 643.5546875 68.359375 c 128,-1,40
 660.15625 51.7578125 660.15625 51.7578125 681.640625 51.7578125 c 0,41,42
 706.0546875 51.7578125 706.0546875 51.7578125 723.14453125 68.84765625 c 128,-1,43
 740.234375 85.9375 740.234375 85.9375 740.234375 110.3515625 c 0,44,45
 740.234375 153.3203125 740.234375 153.3203125 709.47265625 202.63671875 c 128,-1,46
 678.7109375 251.953125 678.7109375 251.953125 623.046875 298.828125 c 1,47,48
 608.3984375 292.96875 608.3984375 292.96875 592.28515625 289.55078125 c 128,-1,49
 576.171875 286.1328125 576.171875 286.1328125 557.6171875 286.1328125 c 0,50,51
 533.203125 286.1328125 533.203125 286.1328125 515.625 289.55078125 c 128,-1,52
 498.046875 292.96875 498.046875 292.96875 486.328125 298.828125 c 1,53,-1
 486.328125 0 l 1,54,-1
 420.8984375 0 l 1,55,-1
 420.8984375 247.0703125 l 1,56,-1
 154.296875 124.0234375 l 1,57,-1
 116.2109375 175.78125 l 1,58,-1
 369.140625 292.96875 l 1,59,-1
 297.8515625 364.2578125 l 1,60,61
 267.578125 392.578125 267.578125 392.578125 242.1875 407.71484375 c 128,-1,62
 216.796875 422.8515625 216.796875 422.8515625 200.1953125 422.8515625 c 0,63,64
 172.8515625 422.8515625 172.8515625 422.8515625 134.765625 405.76171875 c 128,-1,65
 96.6796875 388.671875 96.6796875 388.671875 50.78125 357.421875 c 1,66,-1
 11.71875 403.3203125 l 1,67,68
 66.40625 440.4296875 66.40625 440.4296875 114.2578125 460.9375 c 128,-1,69
 162.109375 481.4453125 162.109375 481.4453125 200.1953125 481.4453125 c 0,0,1
EndSplineSet
EndChar

StartChar: lvocalicdeva
Encoding: 316 2316 60
Width: 686
GlyphClass: 2
Flags: HMW
LayerCount: 3
Back
SplineSet
244.140625 0 m 1,0,1
 153.3203125 39.0625 153.3203125 39.0625 98.14453125 109.86328125 c 128,-1,2
 42.96875 180.6640625 42.96875 180.6640625 42.96875 259.765625 c 0,3,4
 42.96875 337.890625 42.96875 337.890625 90.33203125 393.06640625 c 128,-1,5
 137.6953125 448.2421875 137.6953125 448.2421875 205.078125 448.2421875 c 0,6,7
 240.234375 448.2421875 240.234375 448.2421875 274.90234375 427.734375 c 128,-1,8
 309.5703125 407.2265625 309.5703125 407.2265625 335.9375 371.09375 c 1,9,10
 355.46875 400.390625 355.46875 400.390625 383.7890625 420.41015625 c 128,-1,11
 412.109375 440.4296875 412.109375 440.4296875 446.2890625 448.2421875 c 1,12,-1
 446.2890625 591.796875 l 1,13,-1
 -12.6953125 591.796875 l 1,14,-1
 -12.6953125 650.390625 l 1,15,-1
 699.21875 650.390625 l 1,16,-1
 699.21875 591.796875 l 1,17,-1
 510.7421875 591.796875 l 1,18,-1
 510.7421875 448.2421875 l 1,19,20
 569.3359375 430.6640625 569.3359375 430.6640625 604.98046875 371.58203125 c 128,-1,21
 640.625 312.5 640.625 312.5 640.625 234.375 c 0,22,23
 640.625 164.0625 640.625 164.0625 600.5859375 109.375 c 128,-1,24
 560.546875 54.6875 560.546875 54.6875 498.046875 39.0625 c 0,25,26
 455.078125 28.3203125 455.078125 28.3203125 427.734375 -0.9765625 c 128,-1,27
 400.390625 -30.2734375 400.390625 -30.2734375 400.390625 -65.4296875 c 128,-1,28
 400.390625 -100.5859375 400.390625 -100.5859375 429.19921875 -125 c 128,-1,29
 458.0078125 -149.4140625 458.0078125 -149.4140625 498.046875 -149.4140625 c 0,30,31
 536.1328125 -149.4140625 536.1328125 -149.4140625 567.87109375 -141.11328125 c 128,-1,32
 599.609375 -132.8125 599.609375 -132.8125 622.0703125 -117.1875 c 1,33,-1
 640.625 -175.78125 l 1,34,35
 614.2578125 -195.3125 614.2578125 -195.3125 577.63671875 -205.078125 c 128,-1,36
 541.015625 -214.84375 541.015625 -214.84375 498.046875 -214.84375 c 0,37,38
 430.6640625 -214.84375 430.6640625 -214.84375 383.30078125 -170.8984375 c 128,-1,39
 335.9375 -126.953125 335.9375 -126.953125 335.9375 -65.4296875 c 0,40,41
 335.9375 -7.8125 335.9375 -7.8125 374.51171875 36.62109375 c 128,-1,42
 413.0859375 81.0546875 413.0859375 81.0546875 473.6328125 90.8203125 c 0,43,44
 517.578125 98.6328125 517.578125 98.6328125 546.875 139.16015625 c 128,-1,45
 576.171875 179.6875 576.171875 179.6875 576.171875 234.375 c 0,46,47
 576.171875 296.875 576.171875 296.875 543.45703125 340.33203125 c 128,-1,48
 510.7421875 383.7890625 510.7421875 383.7890625 465.8203125 383.7890625 c 0,49,50
 428.7109375 383.7890625 428.7109375 383.7890625 394.53125 334.47265625 c 128,-1,51
 360.3515625 285.15625 360.3515625 285.15625 341.796875 208.0078125 c 1,52,-1
 277.34375 227.5390625 l 1,53,54
 282.2265625 250.9765625 282.2265625 250.9765625 290.52734375 273.92578125 c 128,-1,55
 298.828125 296.875 298.828125 296.875 309.5703125 318.359375 c 1,56,57
 291.015625 348.6328125 291.015625 348.6328125 263.18359375 366.2109375 c 128,-1,58
 235.3515625 383.7890625 235.3515625 383.7890625 205.078125 383.7890625 c 0,59,60
 165.0390625 383.7890625 165.0390625 383.7890625 136.71875 347.16796875 c 128,-1,61
 108.3984375 310.546875 108.3984375 310.546875 108.3984375 259.765625 c 0,62,63
 108.3984375 196.2890625 108.3984375 196.2890625 152.34375 139.6484375 c 128,-1,64
 196.2890625 83.0078125 196.2890625 83.0078125 270.5078125 51.7578125 c 1,65,-1
 244.140625 0 l 1,0,1
EndSplineSet
EndChar

StartChar: ecandradeva
Encoding: 317 2317 61
Width: 478
GlyphClass: 2
Flags: HMW
LayerCount: 3
Back
SplineSet
242.1875 734.375 m 0,0,1
 169.921875 734.375 169.921875 734.375 114.74609375 784.1796875 c 128,-1,2
 59.5703125 833.984375 59.5703125 833.984375 46.875 910.15625 c 1,3,-1
 112.3046875 910.15625 l 1,4,5
 121.09375 857.421875 121.09375 857.421875 158.203125 822.265625 c 128,-1,6
 195.3125 787.109375 195.3125 787.109375 242.1875 787.109375 c 128,-1,7
 289.0625 787.109375 289.0625 787.109375 326.171875 822.265625 c 128,-1,8
 363.28125 857.421875 363.28125 857.421875 372.0703125 910.15625 c 1,9,-1
 436.5234375 910.15625 l 1,10,11
 423.828125 833.984375 423.828125 833.984375 368.65234375 784.1796875 c 128,-1,12
 313.4765625 734.375 313.4765625 734.375 242.1875 734.375 c 0,0,1
359.375 -124.0234375 m 1,13,-1
 306.640625 -78.125 l 1,14,15
 333.0078125 -74.21875 333.0078125 -74.21875 349.12109375 -61.03515625 c 128,-1,16
 365.234375 -47.8515625 365.234375 -47.8515625 365.234375 -32.2265625 c 0,17,18
 365.234375 -23.4375 365.234375 -23.4375 358.88671875 -11.71875 c 128,-1,19
 352.5390625 0 352.5390625 0 339.84375 12.6953125 c 2,20,-1
 98.6328125 234.375 l 1,21,22
 81.0546875 251.953125 81.0546875 251.953125 70.3125 270.99609375 c 128,-1,23
 59.5703125 290.0390625 59.5703125 290.0390625 59.5703125 305.6640625 c 2,24,-1
 59.5703125 591.796875 l 1,25,-1
 -12.6953125 591.796875 l 1,26,-1
 -12.6953125 650.390625 l 1,27,-1
 491.2109375 650.390625 l 1,28,-1
 491.2109375 591.796875 l 1,29,-1
 416.9921875 591.796875 l 1,30,-1
 416.9921875 396.484375 l 2,31,32
 416.9921875 345.703125 416.9921875 345.703125 394.04296875 308.10546875 c 128,-1,33
 371.09375 270.5078125 371.09375 270.5078125 333.0078125 259.765625 c 1,34,-1
 293.9453125 305.6640625 l 1,35,36
 317.3828125 312.5 317.3828125 312.5 331.54296875 339.84375 c 128,-1,37
 345.703125 367.1875 345.703125 367.1875 345.703125 403.3203125 c 2,38,-1
 345.703125 591.796875 l 1,39,-1
 130.859375 591.796875 l 1,40,-1
 130.859375 344.7265625 l 2,41,42
 130.859375 316.40625 130.859375 316.40625 137.6953125 294.921875 c 128,-1,43
 144.53125 273.4375 144.53125 273.4375 157.2265625 259.765625 c 1,44,-1
 384.765625 45.8984375 l 1,45,46
 409.1796875 24.4140625 409.1796875 24.4140625 422.8515625 4.39453125 c 128,-1,47
 436.5234375 -15.625 436.5234375 -15.625 436.5234375 -32.2265625 c 0,48,49
 436.5234375 -61.5234375 436.5234375 -61.5234375 415.0390625 -85.9375 c 128,-1,50
 393.5546875 -110.3515625 393.5546875 -110.3515625 359.375 -124.0234375 c 1,13,-1
EndSplineSet
EndChar

StartChar: eshortdeva
Encoding: 318 2318 62
Width: 478
GlyphClass: 2
Flags: HMW
LayerCount: 3
Back
SplineSet
215.8203125 785.15625 m 0,0,1
 144.53125 785.15625 144.53125 785.15625 89.35546875 834.47265625 c 128,-1,2
 34.1796875 883.7890625 34.1796875 883.7890625 20.5078125 960.9375 c 1,3,-1
 85.9375 960.9375 l 1,4,5
 94.7265625 907.2265625 94.7265625 907.2265625 131.8359375 872.0703125 c 128,-1,6
 168.9453125 836.9140625 168.9453125 836.9140625 215.8203125 836.9140625 c 0,7,8
 296.875 836.9140625 296.875 836.9140625 353.515625 781.25 c 1,9,10
 410.15625 727.5390625 410.15625 727.5390625 411.1328125 650.390625 c 1,11,-1
 491.2109375 650.390625 l 1,12,-1
 491.2109375 591.796875 l 1,13,-1
 416.9921875 591.796875 l 1,14,-1
 416.9921875 389.6484375 l 2,15,16
 416.9921875 341.796875 416.9921875 341.796875 394.04296875 306.15234375 c 128,-1,17
 371.09375 270.5078125 371.09375 270.5078125 333.0078125 259.765625 c 1,18,-1
 293.9453125 305.6640625 l 1,19,20
 317.3828125 312.5 317.3828125 312.5 331.54296875 339.84375 c 128,-1,21
 345.703125 367.1875 345.703125 367.1875 345.703125 403.3203125 c 2,22,-1
 345.703125 591.796875 l 1,23,-1
 130.859375 591.796875 l 1,24,-1
 130.859375 344.7265625 l 2,25,26
 130.859375 316.40625 130.859375 316.40625 137.6953125 294.921875 c 128,-1,27
 144.53125 273.4375 144.53125 273.4375 157.2265625 259.765625 c 1,28,-1
 384.765625 45.8984375 l 1,29,30
 409.1796875 24.4140625 409.1796875 24.4140625 422.8515625 4.39453125 c 128,-1,31
 436.5234375 -15.625 436.5234375 -15.625 436.5234375 -32.2265625 c 0,32,33
 436.5234375 -61.5234375 436.5234375 -61.5234375 415.0390625 -85.9375 c 128,-1,34
 393.5546875 -110.3515625 393.5546875 -110.3515625 359.375 -124.0234375 c 1,35,-1
 306.640625 -78.125 l 1,36,37
 333.0078125 -74.21875 333.0078125 -74.21875 349.12109375 -61.03515625 c 128,-1,38
 365.234375 -47.8515625 365.234375 -47.8515625 365.234375 -32.2265625 c 0,39,40
 365.234375 -23.4375 365.234375 -23.4375 358.88671875 -11.71875 c 128,-1,41
 352.5390625 0 352.5390625 0 339.84375 12.6953125 c 2,42,-1
 98.6328125 234.375 l 1,43,44
 81.0546875 251.953125 81.0546875 251.953125 70.3125 270.99609375 c 128,-1,45
 59.5703125 290.0390625 59.5703125 290.0390625 59.5703125 305.6640625 c 2,46,-1
 59.5703125 591.796875 l 1,47,-1
 -12.6953125 591.796875 l 1,48,-1
 -12.6953125 650.390625 l 1,49,-1
 345.703125 650.390625 l 1,50,51
 344.7265625 705.078125 344.7265625 705.078125 307.6171875 744.140625 c 0,52,53
 269.53125 785.15625 269.53125 785.15625 215.8203125 785.15625 c 0,0,1
EndSplineSet
EndChar

StartChar: edeva
Encoding: 319 2319 63
Width: 507
GlyphClass: 2
Flags: HMW
AnchorPoint: "DVAnchor3" 299 648 basechar 0
LayerCount: 3
Back
SplineSet
27.3046875 591.796875 m 1,0,-1
 27.3046875 650.390625 l 1,1,-1
 527.3046875 650.390625 l 1,2,-1
 527.3046875 591.796875 l 1,3,-1
 449.1796875 591.796875 l 1,4,-1
 449.1796875 401.3671875 l 2,5,6
 449.1796875 348.6328125 449.1796875 348.6328125 428.18359375 309.08203125 c 128,-1,7
 407.1875 269.53125 407.1875 269.53125 372.03125 259.765625 c 1,8,-1
 332.96875 305.6640625 l 1,9,10
 356.40625 312.5 356.40625 312.5 370.56640625 339.84375 c 128,-1,11
 384.7265625 367.1875 384.7265625 367.1875 384.7265625 403.3203125 c 2,12,-1
 384.7265625 591.796875 l 1,13,-1
 164.0234375 591.796875 l 1,14,-1
 164.0234375 344.7265625 l 2,15,16
 164.0234375 320.3125 164.0234375 320.3125 172.32421875 297.8515625 c 128,-1,17
 180.625 275.390625 180.625 275.390625 196.25 259.765625 c 2,18,-1
 423.7890625 45.8984375 l 1,19,20
 448.203125 24.4140625 448.203125 24.4140625 461.875 4.39453125 c 128,-1,21
 475.546875 -15.625 475.546875 -15.625 475.546875 -32.2265625 c 0,22,23
 475.546875 -61.5234375 475.546875 -61.5234375 454.0625 -85.9375 c 128,-1,24
 432.578125 -110.3515625 432.578125 -110.3515625 397.421875 -124.0234375 c 1,25,-1
 345.6640625 -78.125 l 1,26,27
 372.03125 -74.21875 372.03125 -74.21875 388.14453125 -61.03515625 c 128,-1,28
 404.2578125 -47.8515625 404.2578125 -47.8515625 404.2578125 -32.2265625 c 0,29,30
 404.2578125 -23.4375 404.2578125 -23.4375 397.91015625 -11.71875 c 128,-1,31
 391.5625 0 391.5625 0 377.890625 12.6953125 c 2,32,-1
 137.65625 234.375 l 2,33,34
 119.1015625 251.953125 119.1015625 251.953125 108.84765625 280.76171875 c 128,-1,35
 98.59375 309.5703125 98.59375 309.5703125 98.59375 341.796875 c 2,36,-1
 98.59375 591.796875 l 1,37,-1
 27.3046875 591.796875 l 1,0,-1
EndSplineSet
Fore
SplineSet
-15 579 m 1
 522 579 l 1
 522 524 l 1
 403 524 l 1
 403 322 l 2
 403 296.666992188 394.333007812 275.333007812 377 258 c 0
 359.666992188 240.666992188 338.333007812 232 313 232 c 1
 313 287 l 1
 321.666992188 287 329.666992188 290.666992188 337 298 c 0
 344.333007812 305.333007812 348 313.333007812 348 322 c 2
 348 524 l 1
 183 524 l 1
 183 329.83984375 l 2
 183 309.946289062 184.147460938 293.764648438 186.442382812 281.293945312 c 0
 188.814453125 268.431640625 194.223632812 255.836914062 202.669921875 243.51171875 c 0
 210.889648438 231.170898438 218.932617188 221.157226562 226.797851562 213.471679688 c 0
 232.862304688 207.26171875 246.331054688 194.770507812 267.203125 176 c 2
 420.373046875 38.2529296875 l 2
 437.458007812 22.7509765625 446.060546874 1.8193359375 446.203125 -24.5419921875 c 0
 446.060546874 -24.84765625 446.067382812 -25.271484375 446.203125 -25.8154296875 c 0
 446.067382812 -50.60546875 436.766601562 -71.669921875 418.30078125 -89.0087890625 c 0
 401.43359375 -105.669921875 380.284179688 -113.931640625 354.853515625 -113.795898438 c 1
 354.853515625 -59.2802734375 l 1
 364.951171875 -59.09375 373.231445312 -55.8876953125 379.6953125 -49.662109375 c 0
 385.8984375 -43.220703125 389.213867188 -34.96484375 389.642578125 -24.89453125 c 1
 389.880859375 -24.96484375 389.877929687 -24.76953125 389.642578125 -24.3076171875 c 0
 389.874999999 -13.5771484375 386.948242188 -5.474609375 380.853515625 0 c 2
 229.796875 135.6796875 l 2
 206.90234375 156.243164062 189.762695312 172.458007812 178.375976562 184.325195312 c 0
 167.458984375 196.108398438 157.478515625 209.50390625 148.434570312 224.512695312 c 0
 139.478515625 239.50390625 133.892578125 254.697265625 131.677734375 270.091796875 c 0
 129.225585938 285.364257812 128 305.280273438 128 329.83984375 c 2
 128 524 l 1
 -15 524 l 1
 -15 579 l 1
EndSplineSet
EndChar

StartChar: aideva
Encoding: 320 2320 64
Width: 479
GlyphClass: 2
Flags: HMW
LayerCount: 3
Back
SplineSet
-12.6953125 591.796875 m 1,0,-1
 -12.6953125 650.390625 l 1,1,-1
 343.75 650.390625 l 1,2,-1
 148.4375 871.09375 l 1,3,-1
 207.03125 922.8515625 l 1,4,-1
 416.015625 650.390625 l 1,5,-1
 493.1640625 650.390625 l 1,6,-1
 493.1640625 591.796875 l 1,7,-1
 420.8984375 591.796875 l 1,8,-1
 420.8984375 403.3203125 l 2,9,10
 420.8984375 360.3515625 420.8984375 360.3515625 398.92578125 320.80078125 c 128,-1,11
 376.953125 281.25 376.953125 281.25 336.9140625 253.90625 c 1,12,-1
 297.8515625 305.6640625 l 1,13,14
 325.1953125 329.1015625 325.1953125 329.1015625 340.8203125 354.98046875 c 128,-1,15
 356.4453125 380.859375 356.4453125 380.859375 356.4453125 405.2734375 c 2,16,-1
 356.4453125 591.796875 l 1,17,-1
 122.0703125 591.796875 l 1,18,-1
 122.0703125 332.03125 l 2,19,20
 122.0703125 316.40625 122.0703125 316.40625 135.7421875 293.9453125 c 128,-1,21
 149.4140625 271.484375 149.4140625 271.484375 173.828125 247.0703125 c 1,22,-1
 388.671875 45.8984375 l 1,23,24
 411.1328125 23.4375 411.1328125 23.4375 422.8515625 3.41796875 c 128,-1,25
 434.5703125 -16.6015625 434.5703125 -16.6015625 434.5703125 -32.2265625 c 0,26,27
 434.5703125 -61.5234375 434.5703125 -61.5234375 413.0859375 -85.9375 c 128,-1,28
 391.6015625 -110.3515625 391.6015625 -110.3515625 356.4453125 -124.0234375 c 1,29,-1
 304.6875 -78.125 l 1,30,31
 332.03125 -73.2421875 332.03125 -73.2421875 349.609375 -60.546875 c 128,-1,32
 367.1875 -47.8515625 367.1875 -47.8515625 367.1875 -32.2265625 c 0,33,34
 367.1875 -22.4609375 367.1875 -22.4609375 357.421875 -6.8359375 c 128,-1,35
 347.65625 8.7890625 347.65625 8.7890625 330.078125 26.3671875 c 2,36,-1
 116.2109375 227.5390625 l 1,37,38
 88.8671875 250.9765625 88.8671875 250.9765625 73.2421875 278.3203125 c 128,-1,39
 57.6171875 305.6640625 57.6171875 305.6640625 57.6171875 333.0078125 c 2,40,-1
 57.6171875 591.796875 l 1,41,-1
 -12.6953125 591.796875 l 1,0,-1
EndSplineSet
EndChar

StartChar: ocandradeva
Encoding: 321 2321 65
Width: 1017
GlyphClass: 2
Flags: HMW
LayerCount: 3
Back
SplineSet
706.0546875 728.515625 m 128,-1,1
 635.7421875 728.515625 635.7421875 728.515625 580.56640625 779.78515625 c 128,-1,2
 525.390625 831.0546875 525.390625 831.0546875 510.7421875 910.15625 c 1,3,-1
 576.171875 910.15625 l 1,4,5
 584.9609375 857.421875 584.9609375 857.421875 622.0703125 822.265625 c 128,-1,6
 659.1796875 787.109375 659.1796875 787.109375 706.0546875 787.109375 c 128,-1,7
 752.9296875 787.109375 752.9296875 787.109375 790.0390625 822.265625 c 128,-1,8
 827.1484375 857.421875 827.1484375 857.421875 835.9375 910.15625 c 1,9,-1
 901.3671875 910.15625 l 1,10,11
 886.71875 831.0546875 886.71875 831.0546875 831.54296875 779.78515625 c 128,-1,0
 776.3671875 728.515625 776.3671875 728.515625 706.0546875 728.515625 c 128,-1,1
302.734375 45.8984375 m 0,12,13
 224.609375 45.8984375 224.609375 45.8984375 151.3671875 110.83984375 c 128,-1,14
 78.125 175.78125 78.125 175.78125 23.4375 292.96875 c 1,15,-1
 69.3359375 332.03125 l 1,16,17
 118.1640625 226.5625 118.1640625 226.5625 179.19921875 168.45703125 c 128,-1,18
 240.234375 110.3515625 240.234375 110.3515625 302.734375 110.3515625 c 0,19,20
 343.75 110.3515625 343.75 110.3515625 372.0703125 145.01953125 c 128,-1,21
 400.390625 179.6875 400.390625 179.6875 400.390625 227.5390625 c 0,22,23
 400.390625 273.4375 400.390625 273.4375 368.1640625 305.6640625 c 128,-1,24
 335.9375 337.890625 335.9375 337.890625 290.0390625 337.890625 c 0,25,26
 275.390625 337.890625 275.390625 337.890625 259.27734375 334.9609375 c 128,-1,27
 243.1640625 332.03125 243.1640625 332.03125 224.609375 325.1953125 c 1,28,-1
 199.21875 383.7890625 l 1,29,30
 257.8125 388.671875 257.8125 388.671875 303.22265625 424.31640625 c 128,-1,31
 348.6328125 459.9609375 348.6328125 459.9609375 348.6328125 500.9765625 c 0,32,33
 348.6328125 536.1328125 348.6328125 536.1328125 321.77734375 560.546875 c 128,-1,34
 294.921875 584.9609375 294.921875 584.9609375 257.8125 584.9609375 c 0,35,36
 223.6328125 584.9609375 223.6328125 584.9609375 186.03515625 562.98828125 c 128,-1,37
 148.4375 541.015625 148.4375 541.015625 114.2578125 500.9765625 c 1,38,-1
 69.3359375 545.8984375 l 1,39,40
 102.5390625 595.703125 102.5390625 595.703125 152.83203125 623.046875 c 128,-1,41
 203.125 650.390625 203.125 650.390625 257.8125 650.390625 c 0,42,43
 322.265625 650.390625 322.265625 650.390625 367.67578125 606.93359375 c 128,-1,44
 413.0859375 563.4765625 413.0859375 563.4765625 413.0859375 500.9765625 c 0,45,46
 413.0859375 467.7734375 413.0859375 467.7734375 397.4609375 437.5 c 128,-1,47
 381.8359375 407.2265625 381.8359375 407.2265625 355.46875 383.7890625 c 1,48,49
 399.4140625 357.421875 399.4140625 357.421875 440.91796875 344.7265625 c 128,-1,50
 482.421875 332.03125 482.421875 332.03125 517.578125 332.03125 c 0,51,52
 530.2734375 332.03125 530.2734375 332.03125 548.828125 338.37890625 c 128,-1,53
 567.3828125 344.7265625 567.3828125 344.7265625 588.8671875 357.421875 c 1,54,-1
 588.8671875 591.796875 l 1,55,-1
 471.6796875 591.796875 l 1,56,-1
 471.6796875 650.390625 l 1,57,-1
 1031.25 650.390625 l 1,58,-1
 1031.25 591.796875 l 1,59,-1
 920.8984375 591.796875 l 1,60,-1
 920.8984375 0 l 1,61,-1
 855.46875 0 l 1,62,-1
 855.46875 591.796875 l 1,63,-1
 654.296875 591.796875 l 1,64,-1
 654.296875 0 l 1,65,-1
 588.8671875 0 l 1,66,-1
 588.8671875 292.96875 l 1,67,68
 573.2421875 279.296875 573.2421875 279.296875 555.17578125 272.94921875 c 128,-1,69
 537.109375 266.6015625 537.109375 266.6015625 517.578125 266.6015625 c 0,70,71
 493.1640625 266.6015625 493.1640625 266.6015625 472.65625 271.97265625 c 128,-1,72
 452.1484375 277.34375 452.1484375 277.34375 439.453125 286.1328125 c 1,73,74
 452.1484375 273.4375 452.1484375 273.4375 458.984375 256.34765625 c 128,-1,75
 465.8203125 239.2578125 465.8203125 239.2578125 465.8203125 220.703125 c 0,76,77
 465.8203125 148.4375 465.8203125 148.4375 418.45703125 97.16796875 c 128,-1,78
 371.09375 45.8984375 371.09375 45.8984375 302.734375 45.8984375 c 0,12,13
EndSplineSet
EndChar

StartChar: oshortdeva
Encoding: 322 2322 66
Width: 1017
GlyphClass: 2
Flags: HMW
LayerCount: 3
Back
SplineSet
725.5859375 787.109375 m 0,0,1
 654.296875 787.109375 654.296875 787.109375 599.12109375 836.42578125 c 128,-1,2
 543.9453125 885.7421875 543.9453125 885.7421875 530.2734375 962.890625 c 1,3,-1
 595.703125 962.890625 l 1,4,5
 604.4921875 909.1796875 604.4921875 909.1796875 641.6015625 874.0234375 c 128,-1,6
 678.7109375 838.8671875 678.7109375 838.8671875 725.5859375 838.8671875 c 0,7,8
 806.640625 838.8671875 806.640625 838.8671875 863.76953125 783.69140625 c 128,-1,9
 920.8984375 728.515625 920.8984375 728.515625 920.8984375 650.390625 c 1,10,-1
 1031.25 650.390625 l 1,11,-1
 1031.25 591.796875 l 1,12,-1
 920.8984375 591.796875 l 1,13,-1
 920.8984375 0 l 1,14,-1
 855.46875 0 l 1,15,-1
 855.46875 591.796875 l 1,16,-1
 654.296875 591.796875 l 1,17,-1
 654.296875 0 l 1,18,-1
 588.8671875 0 l 1,19,-1
 588.8671875 292.96875 l 1,20,21
 573.2421875 279.296875 573.2421875 279.296875 557.12890625 272.94921875 c 128,-1,22
 541.015625 266.6015625 541.015625 266.6015625 524.4140625 266.6015625 c 0,23,24
 497.0703125 266.6015625 497.0703125 266.6015625 474.609375 271.97265625 c 128,-1,25
 452.1484375 277.34375 452.1484375 277.34375 439.453125 286.1328125 c 1,26,27
 452.1484375 275.390625 452.1484375 275.390625 458.984375 256.8359375 c 128,-1,28
 465.8203125 238.28125 465.8203125 238.28125 465.8203125 214.84375 c 0,29,30
 465.8203125 144.53125 465.8203125 144.53125 418.45703125 95.21484375 c 128,-1,31
 371.09375 45.8984375 371.09375 45.8984375 302.734375 45.8984375 c 0,32,33
 224.609375 45.8984375 224.609375 45.8984375 151.3671875 110.83984375 c 128,-1,34
 78.125 175.78125 78.125 175.78125 23.4375 292.96875 c 1,35,-1
 69.3359375 332.03125 l 1,36,37
 118.1640625 226.5625 118.1640625 226.5625 179.19921875 168.45703125 c 128,-1,38
 240.234375 110.3515625 240.234375 110.3515625 302.734375 110.3515625 c 0,39,40
 343.75 110.3515625 343.75 110.3515625 372.0703125 145.01953125 c 128,-1,41
 400.390625 179.6875 400.390625 179.6875 400.390625 227.5390625 c 0,42,43
 400.390625 273.4375 400.390625 273.4375 368.1640625 305.6640625 c 128,-1,44
 335.9375 337.890625 335.9375 337.890625 290.0390625 337.890625 c 0,45,46
 275.390625 337.890625 275.390625 337.890625 259.27734375 334.9609375 c 128,-1,47
 243.1640625 332.03125 243.1640625 332.03125 224.609375 325.1953125 c 1,48,-1
 199.21875 383.7890625 l 1,49,50
 257.8125 388.671875 257.8125 388.671875 303.22265625 426.26953125 c 128,-1,51
 348.6328125 463.8671875 348.6328125 463.8671875 348.6328125 506.8359375 c 0,52,53
 348.6328125 541.9921875 348.6328125 541.9921875 321.77734375 566.89453125 c 128,-1,54
 294.921875 591.796875 294.921875 591.796875 257.8125 591.796875 c 0,55,56
 226.5625 591.796875 226.5625 591.796875 188.4765625 567.87109375 c 128,-1,57
 150.390625 543.9453125 150.390625 543.9453125 114.2578125 500.9765625 c 1,58,-1
 69.3359375 545.8984375 l 1,59,60
 105.46875 598.6328125 105.46875 598.6328125 155.2734375 627.44140625 c 128,-1,61
 205.078125 656.25 205.078125 656.25 257.8125 656.25 c 0,62,63
 322.265625 656.25 322.265625 656.25 367.67578125 612.79296875 c 128,-1,64
 413.0859375 569.3359375 413.0859375 569.3359375 413.0859375 506.8359375 c 0,65,66
 413.0859375 471.6796875 413.0859375 471.6796875 397.4609375 439.453125 c 128,-1,67
 381.8359375 407.2265625 381.8359375 407.2265625 355.46875 383.7890625 c 1,68,69
 404.296875 355.46875 404.296875 355.46875 445.80078125 340.33203125 c 128,-1,70
 487.3046875 325.1953125 487.3046875 325.1953125 517.578125 325.1953125 c 0,71,72
 526.3671875 325.1953125 526.3671875 325.1953125 542.96875 333.0078125 c 128,-1,73
 559.5703125 340.8203125 559.5703125 340.8203125 588.8671875 357.421875 c 1,74,-1
 588.8671875 591.796875 l 1,75,-1
 471.6796875 591.796875 l 1,76,-1
 471.6796875 650.390625 l 1,77,-1
 855.46875 650.390625 l 1,78,79
 855.46875 706.0546875 855.46875 706.0546875 817.3828125 746.58203125 c 128,-1,80
 779.296875 787.109375 779.296875 787.109375 725.5859375 787.109375 c 0,0,1
EndSplineSet
EndChar

StartChar: odeva
Encoding: 323 2323 67
Width: 1017
GlyphClass: 2
Flags: HMW
LayerCount: 3
Back
SplineSet
302.734375 45.8984375 m 0,0,1
 224.609375 45.8984375 224.609375 45.8984375 151.3671875 110.83984375 c 128,-1,2
 78.125 175.78125 78.125 175.78125 23.4375 292.96875 c 1,3,-1
 69.3359375 332.03125 l 1,4,5
 118.1640625 226.5625 118.1640625 226.5625 179.19921875 168.45703125 c 128,-1,6
 240.234375 110.3515625 240.234375 110.3515625 302.734375 110.3515625 c 0,7,8
 343.75 110.3515625 343.75 110.3515625 372.0703125 141.11328125 c 128,-1,9
 400.390625 171.875 400.390625 171.875 400.390625 214.84375 c 0,10,11
 400.390625 265.625 400.390625 265.625 368.1640625 301.7578125 c 128,-1,12
 335.9375 337.890625 335.9375 337.890625 290.0390625 337.890625 c 0,13,14
 275.390625 337.890625 275.390625 337.890625 259.27734375 334.9609375 c 128,-1,15
 243.1640625 332.03125 243.1640625 332.03125 224.609375 325.1953125 c 1,16,-1
 199.21875 383.7890625 l 1,17,18
 257.8125 388.671875 257.8125 388.671875 303.22265625 426.26953125 c 128,-1,19
 348.6328125 463.8671875 348.6328125 463.8671875 348.6328125 506.8359375 c 0,20,21
 348.6328125 541.9921875 348.6328125 541.9921875 321.77734375 566.89453125 c 128,-1,22
 294.921875 591.796875 294.921875 591.796875 257.8125 591.796875 c 0,23,24
 226.5625 591.796875 226.5625 591.796875 188.4765625 567.87109375 c 128,-1,25
 150.390625 543.9453125 150.390625 543.9453125 114.2578125 500.9765625 c 1,26,-1
 69.3359375 545.8984375 l 1,27,28
 105.46875 598.6328125 105.46875 598.6328125 155.2734375 627.44140625 c 128,-1,29
 205.078125 656.25 205.078125 656.25 257.8125 656.25 c 0,30,31
 322.265625 656.25 322.265625 656.25 367.67578125 612.79296875 c 128,-1,32
 413.0859375 569.3359375 413.0859375 569.3359375 413.0859375 506.8359375 c 0,33,34
 413.0859375 471.6796875 413.0859375 471.6796875 397.4609375 439.453125 c 128,-1,35
 381.8359375 407.2265625 381.8359375 407.2265625 355.46875 383.7890625 c 1,36,37
 404.296875 355.46875 404.296875 355.46875 443.84765625 340.33203125 c 128,-1,38
 483.3984375 325.1953125 483.3984375 325.1953125 510.7421875 325.1953125 c 0,39,40
 526.3671875 325.1953125 526.3671875 325.1953125 546.875 333.49609375 c 128,-1,41
 567.3828125 341.796875 567.3828125 341.796875 588.8671875 357.421875 c 1,42,-1
 588.8671875 591.796875 l 1,43,-1
 471.6796875 591.796875 l 1,44,-1
 471.6796875 650.390625 l 1,45,-1
 850.5859375 650.390625 l 1,46,-1
 615.234375 936.5234375 l 1,47,-1
 660.15625 975.5859375 l 1,48,-1
 915.0390625 650.390625 l 1,49,-1
 1031.25 650.390625 l 1,50,-1
 1031.25 591.796875 l 1,51,-1
 920.8984375 591.796875 l 1,52,-1
 920.8984375 0 l 1,53,-1
 855.46875 0 l 1,54,-1
 855.46875 591.796875 l 1,55,-1
 654.296875 591.796875 l 1,56,-1
 654.296875 0 l 1,57,-1
 588.8671875 0 l 1,58,-1
 588.8671875 292.96875 l 1,59,60
 573.2421875 279.296875 573.2421875 279.296875 557.12890625 272.94921875 c 128,-1,61
 541.015625 266.6015625 541.015625 266.6015625 524.4140625 266.6015625 c 0,62,63
 497.0703125 266.6015625 497.0703125 266.6015625 474.609375 271.97265625 c 128,-1,64
 452.1484375 277.34375 452.1484375 277.34375 439.453125 286.1328125 c 1,65,66
 452.1484375 275.390625 452.1484375 275.390625 458.984375 256.8359375 c 128,-1,67
 465.8203125 238.28125 465.8203125 238.28125 465.8203125 214.84375 c 0,68,69
 465.8203125 144.53125 465.8203125 144.53125 418.45703125 95.21484375 c 128,-1,70
 371.09375 45.8984375 371.09375 45.8984375 302.734375 45.8984375 c 0,0,1
EndSplineSet
EndChar

StartChar: audeva
Encoding: 324 2324 68
Width: 1017
GlyphClass: 2
Flags: HMW
LayerCount: 3
Back
SplineSet
302.734375 45.8984375 m 0,0,1
 224.609375 45.8984375 224.609375 45.8984375 151.3671875 110.83984375 c 128,-1,2
 78.125 175.78125 78.125 175.78125 23.4375 292.96875 c 1,3,-1
 69.3359375 332.03125 l 1,4,5
 118.1640625 226.5625 118.1640625 226.5625 179.19921875 168.45703125 c 128,-1,6
 240.234375 110.3515625 240.234375 110.3515625 302.734375 110.3515625 c 0,7,8
 343.75 110.3515625 343.75 110.3515625 372.0703125 141.11328125 c 128,-1,9
 400.390625 171.875 400.390625 171.875 400.390625 214.84375 c 0,10,11
 400.390625 265.625 400.390625 265.625 368.1640625 301.7578125 c 128,-1,12
 335.9375 337.890625 335.9375 337.890625 290.0390625 337.890625 c 0,13,14
 275.390625 337.890625 275.390625 337.890625 259.27734375 334.9609375 c 128,-1,15
 243.1640625 332.03125 243.1640625 332.03125 224.609375 325.1953125 c 1,16,-1
 199.21875 383.7890625 l 1,17,18
 257.8125 388.671875 257.8125 388.671875 303.22265625 424.31640625 c 128,-1,19
 348.6328125 459.9609375 348.6328125 459.9609375 348.6328125 500.9765625 c 0,20,21
 348.6328125 538.0859375 348.6328125 538.0859375 317.87109375 564.94140625 c 128,-1,22
 287.109375 591.796875 287.109375 591.796875 244.140625 591.796875 c 0,23,24
 214.84375 591.796875 214.84375 591.796875 181.640625 569.82421875 c 128,-1,25
 148.4375 547.8515625 148.4375 547.8515625 121.09375 506.8359375 c 1,26,-1
 69.3359375 545.8984375 l 1,27,28
 105.46875 598.6328125 105.46875 598.6328125 152.34375 627.44140625 c 128,-1,29
 199.21875 656.25 199.21875 656.25 244.140625 656.25 c 0,30,31
 314.453125 656.25 314.453125 656.25 363.76953125 610.83984375 c 128,-1,32
 413.0859375 565.4296875 413.0859375 565.4296875 413.0859375 500.9765625 c 0,33,34
 413.0859375 467.7734375 413.0859375 467.7734375 397.4609375 437.5 c 128,-1,35
 381.8359375 407.2265625 381.8359375 407.2265625 355.46875 383.7890625 c 1,36,37
 404.296875 355.46875 404.296875 355.46875 445.80078125 340.33203125 c 128,-1,38
 487.3046875 325.1953125 487.3046875 325.1953125 517.578125 325.1953125 c 0,39,40
 526.3671875 325.1953125 526.3671875 325.1953125 542.96875 333.0078125 c 128,-1,41
 559.5703125 340.8203125 559.5703125 340.8203125 588.8671875 357.421875 c 1,42,-1
 588.8671875 591.796875 l 1,43,-1
 471.6796875 591.796875 l 1,44,-1
 471.6796875 650.390625 l 1,45,-1
 826.171875 650.390625 l 1,46,-1
 556.640625 826.171875 l 1,47,-1
 595.703125 883.7890625 l 1,48,-1
 881.8359375 656.25 l 1,49,-1
 745.1171875 936.5234375 l 1,50,-1
 810.546875 975.5859375 l 1,51,-1
 917.96875 650.390625 l 1,52,-1
 1031.25 650.390625 l 1,53,-1
 1031.25 591.796875 l 1,54,-1
 920.8984375 591.796875 l 1,55,-1
 920.8984375 0 l 1,56,-1
 855.46875 0 l 1,57,-1
 855.46875 591.796875 l 1,58,-1
 654.296875 591.796875 l 1,59,-1
 654.296875 0 l 1,60,-1
 588.8671875 0 l 1,61,-1
 588.8671875 292.96875 l 1,62,63
 573.2421875 279.296875 573.2421875 279.296875 557.12890625 272.94921875 c 128,-1,64
 541.015625 266.6015625 541.015625 266.6015625 524.4140625 266.6015625 c 0,65,66
 497.0703125 266.6015625 497.0703125 266.6015625 474.609375 271.97265625 c 128,-1,67
 452.1484375 277.34375 452.1484375 277.34375 439.453125 286.1328125 c 1,68,69
 452.1484375 275.390625 452.1484375 275.390625 458.984375 256.8359375 c 128,-1,70
 465.8203125 238.28125 465.8203125 238.28125 465.8203125 214.84375 c 0,71,72
 465.8203125 144.53125 465.8203125 144.53125 418.45703125 95.21484375 c 128,-1,73
 371.09375 45.8984375 371.09375 45.8984375 302.734375 45.8984375 c 0,0,1
EndSplineSet
EndChar

StartChar: kadeva
Encoding: 325 2325 69
Width: 789
GlyphClass: 2
Flags: HMW
AnchorPoint: "DVAnchor3" 412 648 basechar 0
AnchorPoint: "DVAnchor0" 411 22 basechar 0
LayerCount: 3
Back
SplineSet
432 369.809570312 m 1,0,0
 433.203125 371.6484375 433.203125 371.6484375 434.364257812 350.545898438 c 128,-1,1
 435.525390625 329.442382812 435.525390625 329.442382812 436.674804688 308.323242188 c 128,-1,2
 437.825195312 287.203125 437.825195312 287.203125 439 289 c 0,3,4
 467 331 467 331 496 354 c 0,5,6
 533 381 533 381 569 381 c 0,7,8
 609 381 609 381 639 353 c 0,9,10
 668 325 668 325 673 283 c 1,11,-1
 673 273 l 2,12,13
 673 239 673 239 654 212 c 0,14,15
 640 193 640 193 619 184 c 0,16,17
 604 177 604 177 584 177 c 2,18,-1
 575 177 l 1,19,-1
 569 123 l 1,20,21
 574 122 574 122 584 122 c 0,22,23
 614 122 614 122 641 134 c 0,24,25
 675.5 149 675.5 149 698 179 c 0,26,27
 728 220 728 220 728 273 c 0,28,29
 728 284 728 284 727 289 c 0,30,31
 721 351 721 351 676 393 c 0,32,33
 630 436 630 436 568 436 c 0,34,35
 513 436 513 436 463 398 c 0,36,37
 446.6015625 385.427734375 446.6015625 385.427734375 432 369.809570312 c 1,0,0
409.60546875 264 m 1,0,0
 417.579101562 276.75390625 417.579101562 276.75390625 399.107421875 327.90625 c 1,1,-1
 393.198242188 339.430664062 l 1,2,3
 351 250 351 250 326 224 c 0,4,5
 308 204 308 204 285 192 c 0,6,7
 259 178 259 178 238 177 c 2,8,-1
 229 177 l 2,9,10
 191 177 191 177 160 203 c 0,11,12
 126 232 126 232 126 276 c 0,13,14
 126 315 126 315 155 346 c 0,15,16
 184 378 184 378 224 381 c 2,17,-1
 228 381 l 2,18,19
 251 381 251 381 267 368 c 0,20,21
 277 359 277 359 281 351 c 128,-1,22
 285 343 285 343 285 332 c 2,23,-1
 285 329 l 1,24,-1
 339 325 l 2,25,26
 339 326 339 326 339.5 328 c 128,-1,27
 340 330 340 330 340 332 c 0,28,29
 340 354 340 354 331 373 c 0,30,31
 319 398 319 398 301 412 c 0,32,33
 271 436 271 436 228 436 c 0,34,35
 226 436 226 436 224 435.5 c 128,-1,36
 222 435 222 435 220 435 c 0,37,38
 159 432 159 432 114 384 c 0,39,40
 71 338 71 338 71 276 c 0,41,42
 71 207 71 207 124 161 c 0,43,44
 168 122 168 122 229 122 c 0,45,46
 232 122 232 122 237 122.5 c 128,-1,47
 242 123 242 123 244 123 c 0,48,49
 277 126 277 126 312 144 c 0,50,51
 339 158 339 158 366 187 c 0,52,53
 373.625 195.1328125 373.625 195.1328125 384.526367188 214.3828125 c 128,-1,54
 395.427734375 233.6328125 395.427734375 233.6328125 402.516601562 248.81640625 c 2,55,-1
 409.60546875 264 l 1,0,0
443 82 m 1,0,1
 443 68 443 68 453 58 c 128,-1,2
 463 48 463 48 477 48 c 0,3,4
 497 48 497 48 506 63 c 1,5,-1
 552 32 l 1,6,7
 525 -7 525 -7 477 -7 c 0,8,9
 440 -7 440 -7 414 19 c 128,-1,10
 388 45 388 45 388 82 c 1,11,-1
 443 82 l 1,0,1
EndSplineSet
Fore
SplineSet
581 122 m 1
 581 177 l 1
 637.346679688 177 673 218.560546875 673 273 c 0
 673 331.8828125 627.20703125 381 569 381 c 0
 514.382097271 381 470.633253267 341.466147934 443 303.579059105 c 1
 443 82 l 2
 443 72.6669921875 446.333007812 64.6669921875 453 58 c 0
 459.666992188 51.3330078125 467.666992188 48 477 48 c 0
 490.333007812 48 500 53 506 63 c 1
 552 32 l 1
 534 6 509 -7 477 -7 c 0
 452.333007812 -7 431.333007812 1.6669921875 414 19 c 0
 396.666992188 36.3330078125 388 57.3330078125 388 82 c 2
 388 195 l 1
 388 219.525890865 l 1
 360.550287959 174.620349299 307.15268612 122 229 122 c 0
 143.348632812 122 71 191.110351562 71 276 c 0
 71 360.9765625 142.75 436 228 436 c 0
 253 436 280 429 301 412 c 0
 314 402 324 388 331 373 c 0
 337 360 340 346 340 332 c 0
 340 307.333007812 331.333007812 286.333007812 314 269 c 0
 296.666992188 251.666992188 275.666992188 243 251 243 c 0
 219 243 194 256 176 282 c 1
 222 313 l 1
 228 303 237.666992188 298 251 298 c 0
 260.333007812 298 268.333007812 301.333007812 275 308 c 0
 281.666992188 314.666992188 285 322.666992188 285 332 c 0
 285 338 284 345 281 351 c 0
 278 358 273 363 267 368 c 0
 257 376 243 381 228 381 c 0
 174.999023438 381 126 329.26171875 126 276 c 0
 126 222.018554688 173.994140625 177 229 177 c 0
 318.329766821 177 372.084261308 280.305117736 388 336.393702918 c 1
 388 524 l 1
 -15 524 l 1
 -15 579 l 1
 804 579 l 1
 804 524 l 1
 443 524 l 1
 443 380.863937573 l 1
 474.202359707 410.318582978 517.64009433 436 568 436 c 0
 656.86328125 436 728 361.80078125 728 273 c 0
 728 188.65625 668.849609375 122 581 122 c 1
432.132277859 369.950949717 m 1
 432.088153479 369.903825988 432.044060785 369.856699555 432 369.809570312 c 1
 432.045468566 369.879082384 432.089546572 369.925971151 432.132277859 369.950949717 c 1
EndSplineSet
Layer: 2
SplineSet
572 150 m 4
 573.327148438 149.856445312 574.659179688 149.737304688 575.994140625 149.641601562 c 128
 577.329101562 149.546875 578.6640625 149.474609375 579.999023438 149.427734375 c 128
 581.333007812 149.379882812 582.669921875 149.356445312 584.0078125 149.356445312 c 0
 587.954101562 149.356445312 591.897460938 149.587890625 595.838867188 150 c 128
 599.780273438 150.412109375 603.681640625 150.999023438 607.541015625 151.811523438 c 128
 611.400390625 152.623046875 615.217773438 153.63671875 618.994140625 154.8515625 c 128
 622.770507812 156.065429688 626.459960938 157.470703125 630.063476562 159.06640625 c 0
 648.45703125 167.209960938 663.756835938 179.458984375 675.962890625 195.8125 c 0
 692.43359375 217.880859375 700.668945312 243.478515625 700.668945312 272.603515625 c 0
 700.668945312 274.84375 700.61328125 277.081054688 700.501953125 279.315429688 c 128
 700.389648438 281.549804688 700.22265625 283.778320312 700 286 c 0
 696.540039062 320.475585938 682.396484375 349.389648438 657.568359375 372.744140625 c 0
 649.693359375 380.15234375 640.956054688 386.49609375 631.357421875 391.775390625 c 128
 621.758789062 397.055664062 611.65234375 401.080078125 601.0390625 403.849609375 c 128
 590.42578125 406.619140625 579.723632812 408 568.93359375 408 c 0
 568.622070312 408 568.311523438 408 568 408 c 0
 536.680664062 407.76171875 507.08984375 397.024414062 479.225585938 375.787109375 c 0
 458.501953125 359.9921875 437.426757812 336.0625 416 304 c 0
 412.912109375 299.379882812 409.24609375 293.775390625 405.002929688 287.1875 c 128
 400.758789062 280.598632812 397.065429688 274.841796875 393.922851562 269.9140625 c 128
 390.780273438 264.987304688 387.125976562 259.42578125 382.961914062 253.23046875 c 128
 378.796875 247.034179688 374.90234375 241.435546875 371.278320312 236.43359375 c 128
 367.655273438 231.431640625 363.610351562 226.18359375 359.145507812 220.689453125 c 128
 354.680664062 215.1953125 350.228515625 210.103515625 345.790039062 205.4140625 c 0
 338.586914062 197.803710938 331.036132812 190.845703125 323.137695312 184.5390625 c 128
 315.240234375 178.232421875 307.001953125 172.717773438 298.423828125 167.995117188 c 0
 279.927734375 157.811523438 260.787109375 151.813476562 241 150 c 0
 239.049804688 149.821289062 237.09375 149.6875 235.133789062 149.598632812 c 128
 233.172851562 149.509765625 231.208984375 149.46484375 229.243164062 149.46484375 c 0
 213.30078125 149.46484375 197.736328125 152.280273438 182.551757812 157.91015625 c 128
 167.3671875 163.541015625 153.849609375 171.5703125 142 182 c 0
 113.321289062 207.241210938 98.9814453125 238.603515625 98.9814453125 276.087890625 c 0
 98.9814453125 286.838867188 100.403320312 297.540039062 103.247070312 308.19140625 c 128
 106.091796875 318.841796875 110.16015625 328.951171875 115.453125 338.517578125 c 128
 120.74609375 348.083984375 127.083984375 356.8671875 134.465820312 364.868164062 c 0
 159.137695312 391.60546875 188.315429688 405.983398438 222 408 c 0
 224.05859375 408.123046875 226.118164062 408.184570312 228.177734375 408.184570312 c 0
 250.052734375 408.184570312 268.66015625 402.123046875 284 390 c 0
 293.673828125 382.35546875 300.974609375 373.022460938 305.904296875 362.000976562 c 0
 306.594726562 360.458984375 307.229492188 358.890625 307.810546875 357.296875 c 128
 308.391601562 355.703125 308.915039062 354.094726562 309.380859375 352.470703125 c 128
 309.84765625 350.846679688 310.256835938 349.206054688 310.610351562 347.546875 c 128
 310.963867188 345.887695312 311.258789062 344.221679688 311.494140625 342.548828125 c 128
 311.73046875 340.875976562 311.908203125 339.193359375 312.028320312 337.501953125 c 128
 312.147460938 335.810546875 312.200195312 334.120117188 312.200195312 332.4296875 c 0
 312.200195312 331.5234375 312.189453125 330.6171875 312.155273438 329.7109375 c 0
 312.169921875 328.288085938 312.200195312 327.384765625 312.200195312 327 c 1024
EndSplineSet
EndChar

StartChar: khadeva
Encoding: 326 2326 70
Width: 805
GlyphClass: 2
Flags: HMW
AnchorPoint: "DVAnchor3" 677 648 basechar 0
AnchorPoint: "DVAnchor0" 679 28 basechar 0
LayerCount: 3
Back
SplineSet
396.484375 58.59375 m 0,0,1
 469.7265625 58.59375 469.7265625 58.59375 536.1328125 100.09765625 c 128,-1,2
 602.5390625 141.6015625 602.5390625 141.6015625 643.5546875 214.84375 c 1,3,-1
 643.5546875 266.6015625 l 1,4,5
 618.1640625 244.140625 618.1640625 244.140625 591.30859375 232.421875 c 128,-1,6
 564.453125 220.703125 564.453125 220.703125 540.0390625 220.703125 c 0,7,8
 474.609375 220.703125 474.609375 220.703125 429.19921875 261.71875 c 128,-1,9
 383.7890625 302.734375 383.7890625 302.734375 383.7890625 360.3515625 c 0,10,11
 383.7890625 418.9453125 383.7890625 418.9453125 429.19921875 459.9609375 c 128,-1,12
 474.609375 500.9765625 474.609375 500.9765625 540.0390625 500.9765625 c 0,13,14
 564.453125 500.9765625 564.453125 500.9765625 585.9375 495.60546875 c 128,-1,15
 607.421875 490.234375 607.421875 490.234375 624.0234375 481.4453125 c 1,16,-1
 624.0234375 416.015625 l 1,17,18
 598.6328125 424.8046875 598.6328125 424.8046875 577.1484375 430.17578125 c 128,-1,19
 555.6640625 435.546875 555.6640625 435.546875 540.0390625 435.546875 c 0,20,21
 501.953125 435.546875 501.953125 435.546875 475.09765625 413.57421875 c 128,-1,22
 448.2421875 391.6015625 448.2421875 391.6015625 448.2421875 360.3515625 c 128,-1,23
 448.2421875 329.1015625 448.2421875 329.1015625 475.09765625 307.6171875 c 128,-1,24
 501.953125 286.1328125 501.953125 286.1328125 540.0390625 286.1328125 c 0,25,26
 560.546875 286.1328125 560.546875 286.1328125 587.40234375 299.8046875 c 128,-1,27
 614.2578125 313.4765625 614.2578125 313.4765625 643.5546875 337.890625 c 1,28,-1
 643.5546875 591.796875 l 1,29,-1
 286.1328125 591.796875 l 1,30,-1
 286.1328125 448.2421875 l 2,31,32
 286.1328125 385.7421875 286.1328125 385.7421875 251.46484375 342.28515625 c 128,-1,33
 216.796875 298.828125 216.796875 298.828125 168.9453125 298.828125 c 0,34,35
 160.15625 298.828125 160.15625 298.828125 151.3671875 300.78125 c 128,-1,36
 142.578125 302.734375 142.578125 302.734375 136.71875 305.6640625 c 1,37,38
 176.7578125 193.359375 176.7578125 193.359375 248.53515625 125.9765625 c 128,-1,39
 320.3125 58.59375 320.3125 58.59375 396.484375 58.59375 c 0,0,1
-12.6953125 591.796875 m 1,40,-1
 -12.6953125 650.390625 l 1,41,-1
 819.3359375 650.390625 l 1,42,-1
 819.3359375 591.796875 l 1,43,-1
 708.984375 591.796875 l 1,44,-1
 708.984375 0 l 1,45,-1
 643.5546875 0 l 1,46,-1
 643.5546875 129.8828125 l 1,47,48
 600.5859375 69.3359375 600.5859375 69.3359375 535.15625 34.66796875 c 128,-1,49
 469.7265625 0 469.7265625 0 396.484375 0 c 0,50,51
 283.203125 0 283.203125 0 180.17578125 119.62890625 c 128,-1,52
 77.1484375 239.2578125 77.1484375 239.2578125 26.3671875 428.7109375 c 1,53,-1
 78.125 455.078125 l 1,54,55
 92.7734375 413.0859375 92.7734375 413.0859375 117.67578125 388.671875 c 128,-1,56
 142.578125 364.2578125 142.578125 364.2578125 168.9453125 364.2578125 c 0,57,58
 191.40625 364.2578125 191.40625 364.2578125 206.0546875 388.671875 c 128,-1,59
 220.703125 413.0859375 220.703125 413.0859375 220.703125 448.2421875 c 2,60,-1
 220.703125 591.796875 l 1,61,-1
 -12.6953125 591.796875 l 1,40,-1
EndSplineSet
EndChar

StartChar: gadeva
Encoding: 327 2327 71
Width: 587
GlyphClass: 2
Flags: HMW
AnchorPoint: "DVAnchor3" 417 648 basechar 0
LayerCount: 3
Back
SplineSet
27.3046875 591.796875 m 1,0,-1
 27.3046875 650.390625 l 1,1,-1
 558.5546875 650.390625 l 1,2,-1
 558.5546875 591.796875 l 1,3,-1
 448.203125 591.796875 l 1,4,-1
 448.203125 0 l 1,5,-1
 383.75 0 l 1,6,-1
 383.75 591.796875 l 1,7,-1
 220.6640625 591.796875 l 1,8,-1
 220.6640625 273.4375 l 2,9,10
 220.6640625 257.8125 220.6640625 257.8125 210.8984375 246.09375 c 128,-1,11
 201.1328125 234.375 201.1328125 234.375 188.4375 234.375 c 0,12,13
 164.0234375 234.375 164.0234375 234.375 111.2890625 295.41015625 c 128,-1,14
 58.5546875 356.4453125 58.5546875 356.4453125 58.5546875 383.7890625 c 0,15,16
 58.5546875 393.5546875 58.5546875 393.5546875 66.3671875 401.3671875 c 128,-1,17
 74.1796875 409.1796875 74.1796875 409.1796875 83.9453125 409.1796875 c 2,18,-1
 129.84375 409.1796875 l 2,19,20
 140.5859375 409.1796875 140.5859375 409.1796875 148.3984375 418.9453125 c 128,-1,21
 156.2109375 428.7109375 156.2109375 428.7109375 156.2109375 442.3828125 c 2,22,-1
 156.2109375 591.796875 l 1,23,-1
 27.3046875 591.796875 l 1,0,-1
EndSplineSet
Fore
SplineSet
-15 579 m 1
 602 579 l 1
 602 524 l 1
 438 524 l 1
 438 82 l 2
 438 72.6669921875 441.333007812 64.6669921875 448 58 c 0
 454.666992188 51.3330078125 462.666992188 48 472 48 c 0
 485.333007812 48 495 53 501 63 c 1
 547 32 l 1
 529 6 504 -7 472 -7 c 0
 447.333007812 -7 426.333007812 1.6669921875 409 19 c 0
 391.666992188 36.3330078125 383 57.3330078125 383 82 c 2
 383 524 l 1
 234 524 l 1
 234 286 l 2
 234 267.333007812 228.086914062 251.70703125 216.260742188 239.122070312 c 0
 204.75390625 226.374023438 190.833007812 220.166992188 174.5 220.5 c 0
 154.166992188 220.166992188 136.48046875 228.987304688 121.440429688 246.962890625 c 0
 106.48046875 264.321289062 99 285.333007812 99 310 c 0
 99 344.666992188 125.666992188 364.654296875 179 369.963867188 c 1
 179 524 l 1
 -15 524 l 1
 -15 579 l 1
179 314.6171875 m 1
 167.399414062 313.0078125 159.08984375 310.590820312 154.072265625 307.365234375 c 1
 154.381835938 302.231445312 155.481445312 297.502929688 157.37109375 293.180664062 c 0
 159.259765625 288.858398438 161.3984375 285.506835938 163.786132812 283.125976562 c 0
 166.173828125 280.745117188 168.3203125 278.907226562 170.228515625 277.610351562 c 0
 172.135742188 276.314453125 173.544921875 275.612304688 174.45703125 275.504882812 c 0
 177.485351562 276.1640625 179 279.663085938 179 286 c 2
 179 314.6171875 l 1
EndSplineSet
EndChar

StartChar: ghadeva
Encoding: 328 2328 72
Width: 621
GlyphClass: 2
Flags: HMW
AnchorPoint: "DVAnchor3" 494 648 basechar 0
LayerCount: 3
Back
SplineSet
257.8125 175.78125 m 0,0,1
 306.640625 175.78125 306.640625 175.78125 359.375 206.0546875 c 128,-1,2
 412.109375 236.328125 412.109375 236.328125 458.984375 292.96875 c 1,3,-1
 458.984375 591.796875 l 1,4,-1
 160.15625 591.796875 l 1,5,6
 138.671875 580.078125 138.671875 580.078125 126.46484375 558.59375 c 128,-1,7
 114.2578125 537.109375 114.2578125 537.109375 114.2578125 513.671875 c 0,8,9
 114.2578125 478.515625 114.2578125 478.515625 146.97265625 453.61328125 c 128,-1,10
 179.6875 428.7109375 179.6875 428.7109375 224.609375 428.7109375 c 2,11,-1
 309.5703125 428.7109375 l 1,12,-1
 329.1015625 371.09375 l 1,13,-1
 270.5078125 371.09375 l 2,14,15
 214.84375 371.09375 214.84375 371.09375 174.31640625 342.28515625 c 128,-1,16
 133.7890625 313.4765625 133.7890625 313.4765625 133.7890625 273.4375 c 0,17,18
 133.7890625 232.421875 133.7890625 232.421875 170.41015625 204.1015625 c 128,-1,19
 207.03125 175.78125 207.03125 175.78125 257.8125 175.78125 c 0,0,1
-12.6953125 591.796875 m 1,20,-1
 -12.6953125 650.390625 l 1,21,-1
 634.765625 650.390625 l 1,22,-1
 634.765625 591.796875 l 1,23,-1
 524.4140625 591.796875 l 1,24,-1
 524.4140625 0 l 1,25,-1
 458.984375 0 l 1,26,-1
 458.984375 208.0078125 l 1,27,28
 412.109375 161.1328125 412.109375 161.1328125 359.375 135.7421875 c 128,-1,29
 306.640625 110.3515625 306.640625 110.3515625 257.8125 110.3515625 c 0,30,31
 179.6875 110.3515625 179.6875 110.3515625 124.51171875 157.71484375 c 128,-1,32
 69.3359375 205.078125 69.3359375 205.078125 69.3359375 273.4375 c 0,33,34
 69.3359375 308.59375 69.3359375 308.59375 87.890625 339.84375 c 128,-1,35
 106.4453125 371.09375 106.4453125 371.09375 140.625 389.6484375 c 1,36,37
 98.6328125 404.296875 98.6328125 404.296875 74.21875 438.96484375 c 128,-1,38
 49.8046875 473.6328125 49.8046875 473.6328125 49.8046875 513.671875 c 0,39,40
 49.8046875 533.203125 49.8046875 533.203125 58.10546875 553.22265625 c 128,-1,41
 66.40625 573.2421875 66.40625 573.2421875 82.03125 591.796875 c 1,42,-1
 -12.6953125 591.796875 l 1,20,-1
EndSplineSet
EndChar

StartChar: ngadeva
Encoding: 329 2329 73
Width: 700
GlyphClass: 2
Flags: HMW
AnchorPoint: "DVAnchor3" 487 648 basechar 0
AnchorPoint: "DVAnchor0" 385 49 basechar 0
LayerCount: 3
Back
SplineSet
636.71875 325.1953125 m 0,0,1
 618.1640625 325.1953125 618.1640625 325.1953125 603.515625 338.8671875 c 128,-1,2
 588.8671875 352.5390625 588.8671875 352.5390625 588.8671875 371.09375 c 0,3,4
 588.8671875 388.671875 588.8671875 388.671875 603.515625 402.34375 c 128,-1,5
 618.1640625 416.015625 618.1640625 416.015625 636.71875 416.015625 c 0,6,7
 658.203125 416.015625 658.203125 416.015625 672.36328125 402.34375 c 128,-1,8
 686.5234375 388.671875 686.5234375 388.671875 686.5234375 371.09375 c 0,9,10
 686.5234375 352.5390625 686.5234375 352.5390625 672.36328125 338.8671875 c 128,-1,11
 658.203125 325.1953125 658.203125 325.1953125 636.71875 325.1953125 c 0,0,1
-12.6953125 591.796875 m 1,12,-1
 -12.6953125 650.390625 l 1,13,-1
 713.8671875 650.390625 l 1,14,-1
 713.8671875 591.796875 l 1,15,-1
 517.578125 591.796875 l 1,16,-1
 517.578125 428.7109375 l 1,17,-1
 296.875 428.7109375 l 2,18,19
 283.203125 428.7109375 283.203125 428.7109375 273.4375 420.8984375 c 128,-1,20
 263.671875 413.0859375 263.671875 413.0859375 263.671875 403.3203125 c 0,21,22
 263.671875 375.9765625 263.671875 375.9765625 300.29296875 334.47265625 c 128,-1,23
 336.9140625 292.96875 336.9140625 292.96875 361.328125 292.96875 c 0,24,25
 383.7890625 292.96875 383.7890625 292.96875 423.33984375 309.08203125 c 128,-1,26
 462.890625 325.1953125 462.890625 325.1953125 485.3515625 325.1953125 c 0,27,28
 525.390625 325.1953125 525.390625 325.1953125 554.19921875 294.43359375 c 128,-1,29
 583.0078125 263.671875 583.0078125 263.671875 583.0078125 220.703125 c 0,30,31
 583.0078125 134.765625 583.0078125 134.765625 525.390625 73.73046875 c 128,-1,32
 467.7734375 12.6953125 467.7734375 12.6953125 387.6953125 12.6953125 c 0,33,34
 293.9453125 12.6953125 293.9453125 12.6953125 194.3359375 91.30859375 c 128,-1,35
 94.7265625 169.921875 94.7265625 169.921875 16.6015625 305.6640625 c 1,36,-1
 69.3359375 344.7265625 l 1,37,38
 140.625 220.703125 140.625 220.703125 225.5859375 149.4140625 c 128,-1,39
 310.546875 78.125 310.546875 78.125 387.6953125 78.125 c 0,40,41
 440.4296875 78.125 440.4296875 78.125 479.00390625 119.62890625 c 128,-1,42
 517.578125 161.1328125 517.578125 161.1328125 517.578125 220.703125 c 0,43,44
 517.578125 236.328125 517.578125 236.328125 507.8125 248.046875 c 128,-1,45
 498.046875 259.765625 498.046875 259.765625 485.3515625 259.765625 c 0,46,47
 462.890625 259.765625 462.890625 259.765625 423.33984375 243.65234375 c 128,-1,48
 383.7890625 227.5390625 383.7890625 227.5390625 361.328125 227.5390625 c 0,49,50
 321.2890625 227.5390625 321.2890625 227.5390625 260.25390625 293.9453125 c 128,-1,51
 199.21875 360.3515625 199.21875 360.3515625 199.21875 403.3203125 c 0,52,53
 199.21875 438.4765625 199.21875 438.4765625 227.5390625 462.890625 c 128,-1,54
 255.859375 487.3046875 255.859375 487.3046875 296.875 487.3046875 c 2,55,-1
 452.1484375 487.3046875 l 1,56,-1
 452.1484375 591.796875 l 1,57,-1
 -12.6953125 591.796875 l 1,12,-1
EndSplineSet
EndChar

StartChar: cadeva
Encoding: 330 2330 74
Width: 577
GlyphClass: 2
Flags: HMW
AnchorPoint: "DVAnchor3" 531 648 basechar 0
LayerCount: 3
Back
SplineSet
27.3046875 591.796875 m 1,0,-1
 27.3046875 650.390625 l 1,1,-1
 675.7421875 650.390625 l 1,2,-1
 675.7421875 591.796875 l 1,3,-1
 565.390625 591.796875 l 1,4,-1
 565.390625 0 l 1,5,-1
 499.9609375 0 l 1,6,-1
 499.9609375 234.375 l 1,7,8
 460.8984375 179.6875 460.8984375 179.6875 415 148.4375 c 128,-1,9
 369.1015625 117.1875 369.1015625 117.1875 325.15625 117.1875 c 0,10,11
 259.7265625 117.1875 259.7265625 117.1875 214.31640625 162.59765625 c 128,-1,12
 168.90625 208.0078125 168.90625 208.0078125 168.90625 273.4375 c 0,13,14
 168.90625 320.3125 168.90625 320.3125 187.4609375 358.3984375 c 128,-1,15
 206.015625 396.484375 206.015625 396.484375 240.1953125 416.015625 c 1,16,-1
 51.71875 416.015625 l 1,17,-1
 51.71875 481.4453125 l 1,18,-1
 435.5078125 481.4453125 l 1,19,-1
 435.5078125 416.015625 l 1,20,-1
 344.6875 416.015625 l 1,21,22
 294.8828125 397.4609375 294.8828125 397.4609375 264.12109375 358.88671875 c 128,-1,23
 233.359375 320.3125 233.359375 320.3125 233.359375 273.4375 c 0,24,25
 233.359375 235.3515625 233.359375 235.3515625 260.21484375 208.49609375 c 128,-1,26
 287.0703125 181.640625 287.0703125 181.640625 325.15625 181.640625 c 0,27,28
 366.171875 181.640625 366.171875 181.640625 413.046875 222.16796875 c 128,-1,29
 459.921875 262.6953125 459.921875 262.6953125 499.9609375 332.03125 c 1,30,-1
 499.9609375 591.796875 l 1,31,-1
 27.3046875 591.796875 l 1,0,-1
EndSplineSet
Fore
SplineSet
55 374.235351562 m 1
 55 429.235351562 l 1
 241.62890625 429.235351562 l 1
 333 429.235351562 l 1
 333 374.235351562 l 1
 242.213350622 374.235351562 l 2
 241.991468724 374.226484087 241.772890776 374.235351562 241.557617188 374.235351562 c 0
 211.852539062 374.085937499 186.096679688 363.946289062 164.291015625 343.837890625 c 0
 142.763671875 323.279296875 132.000976562 298.926757812 132.001953125 270.780273438 c 0
 132.000976562 256.259765625 134.837890625 242.752929688 140.513671875 230.2578125 c 0
 146.170898438 217.418945312 153.881835938 206.686523438 163.646484375 198.05859375 c 0
 173.215820312 189.352539062 184.82421875 182.377929688 198.473632812 177.1328125 c 0
 212.158203125 171.7109375 226.471679688 169.165039062 241.4140625 169.494140625 c 0
 281.137695312 169.165039062 315.4921875 184.24609375 344.477539062 214.73828125 c 0
 373.4921875 244.913085938 388 277.301757812 388 311.90625 c 2
 388 524 l 1
 -15 524 l 1
 -15 579 l 1
 592 579 l 1
 592 524 l 1
 443 524 l 1
 443 82 l 2
 443 72.6669921875 446.333007812 64.6669921875 453 58 c 0
 459.666992188 51.3330078125 467.666992188 48 477 48 c 0
 490.333007812 48 500 53 506 63 c 1
 552 32 l 1
 534 6 509 -7 477 -7 c 0
 452.333007812 -7 431.333007812 1.6669921875 414 19 c 0
 396.666992188 36.3330078125 388 57.3330078125 388 82 c 2
 388 195 l 1
 376 171 356 151.5 328 136.5 c 0
 300 121.5 271.161132812 114.1640625 241.482421875 114.493164062 c 0
 191.161132812 114.1640625 151.845703125 129.657226562 123.538085938 160.97265625 c 0
 95.1796875 191.657226562 81.123046875 228.4140625 81.3681640625 271.241210938 c 0
 81.1435877998 310.185061181 92.9807793995 344.516191039 116.881240967 374.235351562 c 1
 55 374.235351562 l 1
EndSplineSet
EndChar

StartChar: chadeva
Encoding: 331 2331 75
Width: 671
GlyphClass: 2
Flags: HMWO
AnchorPoint: "DVAnchor3" 554 648 basechar 0
AnchorPoint: "DVAnchor0" 354 60 basechar 0
LayerCount: 3
Back
SplineSet
550.7421875 214.84375 m 1,0,1
 587.8515625 240.234375 587.8515625 240.234375 608.359375 278.3203125 c 128,-1,2
 628.8671875 316.40625 628.8671875 316.40625 628.8671875 357.421875 c 0,3,4
 628.8671875 387.6953125 628.8671875 387.6953125 606.40625 408.203125 c 128,-1,5
 583.9453125 428.7109375 583.9453125 428.7109375 550.7421875 428.7109375 c 0,6,7
 521.4453125 428.7109375 521.4453125 428.7109375 500.44921875 406.25 c 128,-1,8
 479.453125 383.7890625 479.453125 383.7890625 479.453125 351.5625 c 0,9,10
 479.453125 310.546875 479.453125 310.546875 498.49609375 274.4140625 c 128,-1,11
 517.5390625 238.28125 517.5390625 238.28125 550.7421875 214.84375 c 1,0,1
342.734375 97.65625 m 0,12,13
 384.7265625 97.65625 384.7265625 97.65625 426.23046875 114.2578125 c 128,-1,14
 467.734375 130.859375 467.734375 130.859375 505.8203125 162.109375 c 1,15,16
 460.8984375 207.03125 460.8984375 207.03125 437.94921875 255.859375 c 128,-1,17
 415 304.6875 415 304.6875 415 351.5625 c 0,18,19
 415 405.2734375 415 405.2734375 443.80859375 445.80078125 c 128,-1,20
 472.6171875 486.328125 472.6171875 486.328125 518.515625 494.140625 c 1,21,-1
 518.515625 591.796875 l 1,22,-1
 206.015625 591.796875 l 1,23,24
 181.6015625 571.2890625 181.6015625 571.2890625 167.9296875 545.8984375 c 128,-1,25
 154.2578125 520.5078125 154.2578125 520.5078125 154.2578125 494.140625 c 0,26,27
 154.2578125 456.0546875 154.2578125 456.0546875 188.92578125 429.6875 c 128,-1,28
 223.59375 403.3203125 223.59375 403.3203125 271.4453125 403.3203125 c 2,29,-1
 342.734375 403.3203125 l 1,30,-1
 342.734375 337.890625 l 1,31,-1
 290.9765625 337.890625 l 2,32,33
 248.0078125 337.890625 248.0078125 337.890625 217.24609375 301.7578125 c 128,-1,34
 186.484375 265.625 186.484375 265.625 186.484375 214.84375 c 0,35,36
 186.484375 166.015625 186.484375 166.015625 232.3828125 131.8359375 c 128,-1,37
 278.28125 97.65625 278.28125 97.65625 342.734375 97.65625 c 0,12,13
342.734375 32.2265625 m 0,38,39
 251.9140625 32.2265625 251.9140625 32.2265625 186.97265625 85.44921875 c 128,-1,40
 122.03125 138.671875 122.03125 138.671875 122.03125 214.84375 c 0,41,42
 122.03125 261.71875 122.03125 261.71875 141.07421875 301.26953125 c 128,-1,43
 160.1171875 340.8203125 160.1171875 340.8203125 193.3203125 364.2578125 c 1,44,45
 145.46875 385.7421875 145.46875 385.7421875 117.63671875 420.8984375 c 128,-1,46
 89.8046875 456.0546875 89.8046875 456.0546875 89.8046875 494.140625 c 0,47,48
 89.8046875 526.3671875 89.8046875 526.3671875 100.05859375 552.734375 c 128,-1,49
 110.3125 579.1015625 110.3125 579.1015625 128.8671875 591.796875 c 1,50,-1
 27.3046875 591.796875 l 1,51,-1
 27.3046875 650.390625 l 1,52,-1
 746.0546875 650.390625 l 1,53,-1
 746.0546875 591.796875 l 1,54,-1
 583.9453125 591.796875 l 1,55,-1
 583.9453125 494.140625 l 1,56,57
 631.796875 485.3515625 631.796875 485.3515625 663.046875 446.77734375 c 128,-1,58
 694.296875 408.203125 694.296875 408.203125 694.296875 357.421875 c 0,59,60
 694.296875 243.1640625 694.296875 243.1640625 580.52734375 137.6953125 c 128,-1,61
 466.7578125 32.2265625 466.7578125 32.2265625 342.734375 32.2265625 c 0,38,39
EndSplineSet
Fore
SplineSet
466.115234375 189.411132812 m 1
 473.45703125 196.228515625 480.65234375 203.509765625 487.106445312 210.745117188 c 0
 512.80078125 239.553710938 531.356445312 273.46484375 534.870117188 307.799804688 c 0
 537.350585938 332.028320312 531.706054688 356.6796875 518.723632812 374.556640625 c 0
 512.190429688 383.552734375 503.703125 391.099609375 494.276367188 396.23046875 c 0
 484.861328125 401.356445312 474.118164062 404.2578125 463.575195312 404.5078125 c 0
 452.7578125 404.764648438 441.62890625 402.232421875 431.881835938 397.305664062 c 0
 422.125976562 392.373046875 413.311523438 384.840820312 406.616210938 375.763671875 c 0
 393.340820312 357.764648438 387.974609375 332.389648438 391.455078125 307.864257812 c 0
 396.130859375 274.91015625 415.504882812 242.787109375 441.166015625 214.557617188 c 0
 448.923828125 206.024414062 457.391601562 197.56640625 466.115234375 189.411132812 c 1
288.61328125 320.004882812 m 1
 288.564453125 264.987304688 l 1
 266.469726562 264.987304688 265.708007812 264.823242188 244.501953125 264.987304688 c 0
 230.479492188 264.694335938 216.352539062 260.640625 204.428710938 253.450195312 c 0
 191.87890625 245.8828125 181.37109375 234.559570312 174.924804688 221.610351562 c 0
 169.760742188 211.236328125 167.043945312 199.436523438 167.043945312 187.765625 c 0
 167.043945312 184.897460938 167.208007812 182.037109375 167.540039062 179.20703125 c 0
 169.8359375 159.657226562 180.5625 140.243164062 196.279296875 126.713867188 c 0
 212.077148438 113.116210938 233.383789062 104.524414062 255.818359375 101.780273438 c 0
 261.663085938 101.06640625 267.604492188 100.723632812 273.610351562 100.723632812 c 0
 290.754882812 100.723632812 308.422851562 103.515625 325.841796875 108.420898438 c 0
 349.422851562 115.061523438 372.458007812 125.354492188 394.682617188 137.932617188 c 0
 403.9140625 143.158203125 413.41796875 149.01953125 422.419921875 155.044921875 c 1
 414.930664062 162.262695312 407.46875 169.861328125 400.46875 177.561523438 c 0
 370.649414062 210.364257812 343.912109375 251.428710938 337 300.135742188 c 0
 335.938476562 307.620117188 335.390625 315.237304688 335.390625 322.891601562 c 0
 335.390625 352.739257812 343.719726562 383.147460938 362.353515625 408.411132812 c 0
 374.002929688 424.205078125 389.245117188 437.37890625 407.068359375 446.389648438 c 0
 416.25 451.03125 425.98046875 454.493164062 436 456.694335938 c 1
 436 524 l 1
 -15 524 l 1
 -15 579 l 1
 686 579 l 1
 686 524 l 1
 491 524 l 1
 491 456.005859375 l 1
 501.303710938 453.473632812 511.252929688 449.611328125 520.57421875 444.537109375 c 0
 537.587890625 435.274414062 552.069335938 422.23828125 563.225585938 406.875976562 c 0
 582.081054688 380.913085938 590.458007812 349.756835938 590.458007812 319.270507812 c 0
 590.458007812 313.543945312 590.162109375 307.840820312 589.584960938 302.200195312 c 0
 584.466796875 252.197265625 558.888671875 208.59765625 528.15234375 174.135742188 c 0
 521.93359375 167.1640625 514.984375 160.009765625 508.0546875 153.350585938 c 1
 515.38671875 147.413085938 522.985351562 141.365234375 530.325195312 135.5390625 c 0
 542.5 125.875 597.6015625 83.0185546875 609.918945312 73.47265625 c 1
 576.227539062 30 l 1
 563.772460938 39.65234375 508.501953125 82.6396484375 496.129882812 92.4609375 c 0
 485.870117188 100.60546875 475.311523438 109.008789062 464.879882812 117.59765625 c 1
 450.96484375 107.599609375 436.407226562 98.349609375 421.772460938 90.0673828125 c 0
 396.600585938 75.8203125 369.584960937 63.6015625 340.743164062 55.4794921875 c 0
 319.39453125 49.46875 296.8125 45.708984375 273.754882812 45.708984375 c 0
 265.598632812 45.708984375 257.3828125 46.1796875 249.143554688 47.1875 c 0
 217.51953125 51.0537109375 185.877929688 63.0986328125 160.399414062 85.029296875 c 0
 134.83984375 107.030273438 116.970703125 138.252929688 112.915039062 172.79296875 c 0
 112.32421875 177.828125 112.030273438 182.883789062 112.030273438 187.932617188 c 0
 112.030273438 208.043945312 116.684570312 228.033203125 125.6875 246.120117188 c 0
 131.30078125 257.395507812 138.501953125 267.747070312 146.973632812 276.897460938 c 1
 127.313476562 283.68359375 107.689453125 294.780273438 92.5107421875 312.534179688 c 0
 83.7529296875 322.778320312 76.853515625 334.89453125 72.8681640625 348.399414062 c 0
 68.8759765625 361.92578125 67.994140625 376.293945312 70.5224609375 390.3671875 c 0
 75.0361328125 415.494140625 89.9541015625 436.736328125 109.5234375 450.689453125 c 0
 128.888671875 464.49609375 151.421875 470.740234375 173.038085938 471.9609375 c 0
 207.590820312 473.912109375 241.376953125 463.697265625 269.462890625 445.634765625 c 1
 239.71484375 399.375 l 1
 220.521484375 411.716796875 197.709960938 418.266601562 176.139648438 417.048828125 c 0
 162.881835938 416.299804688 150.529296875 412.377929688 141.453125 405.90625 c 0
 132.583007812 399.58203125 126.317382812 389.895507812 124.655273438 380.642578125 c 0
 123.690429688 375.270507812 124.018554688 369.389648438 125.619140625 363.966796875 c 0
 127.225585938 358.522460938 130.235351562 353.046875 134.31640625 348.2734375 c 0
 142.450195312 338.759765625 155.603515625 331.315429688 171.03125 326.978515625 c 0
 204.347677627 317.612364963 246.90830111 320.004882812 288.61328125 320.004882812 c 1
EndSplineSet
Layer: 2
SplineSet
272 273 m 0
 266.405273438 276.34765625 260.533203125 279.174804688 254.383789062 281.484375 c 128
 248.233398438 283.79296875 241.927734375 285.5390625 235.463867188 286.72265625 c 128
 229.000976562 287.905273438 222.510742188 288.5 215.993164062 288.504882812 c 0
 206.17578125 288.51171875 196.485351562 287.193359375 186.920898438 284.548828125 c 128
 177.356445312 281.905273438 168.3828125 278.0546875 160 273 c 0
 154.337890625 269.5859375 149.030273438 265.663085938 144.077148438 261.231445312 c 128
 139.124023438 256.80078125 134.620117188 251.939453125 130.564453125 246.647460938 c 128
 126.509765625 241.356445312 123.014648438 235.76171875 120.079101562 229.865234375 c 0
 115.655273438 220.978515625 112.580078125 211.577148438 110.853515625 201.663085938 c 128
 109.126953125 191.748046875 108.841796875 181.860351562 110 172 c 0
 113.25 144.3203125 125.954101562 120.944335938 148.111328125 101.872070312 c 0
 154.8671875 96.0576171875 162.323242188 90.96875 170.479492188 86.60546875 c 128
 178.63671875 82.2421875 187.018554688 78.744140625 195.624023438 76.111328125 c 128
 204.23046875 73.478515625 213.106445312 71.6025390625 222.25390625 70.484375 c 0
 247.493164062 67.3974609375 274.431640625 69.88671875 303.068359375 77.9501953125 c 0
 315.717773438 81.5126953125 328.276367188 85.994140625 340.743164062 91.3955078125 c 128
 353.2109375 96.796875 365.629882812 102.999023438 378 110 c 0
 417.633789062 132.431640625 450.768554688 158.579101562 477.401367188 188.440429688 c 0
 509.842773438 224.813476562 528.04296875 262.333984375 532 301 c 0
 533.575195312 316.389648438 532.584960938 331.55078125 529.030273438 346.483398438 c 128
 525.4765625 361.416015625 519.381835938 374.827148438 510.747070312 386.715820312 c 0
 501.616210938 399.2890625 490.432617188 409.178710938 477.197265625 416.383789062 c 0
 470.56640625 419.994140625 463.583984375 422.788085938 456.25 424.765625 c 128
 448.916992188 426.744140625 441.5 427.822265625 434 428 c 0
 428.868164062 428.122070312 423.739257812 427.81640625 418.61328125 427.083007812 c 128
 413.487304688 426.349609375 408.458984375 425.208007812 403.530273438 423.65625 c 128
 398.600585938 422.10546875 393.83984375 420.168945312 389.248046875 417.84765625 c 0
 375.385742188 410.83984375 363.72265625 400.919921875 354.256835938 388.087890625 c 0
 335.942382812 363.256835938 329.190429688 333.89453125 334 300 c 0
 339.122070312 263.90625 357.985351562 227.926757812 390.58984375 192.059570312 c 0
 409.540039062 171.212890625 440.34375 143.860351562 483 110 c 0
 496.05859375 99.650390625 508.42578125 89.9833984375 520.099609375 81 c 1024
271 288 m 0
 266 288 266 288 236.5 288 c 128
 207 288 207 288 202 288 c 0
 167.333007812 288 141 290.666992188 123 296 c 0
 116.418945312 297.850585938 110.208984375 300.10546875 104.372070312 302.764648438 c 128
 98.5341796875 305.424804688 92.8544921875 308.732421875 87.33203125 312.6875 c 128
 81.8095703125 316.641601562 76.9736328125 321.045898438 72.82421875 325.899414062 c 0
 66.1435546875 333.71484375 61.419921875 342.307617188 58.654296875 351.678710938 c 0
 55.7861328125 361.3984375 55.234375 371.172851562 57 381 c 0
 60.1455078125 398.509765625 69.4453125 412.774414062 84.8994140625 423.79296875 c 0
 98.5419921875 433.51953125 114.908203125 438.921875 134 440 c 0
 162.247070312 441.184570312 188.946289062 433.850585938 214.099609375 418 c 1024
EndSplineSet
EndChar

StartChar: jadeva
Encoding: 332 2332 76
Width: 710
GlyphClass: 2
Flags: HMW
AnchorPoint: "DVAnchor3" 582 648 basechar 0
LayerCount: 3
Back
SplineSet
301.7578125 78.125 m 0,0,1
 231.4453125 78.125 231.4453125 78.125 155.2734375 172.36328125 c 128,-1,2
 79.1015625 266.6015625 79.1015625 266.6015625 22.4609375 422.8515625 c 1,3,-1
 81.0546875 448.2421875 l 1,4,5
 130.859375 309.5703125 130.859375 309.5703125 191.40625 226.07421875 c 128,-1,6
 251.953125 142.578125 251.953125 142.578125 301.7578125 142.578125 c 0,7,8
 333.984375 142.578125 333.984375 142.578125 356.93359375 167.48046875 c 128,-1,9
 379.8828125 192.3828125 379.8828125 192.3828125 379.8828125 227.5390625 c 0,10,11
 379.8828125 283.203125 379.8828125 283.203125 351.07421875 342.28515625 c 128,-1,12
 322.265625 401.3671875 322.265625 401.3671875 269.53125 455.078125 c 1,13,-1
 548.828125 455.078125 l 1,14,-1
 548.828125 591.796875 l 1,15,-1
 -12.6953125 591.796875 l 1,16,-1
 -12.6953125 650.390625 l 1,17,-1
 724.609375 650.390625 l 1,18,-1
 724.609375 591.796875 l 1,19,-1
 614.2578125 591.796875 l 1,20,-1
 614.2578125 0 l 1,21,-1
 548.828125 0 l 1,22,-1
 548.828125 389.6484375 l 1,23,-1
 392.578125 389.6484375 l 1,24,25
 418.9453125 353.515625 418.9453125 353.515625 431.640625 312.01171875 c 128,-1,26
 444.3359375 270.5078125 444.3359375 270.5078125 444.3359375 227.5390625 c 0,27,28
 444.3359375 165.0390625 444.3359375 165.0390625 402.83203125 121.58203125 c 128,-1,29
 361.328125 78.125 361.328125 78.125 301.7578125 78.125 c 0,0,1
EndSplineSet
EndChar

StartChar: jhadeva
Encoding: 333 2333 77
Width: 713
GlyphClass: 2
Flags: HMW
AnchorPoint: "DVAnchor3" 586 648 basechar 0
LayerCount: 3
Back
SplineSet
466.796875 298.828125 m 4,0,1
 481.4453125 298.828125 481.4453125 298.828125 502.9296875 305.6640625 c 132,-1,2
 524.4140625 312.5 524.4140625 312.5 551.7578125 325.1953125 c 5,3,-1
 551.7578125 591.796875 l 5,4,-1
 369.140625 591.796875 l 5,5,-1
 369.140625 435.546875 l 5,6,-1
 141.6015625 435.546875 l 6,7,8
 128.90625 435.546875 128.90625 435.546875 119.140625 429.6875 c 132,-1,9
 109.375 423.828125 109.375 423.828125 109.375 416.015625 c 4,10,11
 109.375 391.6015625 109.375 391.6015625 138.671875 354.98046875 c 132,-1,12
 167.96875 318.359375 167.96875 318.359375 187.5 318.359375 c 132,-1,13
 207.03125 318.359375 207.03125 318.359375 242.67578125 331.54296875 c 132,-1,14
 278.3203125 344.7265625 278.3203125 344.7265625 297.8515625 344.7265625 c 4,15,16
 316.40625 344.7265625 316.40625 344.7265625 333.0078125 339.35546875 c 132,-1,17
 349.609375 333.984375 349.609375 333.984375 363.28125 325.1953125 c 4,18,19
 380.859375 312.5 380.859375 312.5 407.71484375 305.6640625 c 132,-1,20
 434.5703125 298.828125 434.5703125 298.828125 466.796875 298.828125 c 4,0,1
310.546875 -45.8984375 m 5,21,22
 267.578125 -26.3671875 267.578125 -26.3671875 231.93359375 -1.46484375 c 132,-1,23
 196.2890625 23.4375 196.2890625 23.4375 167.96875 51.7578125 c 5,24,25
 117.1875 51.7578125 117.1875 51.7578125 80.56640625 74.70703125 c 132,-1,26
 43.9453125 97.65625 43.9453125 97.65625 43.9453125 129.8828125 c 4,27,28
 43.9453125 152.34375 43.9453125 152.34375 59.08203125 166.9921875 c 132,-1,29
 74.21875 181.640625 74.21875 181.640625 96.6796875 181.640625 c 4,30,31
 124.0234375 181.640625 124.0234375 181.640625 151.85546875 165.0390625 c 132,-1,32
 179.6875 148.4375 179.6875 148.4375 200.1953125 117.1875 c 5,33,34
 255.859375 126.953125 255.859375 126.953125 292.96875 161.62109375 c 132,-1,35
 330.078125 196.2890625 330.078125 196.2890625 330.078125 240.234375 c 4,36,37
 330.078125 255.859375 330.078125 255.859375 320.3125 267.578125 c 132,-1,38
 310.546875 279.296875 310.546875 279.296875 297.8515625 279.296875 c 4,39,40
 278.3203125 279.296875 278.3203125 279.296875 242.67578125 266.6015625 c 132,-1,41
 207.03125 253.90625 207.03125 253.90625 187.5 253.90625 c 4,42,43
 152.34375 253.90625 152.34375 253.90625 98.14453125 314.94140625 c 132,-1,44
 43.9453125 375.9765625 43.9453125 375.9765625 43.9453125 416.015625 c 4,45,46
 43.9453125 451.171875 43.9453125 451.171875 72.75390625 476.07421875 c 132,-1,47
 101.5625 500.9765625 101.5625 500.9765625 141.6015625 500.9765625 c 6,48,-1
 304.6875 500.9765625 l 5,49,-1
 304.6875 591.796875 l 5,50,-1
 -12.6953125 591.796875 l 5,51,-1
 -12.6953125 650.390625 l 5,52,-1
 726.5625 650.390625 l 5,53,-1
 726.5625 591.796875 l 5,54,-1
 616.2109375 591.796875 l 5,55,-1
 616.2109375 0 l 5,56,-1
 551.7578125 0 l 5,57,-1
 551.7578125 259.765625 l 5,58,59
 530.2734375 250.9765625 530.2734375 250.9765625 508.7890625 245.60546875 c 132,-1,60
 487.3046875 240.234375 487.3046875 240.234375 466.796875 240.234375 c 4,61,62
 448.2421875 240.234375 448.2421875 240.234375 430.6640625 243.65234375 c 132,-1,63
 413.0859375 247.0703125 413.0859375 247.0703125 395.5078125 253.90625 c 5,64,65
 395.5078125 180.6640625 395.5078125 180.6640625 352.5390625 132.8125 c 132,-1,66
 309.5703125 84.9609375 309.5703125 84.9609375 232.421875 71.2890625 c 5,67,68
 265.625 43.9453125 265.625 43.9453125 293.45703125 25.87890625 c 132,-1,69
 321.2890625 7.8125 321.2890625 7.8125 343.75 0 c 5,70,-1
 310.546875 -45.8984375 l 5,21,22
EndSplineSet
Substitution2: "LocalizedNpFormslookup2 subtable" jhadeva.np
EndChar

StartChar: nyadeva
Encoding: 334 2334 78
Width: 719
GlyphClass: 2
Flags: HMW
AnchorPoint: "DVAnchor3" 589 648 basechar 0
LayerCount: 3
Back
SplineSet
212.890625 117.1875 m 0,0,1
 162.109375 117.1875 162.109375 117.1875 110.3515625 149.4140625 c 128,-1,2
 58.59375 181.640625 58.59375 181.640625 18.5546875 240.234375 c 1,3,-1
 63.4765625 286.1328125 l 1,4,5
 90.8203125 238.28125 90.8203125 238.28125 131.34765625 209.9609375 c 128,-1,6
 171.875 181.640625 171.875 181.640625 212.890625 181.640625 c 0,7,8
 263.671875 181.640625 263.671875 181.640625 300.29296875 220.21484375 c 128,-1,9
 336.9140625 258.7890625 336.9140625 258.7890625 336.9140625 312.5 c 0,10,11
 336.9140625 357.421875 336.9140625 357.421875 306.15234375 390.13671875 c 128,-1,12
 275.390625 422.8515625 275.390625 422.8515625 232.421875 422.8515625 c 0,13,14
 201.171875 422.8515625 201.171875 422.8515625 171.875 409.1796875 c 128,-1,15
 142.578125 395.5078125 142.578125 395.5078125 122.0703125 371.09375 c 1,16,-1
 77.1484375 422.8515625 l 1,17,18
 108.3984375 454.1015625 108.3984375 454.1015625 148.4375 470.703125 c 128,-1,19
 188.4765625 487.3046875 188.4765625 487.3046875 232.421875 487.3046875 c 0,20,21
 291.015625 487.3046875 291.015625 487.3046875 338.37890625 449.21875 c 128,-1,22
 385.7421875 411.1328125 385.7421875 411.1328125 401.3671875 351.5625 c 1,23,24
 409.1796875 341.796875 409.1796875 341.796875 426.26953125 336.9140625 c 128,-1,25
 443.359375 332.03125 443.359375 332.03125 466.796875 332.03125 c 0,26,27
 495.1171875 332.03125 495.1171875 332.03125 518.5546875 338.37890625 c 128,-1,28
 541.9921875 344.7265625 541.9921875 344.7265625 557.6171875 357.421875 c 1,29,-1
 557.6171875 591.796875 l 1,30,-1
 -12.6953125 591.796875 l 1,31,-1
 -12.6953125 650.390625 l 1,32,-1
 733.3984375 650.390625 l 1,33,-1
 733.3984375 591.796875 l 1,34,-1
 623.046875 591.796875 l 1,35,-1
 623.046875 0 l 1,36,-1
 557.6171875 0 l 1,37,-1
 557.6171875 286.1328125 l 1,38,39
 532.2265625 277.34375 532.2265625 277.34375 508.7890625 271.97265625 c 128,-1,40
 485.3515625 266.6015625 485.3515625 266.6015625 466.796875 266.6015625 c 0,41,42
 451.171875 266.6015625 451.171875 266.6015625 435.05859375 271.97265625 c 128,-1,43
 418.9453125 277.34375 418.9453125 277.34375 401.3671875 286.1328125 c 1,44,45
 388.671875 212.890625 388.671875 212.890625 335.44921875 165.0390625 c 128,-1,46
 282.2265625 117.1875 282.2265625 117.1875 212.890625 117.1875 c 0,0,1
EndSplineSet
EndChar

StartChar: ttadeva
Encoding: 335 2335 79
Width: 551
GlyphClass: 2
Flags: HMW
AnchorPoint: "DVAnchor3" 411 648 basechar 0
AnchorPoint: "DVAnchor0" 316 44 basechar 0
LayerCount: 3
Back
SplineSet
317.3828125 12.6953125 m 0,0,1
 204.1015625 12.6953125 204.1015625 12.6953125 124.0234375 92.7734375 c 128,-1,2
 43.9453125 172.8515625 43.9453125 172.8515625 43.9453125 286.1328125 c 0,3,4
 43.9453125 359.375 43.9453125 359.375 89.35546875 410.64453125 c 128,-1,5
 134.765625 461.9140625 134.765625 461.9140625 200.1953125 461.9140625 c 2,6,-1
 375.9765625 461.9140625 l 1,7,-1
 375.9765625 591.796875 l 1,8,-1
 -12.6953125 591.796875 l 1,9,-1
 -12.6953125 650.390625 l 1,10,-1
 565.4296875 650.390625 l 1,11,-1
 565.4296875 591.796875 l 1,12,-1
 440.4296875 591.796875 l 1,13,-1
 440.4296875 396.484375 l 1,14,-1
 200.1953125 396.484375 l 2,15,16
 162.109375 396.484375 162.109375 396.484375 135.7421875 364.2578125 c 128,-1,17
 109.375 332.03125 109.375 332.03125 109.375 286.1328125 c 0,18,19
 109.375 200.1953125 109.375 200.1953125 170.41015625 139.16015625 c 128,-1,20
 231.4453125 78.125 231.4453125 78.125 317.3828125 78.125 c 0,21,22
 372.0703125 78.125 372.0703125 78.125 416.9921875 102.5390625 c 128,-1,23
 461.9140625 126.953125 461.9140625 126.953125 486.328125 168.9453125 c 1,24,-1
 538.0859375 124.0234375 l 1,25,26
 508.7890625 73.2421875 508.7890625 73.2421875 449.21875 42.96875 c 128,-1,27
 389.6484375 12.6953125 389.6484375 12.6953125 317.3828125 12.6953125 c 0,0,1
EndSplineSet
EndChar

StartChar: tthadeva
Encoding: 336 2336 80
Width: 566
GlyphClass: 2
Flags: HMW
AnchorPoint: "DVAnchor3" 412 648 basechar 0
AnchorPoint: "DVAnchor0" 309 38 basechar 0
LayerCount: 3
Back
SplineSet
316.40625 6.8359375 m 0,0,1
 214.84375 6.8359375 214.84375 6.8359375 128.90625 94.23828125 c 128,-1,2
 42.96875 181.640625 42.96875 181.640625 42.96875 286.1328125 c 0,3,4
 42.96875 361.328125 42.96875 361.328125 92.28515625 414.55078125 c 128,-1,5
 141.6015625 467.7734375 141.6015625 467.7734375 211.9140625 467.7734375 c 2,6,-1
 375 467.7734375 l 1,7,-1
 375 591.796875 l 1,8,-1
 -12.6953125 591.796875 l 1,9,-1
 -12.6953125 650.390625 l 1,10,-1
 580.078125 650.390625 l 1,11,-1
 580.078125 591.796875 l 1,12,-1
 439.453125 591.796875 l 1,13,-1
 439.453125 403.3203125 l 1,14,-1
 211.9140625 403.3203125 l 2,15,16
 168.9453125 403.3203125 168.9453125 403.3203125 138.671875 368.65234375 c 128,-1,17
 108.3984375 333.984375 108.3984375 333.984375 108.3984375 286.1328125 c 0,18,19
 108.3984375 207.03125 108.3984375 207.03125 173.828125 139.16015625 c 128,-1,20
 239.2578125 71.2890625 239.2578125 71.2890625 316.40625 71.2890625 c 0,21,22
 372.0703125 71.2890625 372.0703125 71.2890625 412.109375 112.79296875 c 128,-1,23
 452.1484375 154.296875 452.1484375 154.296875 452.1484375 214.84375 c 0,24,25
 452.1484375 250.9765625 452.1484375 250.9765625 432.12890625 288.57421875 c 128,-1,26
 412.109375 326.171875 412.109375 326.171875 375 357.421875 c 1,27,-1
 426.7578125 396.484375 l 1,28,29
 469.7265625 360.3515625 469.7265625 360.3515625 493.65234375 312.98828125 c 128,-1,30
 517.578125 265.625 517.578125 265.625 517.578125 214.84375 c 0,31,32
 517.578125 128.90625 517.578125 128.90625 458.49609375 67.87109375 c 128,-1,33
 399.4140625 6.8359375 399.4140625 6.8359375 316.40625 6.8359375 c 0,0,1
EndSplineSet
EndChar

StartChar: ddadeva
Encoding: 337 2337 81
Width: 536
GlyphClass: 2
Flags: HMW
AnchorPoint: "DVAnchor3" 523 648 basechar 0
AnchorPoint: "DVAnchor0" 409 44 basechar 0
LayerCount: 3
Back
SplineSet
415.9765625 12.6953125 m 0,0,1
 313.4375 12.6953125 313.4375 12.6953125 216.26953125 90.33203125 c 128,-1,2
 119.1015625 167.96875 119.1015625 167.96875 58.5546875 298.828125 c 1,3,-1
 110.3125 332.03125 l 1,4,5
 165 215.8203125 165 215.8203125 247.51953125 146.97265625 c 128,-1,6
 330.0390625 78.125 330.0390625 78.125 415.9765625 78.125 c 0,7,8
 468.7109375 78.125 468.7109375 78.125 507.28515625 118.1640625 c 128,-1,9
 545.859375 158.203125 545.859375 158.203125 545.859375 214.84375 c 0,10,11
 545.859375 230.46875 545.859375 230.46875 536.09375 242.1875 c 128,-1,12
 526.328125 253.90625 526.328125 253.90625 513.6328125 253.90625 c 0,13,14
 492.1484375 253.90625 492.1484375 253.90625 454.55078125 240.72265625 c 128,-1,15
 416.953125 227.5390625 416.953125 227.5390625 396.4453125 227.5390625 c 0,16,17
 346.640625 227.5390625 346.640625 227.5390625 287.0703125 290.0390625 c 128,-1,18
 227.5 352.5390625 227.5 352.5390625 227.5 403.3203125 c 0,19,20
 227.5 438.4765625 227.5 438.4765625 251.9140625 462.890625 c 128,-1,21
 276.328125 487.3046875 276.328125 487.3046875 311.484375 487.3046875 c 2,22,-1
 487.265625 487.3046875 l 1,23,-1
 487.265625 591.796875 l 1,24,-1
 27.3046875 591.796875 l 1,25,-1
 27.3046875 650.390625 l 1,26,-1
 668.90625 650.390625 l 1,27,-1
 668.90625 591.796875 l 1,28,-1
 552.6953125 591.796875 l 1,29,-1
 552.6953125 422.8515625 l 1,30,-1
 311.484375 422.8515625 l 2,31,32
 303.671875 422.8515625 303.671875 422.8515625 297.8125 416.9921875 c 128,-1,33
 291.953125 411.1328125 291.953125 411.1328125 291.953125 403.3203125 c 0,34,35
 291.953125 375.9765625 291.953125 375.9765625 331.015625 334.47265625 c 128,-1,36
 370.078125 292.96875 370.078125 292.96875 396.4453125 292.96875 c 0,37,38
 416.953125 292.96875 416.953125 292.96875 454.55078125 305.6640625 c 128,-1,39
 492.1484375 318.359375 492.1484375 318.359375 513.6328125 318.359375 c 0,40,41
 553.671875 318.359375 553.671875 318.359375 582.48046875 288.0859375 c 128,-1,42
 611.2890625 257.8125 611.2890625 257.8125 611.2890625 214.84375 c 0,43,44
 611.2890625 130.859375 611.2890625 130.859375 553.671875 71.77734375 c 128,-1,45
 496.0546875 12.6953125 496.0546875 12.6953125 415.9765625 12.6953125 c 0,0,1
EndSplineSet
Fore
SplineSet
47 243 m 1
 98 264 l 1
 132.666992188 176 178.333007812 112.666992188 235 74 c 0
 261.666992188 55.3330078125 289.666992188 46 319 46 c 0
 347 46 370.666992188 54.6669921875 390 72 c 0
 409.333007812 89.3330078125 419 110.666992188 419 136 c 0
 419 169.333007812 405.166992188 196.5 377.5 217.5 c 0
 349.833007812 238.5 316 249 276 249 c 0
 256 249 234 244.666992188 210 236 c 1
 185 236 l 1
 121 300 l 2
 104.333007812 314.666992188 96 332.666992188 96 354 c 0
 96 373.333007812 103 390 117 404 c 0
 131 418 147.666992188 425 167 425 c 2
 383.711914062 425 l 1
 383.711914062 524 l 1
 -15 524 l 1
 -15 579 l 1
 551 579 l 1
 551 524 l 1
 438.711914062 524 l 1
 438.711914062 425 l 1
 439 425 l 1
 439 370 l 1
 438.711914062 370 l 1
 383.711914062 370 l 1
 167 370 l 2
 162.333007812 370 158.5 368.333007812 155.5 365 c 0
 152.5 361.666992188 151 358 151 354 c 0
 151 350 153.666992188 345.333007812 159 340 c 2
 205 294 l 1
 230.333007812 300.666992188 254 304 276 304 c 0
 327.333007812 304 373.166992188 289 413.5 259 c 0
 453.833007812 229 474 188 474 136 c 0
 474 94.6669921875 458.666992188 60.1669921875 428 32.5 c 0
 397.333007812 4.8330078125 361 -9 319 -9 c 0
 278.333007812 -9 240 3.3330078125 204 28 c 0
 138 72 85.6669921875 143.666992188 47 243 c 1
EndSplineSet
EndChar

StartChar: ddhadeva
Encoding: 338 2338 82
Width: 536
GlyphClass: 2
Flags: HMW
AnchorPoint: "DVAnchor3" 458 648 basechar 0
AnchorPoint: "DVAnchor0" 364 46 basechar 0
LayerCount: 3
Back
SplineSet
425.7421875 78.125 m 1,0,1
 459.921875 84.9609375 459.921875 84.9609375 481.89453125 111.81640625 c 128,-1,2
 503.8671875 138.671875 503.8671875 138.671875 503.8671875 175.78125 c 0,3,4
 503.8671875 203.125 503.8671875 203.125 485.3125 221.6796875 c 128,-1,5
 466.7578125 240.234375 466.7578125 240.234375 439.4140625 240.234375 c 0,6,7
 415 240.234375 415 240.234375 397.91015625 223.6328125 c 128,-1,8
 380.8203125 207.03125 380.8203125 207.03125 380.8203125 181.640625 c 0,9,10
 380.8203125 150.390625 380.8203125 150.390625 392.5390625 123.53515625 c 128,-1,11
 404.2578125 96.6796875 404.2578125 96.6796875 425.7421875 78.125 c 1,0,1
27.3046875 591.796875 m 1,12,-1
 27.3046875 650.390625 l 1,13,-1
 619.1015625 650.390625 l 1,14,-1
 619.1015625 591.796875 l 1,15,-1
 484.3359375 591.796875 l 1,16,-1
 484.3359375 396.484375 l 1,17,-1
 231.40625 396.484375 l 2,18,19
 196.25 396.484375 196.25 396.484375 171.34765625 366.2109375 c 128,-1,20
 146.4453125 335.9375 146.4453125 335.9375 146.4453125 292.96875 c 0,21,22
 146.4453125 216.796875 146.4453125 216.796875 214.31640625 147.4609375 c 128,-1,23
 282.1875 78.125 282.1875 78.125 361.2890625 71.2890625 c 1,24,25
 338.828125 89.84375 338.828125 89.84375 327.109375 119.140625 c 128,-1,26
 315.390625 148.4375 315.390625 148.4375 315.390625 181.640625 c 0,27,28
 315.390625 232.421875 315.390625 232.421875 352.01171875 269.04296875 c 128,-1,29
 388.6328125 305.6640625 388.6328125 305.6640625 439.4140625 305.6640625 c 0,30,31
 492.1484375 305.6640625 492.1484375 305.6640625 530.72265625 267.08984375 c 128,-1,32
 569.296875 228.515625 569.296875 228.515625 569.296875 175.78125 c 0,33,34
 569.296875 108.3984375 569.296875 108.3984375 508.26171875 60.546875 c 128,-1,35
 447.2265625 12.6953125 447.2265625 12.6953125 361.2890625 12.6953125 c 0,36,37
 256.796875 12.6953125 256.796875 12.6953125 169.39453125 100.5859375 c 128,-1,38
 81.9921875 188.4765625 81.9921875 188.4765625 81.9921875 292.96875 c 0,39,40
 81.9921875 363.28125 81.9921875 363.28125 125.44921875 412.59765625 c 128,-1,41
 168.90625 461.9140625 168.90625 461.9140625 231.40625 461.9140625 c 2,42,-1
 419.8828125 461.9140625 l 1,43,-1
 419.8828125 591.796875 l 1,44,-1
 27.3046875 591.796875 l 1,12,-1
EndSplineSet
Fore
SplineSet
-15 579 m 1
 551 579 l 1
 551 524 l 1
 438.711914062 524 l 1
 438.711914062 425 l 1
 438.711914062 370 l 1
 383.711914062 370 l 1
 254.711914062 370 l 2
 214.557617188 370 184.685546875 362.668945312 165.096679688 348.0078125 c 0
 145.506835938 333.346679688 135.711914062 310.010742188 135.711914062 278 c 0
 135.711914062 239.91796875 153.752929688 202.064453125 189.833984375 164.438476562 c 0
 225.916015625 126.8125 266.208007812 108 310.711914062 108 c 0
 338.99609375 108 362.734375 117.529296875 381.924804688 136.586914062 c 0
 401.116210938 155.64453125 410.711914062 179.782226562 410.711914062 209 c 0
 410.711914062 223.392578125 407.620117188 236.580078125 401.4375 248.563476562 c 0
 395.254882812 260.546875 386.881835938 269.94921875 376.319335938 276.76953125 c 0
 365.756835938 283.58984375 354.220703125 286.99609375 341.711914062 286.99609375 c 0
 326.264648438 286.99609375 312.903320312 281.4296875 301.626953125 270.2890625 c 0
 290.350585938 259.1484375 284.711914062 246.051757812 284.711914062 231 c 0
 284.711914062 218.051757812 289.416992188 206.147460938 298.828125 195.288085938 c 0
 308.239257812 184.4296875 315.8671875 179 321.711914062 179 c 1
 321.711914062 124 l 1
 297.202148438 124 275.7421875 135.060546875 257.330078125 157.182617188 c 0
 238.91796875 179.3046875 229.711914062 203.91015625 229.711914062 231 c 0
 229.711914062 251.2109375 234.849609375 269.875976562 245.125976562 286.99609375 c 0
 255.40234375 304.115234375 269.125976562 317.5625 286.297851562 327.337890625 c 0
 303.46875 337.112304688 321.940429688 342 341.711914062 342 c 0
 377.624023438 342 407.268554688 328.766601562 430.645507812 302.298828125 c 0
 454.0234375 275.831054688 465.711914062 244.731445312 465.711914062 209 c 0
 465.711914062 165.05078125 450.766601562 128.063476562 420.875 98.0380859375 c 0
 390.983398438 68.0126953125 354.262695312 53 310.711914062 53 c 0
 270.069335938 53 231.7109375 64.537109375 195.637695312 87.611328125 c 0
 159.564453125 110.685546875 131.391601562 139.5 111.120117188 174.0546875 c 0
 90.84765625 208.610351562 80.7119140625 243.2578125 80.7119140625 278 c 0
 80.7119140625 303.397460938 85.3515625 325.748046875 94.6298828125 345.052734375 c 0
 103.909179688 364.356445312 116.708007812 379.702148438 133.028320312 391.087890625 c 0
 149.34765625 402.474609375 167.705078125 410.97265625 188.098632812 416.583984375 c 0
 208.493164062 422.194335938 230.697265625 425 254.711914062 425 c 2
 383.711914062 425 l 1
 383.711914062 524 l 1
 -15 524 l 1
 -15 579 l 1
EndSplineSet
EndChar

StartChar: nnadeva
Encoding: 339 2339 83
Width: 653
GlyphClass: 2
Flags: HMW
AnchorPoint: "DVAnchor3" 527 648 basechar 0
AnchorPoint: "DVAnchor0" 517 28 basechar 0
LayerCount: 3
Back
SplineSet
218.75 220.703125 m 0,0,1
 253.90625 220.703125 253.90625 220.703125 278.3203125 249.51171875 c 128,-1,2
 302.734375 278.3203125 302.734375 278.3203125 302.734375 318.359375 c 2,3,-1
 302.734375 591.796875 l 1,4,-1
 126.953125 591.796875 l 1,5,-1
 126.953125 318.359375 l 2,6,7
 126.953125 278.3203125 126.953125 278.3203125 153.80859375 249.51171875 c 128,-1,8
 180.6640625 220.703125 180.6640625 220.703125 218.75 220.703125 c 0,0,1
218.75 156.25 m 0,9,10
 153.3203125 156.25 153.3203125 156.25 107.91015625 203.61328125 c 128,-1,11
 62.5 250.9765625 62.5 250.9765625 62.5 318.359375 c 2,12,-1
 62.5 591.796875 l 1,13,-1
 -12.6953125 591.796875 l 1,14,-1
 -12.6953125 650.390625 l 1,15,-1
 666.9921875 650.390625 l 1,16,-1
 666.9921875 591.796875 l 1,17,-1
 556.640625 591.796875 l 1,18,-1
 556.640625 0 l 1,19,-1
 491.2109375 0 l 1,20,-1
 491.2109375 591.796875 l 1,21,-1
 368.1640625 591.796875 l 1,22,-1
 368.1640625 318.359375 l 2,23,24
 368.1640625 250.9765625 368.1640625 250.9765625 323.73046875 203.61328125 c 128,-1,25
 279.296875 156.25 279.296875 156.25 218.75 156.25 c 0,9,10
EndSplineSet
EndChar

StartChar: tadeva
Encoding: 340 2340 84
Width: 610
GlyphClass: 2
Flags: HMW
AnchorPoint: "DVAnchor3" 507 648 basechar 0
LayerCount: 3
Back
SplineSet
81.9921875 318.359375 m 0,0,1
 81.9921875 380.859375 81.9921875 380.859375 122.03125 424.31640625 c 128,-1,2
 162.0703125 467.7734375 162.0703125 467.7734375 217.734375 467.7734375 c 2,3,-1
 471.640625 467.7734375 l 1,4,-1
 471.640625 591.796875 l 1,5,-1
 27.3046875 591.796875 l 1,6,-1
 27.3046875 650.390625 l 1,7,-1
 647.421875 650.390625 l 1,8,-1
 647.421875 591.796875 l 1,9,-1
 537.0703125 591.796875 l 1,10,-1
 537.0703125 0 l 1,11,-1
 471.640625 0 l 1,12,-1
 471.640625 403.3203125 l 1,13,-1
 217.734375 403.3203125 l 2,14,15
 188.4375 403.3203125 188.4375 403.3203125 167.44140625 378.41796875 c 128,-1,16
 146.4453125 353.515625 146.4453125 353.515625 146.4453125 318.359375 c 0,17,18
 146.4453125 255.859375 146.4453125 255.859375 190.87890625 184.5703125 c 128,-1,19
 235.3125 113.28125 235.3125 113.28125 315.390625 45.8984375 c 1,20,-1
 276.328125 0 l 1,21,22
 184.53125 78.125 184.53125 78.125 133.26171875 161.1328125 c 128,-1,23
 81.9921875 244.140625 81.9921875 244.140625 81.9921875 318.359375 c 0,0,1
EndSplineSet
Fore
SplineSet
-15 579 m 1
 625 579 l 1
 625 524 l 1
 476 524 l 1
 476 82 l 2
 476 72.6669921875 479.333007812 64.6669921875 486 58 c 0
 492.666992188 51.3330078125 500.666992188 48 510 48 c 0
 523.333007812 48 533 53 539 63 c 1
 585 32 l 1
 567 6 542 -7 510 -7 c 0
 485.333007812 -7 464.333007812 1.6669921875 447 19 c 0
 429.666992188 36.3330078125 421 57.3330078125 421 82 c 2
 421 370.5 l 1
 270.059570312 370.5 l 2
 252.276367188 370.5 235.915039062 367.064453125 220.9765625 360.193359375 c 0
 206.0390625 353.322265625 193.456054688 343.840820312 183.23046875 331.749023438 c 0
 173.00390625 319.657226562 165.046875 305.198242188 159.360351562 288.37109375 c 0
 153.673828125 271.543945312 150.831054688 253.338867188 150.831054688 233.755859375 c 0
 150.831054688 191.712890625 160.40625 155.599609375 179.557617188 125.416992188 c 0
 198.708007812 95.234375 226.389648438 63.513671875 262.6015625 30.25390625 c 1
 225.3984375 -10.25390625 l 1
 206.961914062 6.6787109375 191.5546875 21.9541015625 179.176757812 35.572265625 c 0
 166.798828125 49.1904296875 153.4765625 66.314453125 139.2109375 86.9453125 c 0
 124.9453125 107.575195312 114.1484375 130.227539062 106.821289062 154.904296875 c 0
 99.494140625 179.580078125 95.8310546875 205.864257812 95.8310546875 233.755859375 c 0
 95.8310546875 286.430664062 111.759765625 331.556640625 143.616210938 369.133789062 c 0
 175.473632812 406.7109375 217.62109375 425.5 270.059570312 425.5 c 2
 421 425.5 l 1
 421 524 l 1
 -15 524 l 1
 -15 579 l 1
EndSplineSet
EndChar

StartChar: thadeva
Encoding: 341 2341 85
Width: 656
GlyphClass: 2
Flags: HMW
AnchorPoint: "DVAnchor3" 562 648 basechar 0
LayerCount: 3
Back
SplineSet
312.96875 129.8828125 m 0,0,1
 220.1953125 129.8828125 220.1953125 129.8828125 147.9296875 194.3359375 c 128,-1,2
 75.6640625 258.7890625 75.6640625 258.7890625 59.0625 357.421875 c 1,3,4
 69.8046875 353.515625 69.8046875 353.515625 91.77734375 352.5390625 c 128,-1,5
 113.75 351.5625 113.75 351.5625 156.71875 351.5625 c 0,6,7
 227.03125 351.5625 227.03125 351.5625 276.34765625 391.6015625 c 128,-1,8
 325.6640625 431.640625 325.6640625 431.640625 325.6640625 487.3046875 c 0,9,10
 325.6640625 536.1328125 325.6640625 536.1328125 294.90234375 570.3125 c 128,-1,11
 264.140625 604.4921875 264.140625 604.4921875 221.171875 604.4921875 c 0,12,13
 184.0625 604.4921875 184.0625 604.4921875 157.20703125 583.984375 c 128,-1,14
 130.3515625 563.4765625 130.3515625 563.4765625 130.3515625 533.203125 c 0,15,16
 130.3515625 508.7890625 130.3515625 508.7890625 153.30078125 491.69921875 c 128,-1,17
 176.25 474.609375 176.25 474.609375 208.4765625 474.609375 c 1,18,-1
 208.4765625 409.1796875 l 1,19,20
 144.0234375 409.1796875 144.0234375 409.1796875 104.9609375 443.359375 c 128,-1,21
 65.8984375 477.5390625 65.8984375 477.5390625 65.8984375 533.203125 c 128,-1,22
 65.8984375 588.8671875 65.8984375 588.8671875 111.30859375 629.39453125 c 128,-1,23
 156.71875 669.921875 156.71875 669.921875 221.171875 669.921875 c 0,24,25
 291.484375 669.921875 291.484375 669.921875 341.2890625 616.69921875 c 128,-1,26
 391.09375 563.4765625 391.09375 563.4765625 391.09375 487.3046875 c 0,27,28
 391.09375 404.296875 391.09375 404.296875 320.78125 345.21484375 c 128,-1,29
 250.46875 286.1328125 250.46875 286.1328125 149.8828125 286.1328125 c 1,30,31
 169.4140625 244.140625 169.4140625 244.140625 213.84765625 219.7265625 c 128,-1,32
 258.28125 195.3125 258.28125 195.3125 312.96875 195.3125 c 0,33,34
 365.703125 195.3125 365.703125 195.3125 421.85546875 227.5390625 c 128,-1,35
 478.0078125 259.765625 478.0078125 259.765625 526.8359375 318.359375 c 1,36,-1
 526.8359375 591.796875 l 1,37,-1
 462.3828125 591.796875 l 1,38,-1
 462.3828125 650.390625 l 1,39,-1
 702.6171875 650.390625 l 1,40,-1
 702.6171875 591.796875 l 1,41,-1
 592.265625 591.796875 l 1,42,-1
 592.265625 0 l 1,43,-1
 526.8359375 0 l 1,44,-1
 526.8359375 234.375 l 1,45,46
 478.0078125 184.5703125 478.0078125 184.5703125 421.85546875 157.2265625 c 128,-1,47
 365.703125 129.8828125 365.703125 129.8828125 312.96875 129.8828125 c 0,0,1
EndSplineSet
Fore
SplineSet
467 579 m 1
 522 579 l 1
 671 579 l 1
 671 524 l 1
 522 524 l 1
 522 100 l 1
 522 82 l 2
 522 72.6669921875 525.333007812 64.6669921875 532 58 c 0
 538.666992188 51.3330078125 546.666992188 48 556 48 c 0
 569.333007812 48 579 53 585 63 c 1
 631 32 l 1
 613 6 588 -7 556 -7 c 0
 531.333007812 -7 510.333007812 1.6669921875 493 19 c 0
 475.666992188 36.3330078125 467 57.3330078125 467 82 c 2
 467 100 l 1
 467 182.061016575 l 1
 422.628163164 134.020217349 369.961739515 110 309 110 c 0
 281 110 254.333007812 114.666992188 229 124 c 0
 203.666992188 133.333007812 183 144.666992188 167 158 c 0
 151 171.333007812 137 185.166992188 125 199.5 c 0
 113 213.833007812 104.333007812 226 99 236 c 0
 93.6669921875 246 91 252.333007812 91 255 c 2
 91 313 l 1
 113 313 l 2
 159 313 199.166992188 328 233.5 358 c 0
 267.833007812 388 285 425 285 469 c 0
 285 495.666992188 277 518.333007812 261 537 c 0
 245 555.666992188 225.666992188 565 203 565 c 0
 184.333007812 565 168.333007812 558.333007812 155 545 c 0
 141.666992188 531.666992188 135 515.666992188 135 497 c 0
 135 479 141.166992188 463.333007812 153.5 450 c 0
 165.833007812 436.666992188 180.333007812 429 197 427 c 1
 197 373 l 1
 166.333007812 373 139.166992188 385.333007812 115.5 410 c 0
 91.8330078125 434.666992188 80 463.666992188 80 497 c 0
 80 530.333007812 92.1669921875 559.166992188 116.5 583.5 c 0
 140.833007812 607.833007812 169.666992188 620 203 620 c 0
 243 620 275.833007812 604.833007812 301.5 574.5 c 0
 327.166992188 544.166992188 340 509 340 469 c 0
 340 415 321.333007812 369 284 331 c 0
 246.666992188 293 201.666992188 269.666992188 149 261 c 1
 164.333007812 233 186.166992188 210 214.5 192 c 0
 242.833007812 174 274.333007812 165 309 165 c 0
 343.666992188 165 374.833007812 173.833007812 402.5 191.5 c 0
 430.166992188 209.166992188 451.666992188 231.333007812 467 258 c 1
 467 524 l 1
 378 524 l 1
 378 579 l 1
 467 579 l 1
EndSplineSet
EndChar

StartChar: dadeva
Encoding: 342 2342 86
Width: 536
GlyphClass: 2
Flags: HMW
AnchorPoint: "DVAnchor3" 447 650 basechar 0
AnchorPoint: "DVAnchor0" 487 7 basechar 0
LayerCount: 3
Back
SplineSet
19.4921875 591.796875 m 1,0,-1
 19.4921875 650.390625 l 1,1,-1
 581.9921875 650.390625 l 1,2,-1
 581.9921875 591.796875 l 1,3,-1
 478.4765625 591.796875 l 1,4,-1
 478.4765625 422.8515625 l 1,5,-1
 224.5703125 422.8515625 l 2,6,7
 186.484375 422.8515625 186.484375 422.8515625 160.1171875 395.99609375 c 128,-1,8
 133.75 369.140625 133.75 369.140625 133.75 332.03125 c 0,9,10
 133.75 261.71875 133.75 261.71875 207.96875 211.9140625 c 128,-1,11
 282.1875 162.109375 282.1875 162.109375 387.65625 162.109375 c 1,12,13
 387.65625 208.0078125 387.65625 208.0078125 408.1640625 240.72265625 c 128,-1,14
 428.671875 273.4375 428.671875 273.4375 458.9453125 273.4375 c 0,15,16
 480.4296875 273.4375 480.4296875 273.4375 495.56640625 258.30078125 c 128,-1,17
 510.703125 243.1640625 510.703125 243.1640625 510.703125 220.703125 c 0,18,19
 510.703125 195.3125 510.703125 195.3125 495.078125 168.9453125 c 128,-1,20
 479.453125 142.578125 479.453125 142.578125 452.109375 124.0234375 c 1,21,-1
 523.3984375 0 l 1,22,-1
 464.8046875 -26.3671875 l 1,23,-1
 393.515625 104.4921875 l 1,24,25
 258.75 104.4921875 258.75 104.4921875 163.53515625 171.38671875 c 128,-1,26
 68.3203125 238.28125 68.3203125 238.28125 68.3203125 332.03125 c 0,27,28
 68.3203125 396.484375 68.3203125 396.484375 113.73046875 441.89453125 c 128,-1,29
 159.140625 487.3046875 159.140625 487.3046875 224.5703125 487.3046875 c 2,30,-1
 413.046875 487.3046875 l 1,31,-1
 413.046875 591.796875 l 1,32,-1
 19.4921875 591.796875 l 1,0,-1
EndSplineSet
Fore
SplineSet
-15 579 m 1
 551 579 l 1
 551 524 l 1
 438.711914062 524 l 1
 438.711914062 425 l 1
 438.711914062 370 l 1
 383.711914062 370 l 1
 255.483398438 370 l 2
 228.583007812 370 206.416992188 366.901367188 188.986328125 360.705078125 c 0
 171.555664062 354.508789062 158.319335938 344.599609375 149.276367188 330.979492188 c 0
 140.233398438 317.358398438 135.711914062 299.760742188 135.711914062 278.1875 c 0
 135.711914062 250.2265625 144.046875 223.373046875 160.717773438 197.625976562 c 0
 177.387695312 171.879882812 198.940429688 150.987304688 225.375 134.94921875 c 0
 251.809570312 118.91015625 279.282226562 109.752929688 307.791992188 107.477539062 c 1
 305.733398438 118.27734375 304.704101562 128.924804688 304.704101562 139.418945312 c 0
 304.704101562 163.009765625 311.365234375 184.325195312 324.686523438 203.366210938 c 0
 338.0078125 222.407226562 357.432617188 231.927734375 382.958984375 231.927734375 c 0
 403.6796875 231.927734375 420.520507812 224.528320312 433.482421875 209.729492188 c 0
 446.444335938 194.930664062 452.924804688 177.758789062 452.924804688 158.21484375 c 0
 452.924804688 136.299804688 446.490234375 117.385742188 433.62109375 101.470703125 c 0
 420.751953125 85.5556640625 404.6640625 73.44921875 385.356445312 65.1533203125 c 1
 392.794921875 54.541015625 415.151367188 32.65625 452.423828125 -0.5 c 1
 415.869140625 -41.59375 l 1
 406.859375 -33.5791015625 394.944335938 -21.7734375 380.123046875 -6.17578125 c 0
 365.30078125 9.421875 352.732421875 23.0166015625 342.415039062 34.607421875 c 2
 326.940429688 51.9931640625 l 1
 286.603515625 51.9931640625 247.5859375 61.8046875 209.887695312 81.4287109375 c 0
 172.190429688 101.051757812 141.236328125 128.489257812 117.026367188 163.740234375 c 0
 92.81640625 198.990234375 80.7119140625 237.139648438 80.7119140625 278.1875 c 0
 80.7119140625 327.514648438 97.2099609375 364.315429688 130.20703125 388.588867188 c 0
 163.203125 412.86328125 204.961914062 425 255.483398438 425 c 2
 383.711914062 425 l 1
 383.711914062 524 l 1
 -15 524 l 1
 -15 579 l 1
362.66015625 115.65234375 m 1
 386.362304688 125.426757812 398.212890625 139.780273438 398.212890625 158.71484375 c 0
 398.212890625 171.190429688 393.224609375 177.427734375 383.247070312 177.427734375 c 0
 367.744140625 177.427734375 359.9921875 164.924804688 359.9921875 139.918945312 c 0
 359.9921875 131.801757812 360.881835938 123.712890625 362.66015625 115.65234375 c 1
EndSplineSet
Layer: 2
SplineSet
515 -113 m 4
 508.880859375 -143.471679688 495.166015625 -170.127929688 473.856445312 -192.967773438 c 1
 449.916015625 -208.603515625 423.104492188 -217.984375 393.419921875 -221.111328125 c 1
 345.186523438 -212.543945312 294.045898438 -186.83984375 240 -144 c 1
 217.03125 -121.70703125 193.764648438 -97.70703125 170.200195312 -72 c 1024
EndSplineSet
EndChar

StartChar: dhadeva
Encoding: 343 2343 87
Width: 598
GlyphClass: 2
Flags: HMW
AnchorPoint: "DVAnchor3" 569 648 basechar 0
LayerCount: 3
Back
SplineSet
329.666015625 110.3515625 m 0,0,1
 256.423828125 110.3515625 256.423828125 110.3515625 205.154296875 150.87890625 c 128,-1,2
 153.884765625 191.40625 153.884765625 191.40625 153.884765625 247.0703125 c 0,3,4
 153.884765625 282.2265625 153.884765625 282.2265625 167.556640625 311.5234375 c 128,-1,5
 181.228515625 340.8203125 181.228515625 340.8203125 205.642578125 357.421875 c 1,6,7
 153.884765625 393.5546875 153.884765625 393.5546875 124.587890625 440.4296875 c 128,-1,8
 95.291015625 487.3046875 95.291015625 487.3046875 95.291015625 533.203125 c 0,9,10
 95.291015625 588.8671875 95.291015625 588.8671875 133.865234375 629.39453125 c 128,-1,11
 172.439453125 669.921875 172.439453125 669.921875 225.173828125 669.921875 c 0,12,13
 280.837890625 669.921875 280.837890625 669.921875 315.017578125 640.13671875 c 128,-1,14
 349.197265625 610.3515625 349.197265625 610.3515625 349.197265625 559.5703125 c 0,15,16
 349.197265625 516.6015625 349.197265625 516.6015625 314.529296875 485.83984375 c 128,-1,17
 279.861328125 455.078125 279.861328125 455.078125 232.009765625 455.078125 c 1,18,-1
 232.009765625 520.5078125 l 1,19,20
 253.494140625 520.5078125 253.494140625 520.5078125 268.630859375 532.2265625 c 128,-1,21
 283.767578125 543.9453125 283.767578125 543.9453125 283.767578125 559.5703125 c 0,22,23
 283.767578125 577.1484375 283.767578125 577.1484375 266.677734375 590.8203125 c 128,-1,24
 249.587890625 604.4921875 249.587890625 604.4921875 225.173828125 604.4921875 c 0,25,26
 197.830078125 604.4921875 197.830078125 604.4921875 179.275390625 583.984375 c 128,-1,27
 160.720703125 563.4765625 160.720703125 563.4765625 160.720703125 533.203125 c 0,28,29
 160.720703125 495.1171875 160.720703125 495.1171875 186.599609375 458.984375 c 128,-1,30
 212.478515625 422.8515625 212.478515625 422.8515625 257.400390625 396.484375 c 1,31,32
 278.884765625 405.2734375 278.884765625 405.2734375 303.298828125 410.64453125 c 128,-1,33
 327.712890625 416.015625 327.712890625 416.015625 355.056640625 416.015625 c 2,34,-1
 394.119140625 416.015625 l 1,35,-1
 433.181640625 351.5625 l 1,36,-1
 361.892578125 351.5625 l 2,37,38
 302.322265625 351.5625 302.322265625 351.5625 260.330078125 320.80078125 c 128,-1,39
 218.337890625 290.0390625 218.337890625 290.0390625 218.337890625 247.0703125 c 0,40,41
 218.337890625 216.796875 218.337890625 216.796875 251.052734375 196.2890625 c 128,-1,42
 283.767578125 175.78125 283.767578125 175.78125 329.666015625 175.78125 c 0,43,44
 381.423828125 175.78125 381.423828125 175.78125 434.646484375 209.9609375 c 128,-1,45
 487.869140625 244.140625 487.869140625 244.140625 530.837890625 305.6640625 c 1,46,-1
 530.837890625 591.796875 l 1,47,-1
 388.259765625 591.796875 l 1,48,-1
 388.259765625 650.390625 l 1,49,-1
 706.619140625 650.390625 l 1,50,-1
 706.619140625 591.796875 l 1,51,-1
 596.267578125 591.796875 l 1,52,-1
 596.267578125 0 l 1,53,-1
 530.837890625 0 l 1,54,-1
 530.837890625 214.84375 l 1,55,56
 488.845703125 165.0390625 488.845703125 165.0390625 436.599609375 137.6953125 c 128,-1,57
 384.353515625 110.3515625 384.353515625 110.3515625 329.666015625 110.3515625 c 0,0,1
EndSplineSet
Fore
SplineSet
224 620 m 0
 249 620 276 613 297 596 c 0
 310 586 320 572 327 557 c 0
 333 544 336 530 336 516 c 0
 336 491.333007812 327.333007812 470.333007812 310 453 c 0
 292.666992188 435.666992188 271.666992188 427 247 427 c 0
 215 427 190 440 172 466 c 1
 218 497 l 1
 224 487 233.666992188 482 247 482 c 0
 256.333007812 482 264.333007812 485.333007812 271 492 c 0
 277.666992188 498.666992188 281 506.666992188 281 516 c 0
 281 522 280 529 277 535 c 0
 274 542 269 547 263 552 c 0
 253 560 239 565 224 565 c 0
 176.470703125 565 135.5 538.033203125 135.5 488.5 c 0
 135.5 433.71424291 171.36413278 383.497274146 200.229641854 364.223587329 c 1
 218.666737088 370.819177938 239.442760253 374.156323742 262.557617188 374.235118902 c 1
 262.557617188 374.235351562 l 1
 262.62890625 374.235351562 l 1
 262.62890625 374.235351562 l 1
 332 374.235351562 l 1
 332 319.224609375 l 1
 263.210634547 319.224609375 l 2
 262.989684917 319.215779575 262.772012329 319.224609375 262.557617188 319.224609375 c 0
 232.852539062 319.075195312 207.096679688 308.946289062 185.291015625 288.837890625 c 0
 163.763671875 268.279296875 153.000976562 243.926757812 153.001953125 215.780273438 c 0
 153.000976562 201.259765625 155.837890625 187.752929688 161.513671875 175.2578125 c 0
 167.170898438 162.418945312 174.881835938 151.686523438 184.646484375 143.05859375 c 0
 194.215820312 134.352539062 205.850585938 127.377929688 219.5 122.1328125 c 0
 233.184570312 116.7109375 247.471679688 114.165039062 262.4140625 114.494140625 c 0
 302.137695312 114.165039062 336.4921875 129.24609375 365.477539062 159.73828125 c 0
 394.4921875 189.913085938 409 222.301757812 409 256.90625 c 2
 409 524 l 1
 409 579 l 1
 613 579 l 1
 613 524 l 1
 464 524 l 1
 464 82 l 2
 464 72.6669921875 467.333007812 64.6669921875 474 58 c 0
 480.666992188 51.3330078125 488.666992188 48 498 48 c 0
 511.333007812 48 521 53 527 63 c 1
 573 32 l 1
 555 6 530 -7 498 -7 c 0
 473.333007812 -7 452.333007812 1.6669921875 435 19 c 0
 417.666992188 36.3330078125 409 57.3330078125 409 82 c 2
 409 140 l 1
 397 116 377 96.5 349 81.5 c 0
 321 66.5 292.161132812 59.1640625 262.482421875 59.4931640625 c 0
 212.161132812 59.1640625 172.845703125 74.6572265625 144.538085938 105.97265625 c 0
 116.1796875 136.657226562 102.123046875 173.4140625 102.368164062 216.241210938 c 0
 102.123046875 258.747070312 116.247070312 295.7578125 144.7421875 327.274414062 c 0
 146.612484399 329.342451031 148.531810123 331.34218509 150.500164389 333.273616524 c 1
 112.874929983 366.868126559 80.5 423.631160398 80.5 488.5 c 0
 80.5 577.252929688 157.529296875 620 224 620 c 0
EndSplineSet
Layer: 2
SplineSet
231.134765625 590 m 4
 161.134765625 590 97.134765625 566 97.134765625 486 c 4
 97.134765625 416 161.134765625 355 200.134765625 334 c 1028
EndSplineSet
EndChar

